M48
; DRILL file {KiCad 8.0.2-1.fc38} date 2024-06-21T20:30:14+0200
; FORMAT={-:-/ absolute / inch / decimal}
; #@! TF.CreationDate,2024-06-21T20:30:14+02:00
; #@! TF.GenerationSoftware,Kicad,Pcbnew,8.0.2-1.fc38
; #@! TF.FileFunction,Plated,1,2,PTH
FMAT,2
INCH
; #@! TA.AperFunction,Plated,PTH,ViaDrill
T1C0.0157
; #@! TA.AperFunction,Plated,PTH,ComponentDrill
T2C0.0315
; #@! TA.AperFunction,Plated,PTH,ComponentDrill
T3C0.0320
; #@! TA.AperFunction,Plated,PTH,ComponentDrill
T4C0.0354
; #@! TA.AperFunction,Plated,PTH,ComponentDrill
T5C0.0394
; #@! TA.AperFunction,Plated,PTH,ComponentDrill
T6C0.0591
%
G90
G05
T1
X4.6673Y-3.2246
X4.8283Y-4.4469
X4.8697Y-3.7437
X4.9177Y-3.6217
X4.93Y-4.45
X5.1083Y-2.9795
X5.109Y-2.845
X5.17Y-3.82
X5.2051Y-4.1441
X5.2587Y-2.7524
X5.46Y-3.26
X5.46Y-3.53
X5.475Y-4.34
X5.515Y-4.203
X5.55Y-3.78
X5.58Y-2.995
X5.6Y-3.59
X5.62Y-4.67
X5.67Y-3.78
X5.71Y-4.67
X5.7497Y-3.59
X5.81Y-4.66
X5.8198Y-4.6098
X5.91Y-4.08
X5.92Y-2.99
X5.94Y-4.66
X5.95Y-4.25
X5.98Y-4.35
X6.01Y-2.96
X6.05Y-4.4
X6.11Y-4.65
X6.13Y-3.83
X6.131Y-4.205
X6.17Y-4.45
X6.2Y-4.239
X6.22Y-4.61
X6.28Y-4.55
X6.295Y-3.14
X6.298Y-2.9618
X6.31Y-3.72
X6.31Y-4.65
X6.34Y-4.34
X6.37Y-4.07
X6.4068Y-4.6385
X6.45Y-3.59
X6.46Y-3.66
X6.4694Y-4.34
X6.51Y-4.65
X6.53Y-3.9
X6.55Y-3.72
X6.58Y-3.59
X6.63Y-4.61
X6.63Y-4.66
X6.7Y-3.66
X6.71Y-3.95
X6.75Y-4.53
X6.81Y-4.62
X6.8504Y-4.1457
X6.92Y-3.32
X7.2Y-3.09
X7.23Y-4.58
X7.38Y-3.22
X7.43Y-4.54
T2
X7.015Y-3.2567
X7.015Y-3.4535
X7.5Y-2.6508
X7.5Y-3.0508
T3
X5.265Y-4.3547
X5.265Y-4.4547
T4
X7.5Y-2.5
X7.6Y-2.5
T5
X4.3474Y-2.6246
X4.3474Y-2.7246
X4.3474Y-2.8246
X4.3474Y-3.0246
X4.3474Y-3.1246
X4.3474Y-3.2246
X4.3474Y-3.3246
X4.3474Y-3.5246
X4.3474Y-3.6246
X4.3474Y-3.7246
X4.3474Y-3.8246
X4.4474Y-2.6246
X4.4474Y-2.7246
X4.4474Y-2.8246
X4.4474Y-3.0246
X4.4474Y-3.1246
X4.4474Y-3.2246
X4.4474Y-3.3246
X4.4474Y-3.5246
X4.4474Y-3.6246
X4.4474Y-3.7246
X4.4474Y-3.8246
T6
X5.5496Y-2.8484
X5.5496Y-3.4484
X5.6496Y-2.8484
X5.6496Y-3.4484
X5.7496Y-2.8484
X5.7496Y-3.4484
X5.8496Y-2.8484
X5.8496Y-3.4484
X5.9496Y-2.8484
X5.9496Y-3.4484
X6.0496Y-2.8484
X6.0496Y-3.4484
X6.1496Y-2.8484
X6.1496Y-3.4484
X6.2496Y-2.8484
X6.2496Y-3.4484
X6.3496Y-2.8484
X6.3496Y-3.4484
X6.4496Y-2.8484
X6.4496Y-3.4484
X6.5496Y-2.8484
X6.5496Y-3.4484
X6.6496Y-2.8484
X6.6496Y-3.4484
X6.7496Y-2.8484
X6.7496Y-3.4484
X6.8496Y-2.8484
X6.8496Y-3.4484
M30
