%TF.GenerationSoftware,KiCad,Pcbnew,8.0.2-1.fc38*%
%TF.CreationDate,2024-06-21T20:30:21+02:00*%
%TF.ProjectId,msx_eprom_cartridge_3.1,6d73785f-6570-4726-9f6d-5f6361727472,rev?*%
%TF.SameCoordinates,Original*%
%TF.FileFunction,Legend,Bot*%
%TF.FilePolarity,Positive*%
%FSLAX46Y46*%
G04 Gerber Fmt 4.6, Leading zero omitted, Abs format (unit mm)*
G04 Created by KiCad (PCBNEW 8.0.2-1.fc38) date 2024-06-21 20:30:21*
%MOMM*%
%LPD*%
G01*
G04 APERTURE LIST*
%ADD10C,0.203000*%
G04 APERTURE END LIST*
D10*
X201410110Y-64180885D02*
X200010110Y-64180885D01*
X200543444Y-64180885D02*
X200476777Y-64314218D01*
X200476777Y-64314218D02*
X200476777Y-64580885D01*
X200476777Y-64580885D02*
X200543444Y-64714218D01*
X200543444Y-64714218D02*
X200610110Y-64780885D01*
X200610110Y-64780885D02*
X200743444Y-64847552D01*
X200743444Y-64847552D02*
X201143444Y-64847552D01*
X201143444Y-64847552D02*
X201276777Y-64780885D01*
X201276777Y-64780885D02*
X201343444Y-64714218D01*
X201343444Y-64714218D02*
X201410110Y-64580885D01*
X201410110Y-64580885D02*
X201410110Y-64314218D01*
X201410110Y-64314218D02*
X201343444Y-64180885D01*
X200476777Y-65314219D02*
X201410110Y-65647552D01*
X200476777Y-65980885D02*
X201410110Y-65647552D01*
X201410110Y-65647552D02*
X201743444Y-65514219D01*
X201743444Y-65514219D02*
X201810110Y-65447552D01*
X201810110Y-65447552D02*
X201876777Y-65314219D01*
X200010110Y-67980886D02*
X201010110Y-67980886D01*
X201010110Y-67980886D02*
X201210110Y-67914219D01*
X201210110Y-67914219D02*
X201343444Y-67780886D01*
X201343444Y-67780886D02*
X201410110Y-67580886D01*
X201410110Y-67580886D02*
X201410110Y-67447553D01*
X201410110Y-68847553D02*
X201343444Y-68714220D01*
X201343444Y-68714220D02*
X201276777Y-68647553D01*
X201276777Y-68647553D02*
X201143444Y-68580886D01*
X201143444Y-68580886D02*
X200743444Y-68580886D01*
X200743444Y-68580886D02*
X200610110Y-68647553D01*
X200610110Y-68647553D02*
X200543444Y-68714220D01*
X200543444Y-68714220D02*
X200476777Y-68847553D01*
X200476777Y-68847553D02*
X200476777Y-69047553D01*
X200476777Y-69047553D02*
X200543444Y-69180886D01*
X200543444Y-69180886D02*
X200610110Y-69247553D01*
X200610110Y-69247553D02*
X200743444Y-69314220D01*
X200743444Y-69314220D02*
X201143444Y-69314220D01*
X201143444Y-69314220D02*
X201276777Y-69247553D01*
X201276777Y-69247553D02*
X201343444Y-69180886D01*
X201343444Y-69180886D02*
X201410110Y-69047553D01*
X201410110Y-69047553D02*
X201410110Y-68847553D01*
X201410110Y-69914220D02*
X200476777Y-69914220D01*
X200743444Y-69914220D02*
X200610110Y-69980887D01*
X200610110Y-69980887D02*
X200543444Y-70047553D01*
X200543444Y-70047553D02*
X200476777Y-70180887D01*
X200476777Y-70180887D02*
X200476777Y-70314220D01*
X201410110Y-71380887D02*
X200010110Y-71380887D01*
X201343444Y-71380887D02*
X201410110Y-71247554D01*
X201410110Y-71247554D02*
X201410110Y-70980887D01*
X201410110Y-70980887D02*
X201343444Y-70847554D01*
X201343444Y-70847554D02*
X201276777Y-70780887D01*
X201276777Y-70780887D02*
X201143444Y-70714220D01*
X201143444Y-70714220D02*
X200743444Y-70714220D01*
X200743444Y-70714220D02*
X200610110Y-70780887D01*
X200610110Y-70780887D02*
X200543444Y-70847554D01*
X200543444Y-70847554D02*
X200476777Y-70980887D01*
X200476777Y-70980887D02*
X200476777Y-71247554D01*
X200476777Y-71247554D02*
X200543444Y-71380887D01*
X201410110Y-72047554D02*
X200476777Y-72047554D01*
X200010110Y-72047554D02*
X200076777Y-71980887D01*
X200076777Y-71980887D02*
X200143444Y-72047554D01*
X200143444Y-72047554D02*
X200076777Y-72114221D01*
X200076777Y-72114221D02*
X200010110Y-72047554D01*
X200010110Y-72047554D02*
X200143444Y-72047554D01*
X201343444Y-73714221D02*
X201410110Y-73914221D01*
X201410110Y-73914221D02*
X201410110Y-74247555D01*
X201410110Y-74247555D02*
X201343444Y-74380888D01*
X201343444Y-74380888D02*
X201276777Y-74447555D01*
X201276777Y-74447555D02*
X201143444Y-74514221D01*
X201143444Y-74514221D02*
X201010110Y-74514221D01*
X201010110Y-74514221D02*
X200876777Y-74447555D01*
X200876777Y-74447555D02*
X200810110Y-74380888D01*
X200810110Y-74380888D02*
X200743444Y-74247555D01*
X200743444Y-74247555D02*
X200676777Y-73980888D01*
X200676777Y-73980888D02*
X200610110Y-73847555D01*
X200610110Y-73847555D02*
X200543444Y-73780888D01*
X200543444Y-73780888D02*
X200410110Y-73714221D01*
X200410110Y-73714221D02*
X200276777Y-73714221D01*
X200276777Y-73714221D02*
X200143444Y-73780888D01*
X200143444Y-73780888D02*
X200076777Y-73847555D01*
X200076777Y-73847555D02*
X200010110Y-73980888D01*
X200010110Y-73980888D02*
X200010110Y-74314221D01*
X200010110Y-74314221D02*
X200076777Y-74514221D01*
X201410110Y-75314221D02*
X201343444Y-75180888D01*
X201343444Y-75180888D02*
X201276777Y-75114221D01*
X201276777Y-75114221D02*
X201143444Y-75047554D01*
X201143444Y-75047554D02*
X200743444Y-75047554D01*
X200743444Y-75047554D02*
X200610110Y-75114221D01*
X200610110Y-75114221D02*
X200543444Y-75180888D01*
X200543444Y-75180888D02*
X200476777Y-75314221D01*
X200476777Y-75314221D02*
X200476777Y-75514221D01*
X200476777Y-75514221D02*
X200543444Y-75647554D01*
X200543444Y-75647554D02*
X200610110Y-75714221D01*
X200610110Y-75714221D02*
X200743444Y-75780888D01*
X200743444Y-75780888D02*
X201143444Y-75780888D01*
X201143444Y-75780888D02*
X201276777Y-75714221D01*
X201276777Y-75714221D02*
X201343444Y-75647554D01*
X201343444Y-75647554D02*
X201410110Y-75514221D01*
X201410110Y-75514221D02*
X201410110Y-75314221D01*
X201410110Y-76580888D02*
X201343444Y-76447555D01*
X201343444Y-76447555D02*
X201210110Y-76380888D01*
X201210110Y-76380888D02*
X200010110Y-76380888D01*
X201410110Y-77114221D02*
X200476777Y-77114221D01*
X199943444Y-77247554D02*
X200143444Y-77047554D01*
X201343444Y-77714221D02*
X201410110Y-77847555D01*
X201410110Y-77847555D02*
X201410110Y-78114221D01*
X201410110Y-78114221D02*
X201343444Y-78247555D01*
X201343444Y-78247555D02*
X201210110Y-78314221D01*
X201210110Y-78314221D02*
X201143444Y-78314221D01*
X201143444Y-78314221D02*
X201010110Y-78247555D01*
X201010110Y-78247555D02*
X200943444Y-78114221D01*
X200943444Y-78114221D02*
X200943444Y-77914221D01*
X200943444Y-77914221D02*
X200876777Y-77780888D01*
X200876777Y-77780888D02*
X200743444Y-77714221D01*
X200743444Y-77714221D02*
X200676777Y-77714221D01*
X200676777Y-77714221D02*
X200543444Y-77780888D01*
X200543444Y-77780888D02*
X200476777Y-77914221D01*
X200476777Y-77914221D02*
X200476777Y-78114221D01*
X200476777Y-78114221D02*
X200543444Y-78247555D01*
X201343444Y-78980888D02*
X201410110Y-78980888D01*
X201410110Y-78980888D02*
X201543444Y-78914221D01*
X201543444Y-78914221D02*
X201610110Y-78847554D01*
X201410110Y-80647555D02*
X200010110Y-80647555D01*
X200010110Y-80647555D02*
X201010110Y-81114222D01*
X201010110Y-81114222D02*
X200010110Y-81580888D01*
X200010110Y-81580888D02*
X201410110Y-81580888D01*
X201343444Y-82180888D02*
X201410110Y-82380888D01*
X201410110Y-82380888D02*
X201410110Y-82714222D01*
X201410110Y-82714222D02*
X201343444Y-82847555D01*
X201343444Y-82847555D02*
X201276777Y-82914222D01*
X201276777Y-82914222D02*
X201143444Y-82980888D01*
X201143444Y-82980888D02*
X201010110Y-82980888D01*
X201010110Y-82980888D02*
X200876777Y-82914222D01*
X200876777Y-82914222D02*
X200810110Y-82847555D01*
X200810110Y-82847555D02*
X200743444Y-82714222D01*
X200743444Y-82714222D02*
X200676777Y-82447555D01*
X200676777Y-82447555D02*
X200610110Y-82314222D01*
X200610110Y-82314222D02*
X200543444Y-82247555D01*
X200543444Y-82247555D02*
X200410110Y-82180888D01*
X200410110Y-82180888D02*
X200276777Y-82180888D01*
X200276777Y-82180888D02*
X200143444Y-82247555D01*
X200143444Y-82247555D02*
X200076777Y-82314222D01*
X200076777Y-82314222D02*
X200010110Y-82447555D01*
X200010110Y-82447555D02*
X200010110Y-82780888D01*
X200010110Y-82780888D02*
X200076777Y-82980888D01*
X200010110Y-83447555D02*
X201410110Y-84380888D01*
X200010110Y-84380888D02*
X201410110Y-83447555D01*
X201410110Y-84914221D02*
X200476777Y-84914221D01*
X200610110Y-84914221D02*
X200543444Y-84980888D01*
X200543444Y-84980888D02*
X200476777Y-85114221D01*
X200476777Y-85114221D02*
X200476777Y-85314221D01*
X200476777Y-85314221D02*
X200543444Y-85447554D01*
X200543444Y-85447554D02*
X200676777Y-85514221D01*
X200676777Y-85514221D02*
X201410110Y-85514221D01*
X200676777Y-85514221D02*
X200543444Y-85580888D01*
X200543444Y-85580888D02*
X200476777Y-85714221D01*
X200476777Y-85714221D02*
X200476777Y-85914221D01*
X200476777Y-85914221D02*
X200543444Y-86047554D01*
X200543444Y-86047554D02*
X200676777Y-86114221D01*
X200676777Y-86114221D02*
X201410110Y-86114221D01*
X201410110Y-87380888D02*
X200676777Y-87380888D01*
X200676777Y-87380888D02*
X200543444Y-87314221D01*
X200543444Y-87314221D02*
X200476777Y-87180888D01*
X200476777Y-87180888D02*
X200476777Y-86914221D01*
X200476777Y-86914221D02*
X200543444Y-86780888D01*
X201343444Y-87380888D02*
X201410110Y-87247555D01*
X201410110Y-87247555D02*
X201410110Y-86914221D01*
X201410110Y-86914221D02*
X201343444Y-86780888D01*
X201343444Y-86780888D02*
X201210110Y-86714221D01*
X201210110Y-86714221D02*
X201076777Y-86714221D01*
X201076777Y-86714221D02*
X200943444Y-86780888D01*
X200943444Y-86780888D02*
X200876777Y-86914221D01*
X200876777Y-86914221D02*
X200876777Y-87247555D01*
X200876777Y-87247555D02*
X200810110Y-87380888D01*
X201410110Y-88047555D02*
X200010110Y-88047555D01*
X200876777Y-88180888D02*
X201410110Y-88580888D01*
X200476777Y-88580888D02*
X201010110Y-88047555D01*
X201343444Y-89714221D02*
X201410110Y-89580888D01*
X201410110Y-89580888D02*
X201410110Y-89314221D01*
X201410110Y-89314221D02*
X201343444Y-89180888D01*
X201343444Y-89180888D02*
X201210110Y-89114221D01*
X201210110Y-89114221D02*
X200676777Y-89114221D01*
X200676777Y-89114221D02*
X200543444Y-89180888D01*
X200543444Y-89180888D02*
X200476777Y-89314221D01*
X200476777Y-89314221D02*
X200476777Y-89580888D01*
X200476777Y-89580888D02*
X200543444Y-89714221D01*
X200543444Y-89714221D02*
X200676777Y-89780888D01*
X200676777Y-89780888D02*
X200810110Y-89780888D01*
X200810110Y-89780888D02*
X200943444Y-89114221D01*
X201410110Y-90380888D02*
X200476777Y-90380888D01*
X200743444Y-90380888D02*
X200610110Y-90447555D01*
X200610110Y-90447555D02*
X200543444Y-90514221D01*
X200543444Y-90514221D02*
X200476777Y-90647555D01*
X200476777Y-90647555D02*
X200476777Y-90780888D01*
X201343444Y-91180888D02*
X201410110Y-91314222D01*
X201410110Y-91314222D02*
X201410110Y-91580888D01*
X201410110Y-91580888D02*
X201343444Y-91714222D01*
X201343444Y-91714222D02*
X201210110Y-91780888D01*
X201210110Y-91780888D02*
X201143444Y-91780888D01*
X201143444Y-91780888D02*
X201010110Y-91714222D01*
X201010110Y-91714222D02*
X200943444Y-91580888D01*
X200943444Y-91580888D02*
X200943444Y-91380888D01*
X200943444Y-91380888D02*
X200876777Y-91247555D01*
X200876777Y-91247555D02*
X200743444Y-91180888D01*
X200743444Y-91180888D02*
X200676777Y-91180888D01*
X200676777Y-91180888D02*
X200543444Y-91247555D01*
X200543444Y-91247555D02*
X200476777Y-91380888D01*
X200476777Y-91380888D02*
X200476777Y-91580888D01*
X200476777Y-91580888D02*
X200543444Y-91714222D01*
X201410110Y-93447555D02*
X200476777Y-93447555D01*
X200610110Y-93447555D02*
X200543444Y-93514222D01*
X200543444Y-93514222D02*
X200476777Y-93647555D01*
X200476777Y-93647555D02*
X200476777Y-93847555D01*
X200476777Y-93847555D02*
X200543444Y-93980888D01*
X200543444Y-93980888D02*
X200676777Y-94047555D01*
X200676777Y-94047555D02*
X201410110Y-94047555D01*
X200676777Y-94047555D02*
X200543444Y-94114222D01*
X200543444Y-94114222D02*
X200476777Y-94247555D01*
X200476777Y-94247555D02*
X200476777Y-94447555D01*
X200476777Y-94447555D02*
X200543444Y-94580888D01*
X200543444Y-94580888D02*
X200676777Y-94647555D01*
X200676777Y-94647555D02*
X201410110Y-94647555D01*
X201343444Y-95847555D02*
X201410110Y-95714222D01*
X201410110Y-95714222D02*
X201410110Y-95447555D01*
X201410110Y-95447555D02*
X201343444Y-95314222D01*
X201343444Y-95314222D02*
X201210110Y-95247555D01*
X201210110Y-95247555D02*
X200676777Y-95247555D01*
X200676777Y-95247555D02*
X200543444Y-95314222D01*
X200543444Y-95314222D02*
X200476777Y-95447555D01*
X200476777Y-95447555D02*
X200476777Y-95714222D01*
X200476777Y-95714222D02*
X200543444Y-95847555D01*
X200543444Y-95847555D02*
X200676777Y-95914222D01*
X200676777Y-95914222D02*
X200810110Y-95914222D01*
X200810110Y-95914222D02*
X200943444Y-95247555D01*
X201410110Y-96514222D02*
X200476777Y-96514222D01*
X200610110Y-96514222D02*
X200543444Y-96580889D01*
X200543444Y-96580889D02*
X200476777Y-96714222D01*
X200476777Y-96714222D02*
X200476777Y-96914222D01*
X200476777Y-96914222D02*
X200543444Y-97047555D01*
X200543444Y-97047555D02*
X200676777Y-97114222D01*
X200676777Y-97114222D02*
X201410110Y-97114222D01*
X200676777Y-97114222D02*
X200543444Y-97180889D01*
X200543444Y-97180889D02*
X200476777Y-97314222D01*
X200476777Y-97314222D02*
X200476777Y-97514222D01*
X200476777Y-97514222D02*
X200543444Y-97647555D01*
X200543444Y-97647555D02*
X200676777Y-97714222D01*
X200676777Y-97714222D02*
X201410110Y-97714222D01*
X201410110Y-98380889D02*
X200010110Y-98380889D01*
X200543444Y-98380889D02*
X200476777Y-98514222D01*
X200476777Y-98514222D02*
X200476777Y-98780889D01*
X200476777Y-98780889D02*
X200543444Y-98914222D01*
X200543444Y-98914222D02*
X200610110Y-98980889D01*
X200610110Y-98980889D02*
X200743444Y-99047556D01*
X200743444Y-99047556D02*
X201143444Y-99047556D01*
X201143444Y-99047556D02*
X201276777Y-98980889D01*
X201276777Y-98980889D02*
X201343444Y-98914222D01*
X201343444Y-98914222D02*
X201410110Y-98780889D01*
X201410110Y-98780889D02*
X201410110Y-98514222D01*
X201410110Y-98514222D02*
X201343444Y-98380889D01*
X201343444Y-100180889D02*
X201410110Y-100047556D01*
X201410110Y-100047556D02*
X201410110Y-99780889D01*
X201410110Y-99780889D02*
X201343444Y-99647556D01*
X201343444Y-99647556D02*
X201210110Y-99580889D01*
X201210110Y-99580889D02*
X200676777Y-99580889D01*
X200676777Y-99580889D02*
X200543444Y-99647556D01*
X200543444Y-99647556D02*
X200476777Y-99780889D01*
X200476777Y-99780889D02*
X200476777Y-100047556D01*
X200476777Y-100047556D02*
X200543444Y-100180889D01*
X200543444Y-100180889D02*
X200676777Y-100247556D01*
X200676777Y-100247556D02*
X200810110Y-100247556D01*
X200810110Y-100247556D02*
X200943444Y-99580889D01*
X201410110Y-100847556D02*
X200476777Y-100847556D01*
X200743444Y-100847556D02*
X200610110Y-100914223D01*
X200610110Y-100914223D02*
X200543444Y-100980889D01*
X200543444Y-100980889D02*
X200476777Y-101114223D01*
X200476777Y-101114223D02*
X200476777Y-101247556D01*
X201276777Y-101714223D02*
X201343444Y-101780890D01*
X201343444Y-101780890D02*
X201410110Y-101714223D01*
X201410110Y-101714223D02*
X201343444Y-101647556D01*
X201343444Y-101647556D02*
X201276777Y-101714223D01*
X201276777Y-101714223D02*
X201410110Y-101714223D01*
X198710110Y-64180885D02*
X197310110Y-64180885D01*
X197310110Y-64180885D02*
X198310110Y-64647552D01*
X198310110Y-64647552D02*
X197310110Y-65114218D01*
X197310110Y-65114218D02*
X198710110Y-65114218D01*
X198643444Y-65714218D02*
X198710110Y-65914218D01*
X198710110Y-65914218D02*
X198710110Y-66247552D01*
X198710110Y-66247552D02*
X198643444Y-66380885D01*
X198643444Y-66380885D02*
X198576777Y-66447552D01*
X198576777Y-66447552D02*
X198443444Y-66514218D01*
X198443444Y-66514218D02*
X198310110Y-66514218D01*
X198310110Y-66514218D02*
X198176777Y-66447552D01*
X198176777Y-66447552D02*
X198110110Y-66380885D01*
X198110110Y-66380885D02*
X198043444Y-66247552D01*
X198043444Y-66247552D02*
X197976777Y-65980885D01*
X197976777Y-65980885D02*
X197910110Y-65847552D01*
X197910110Y-65847552D02*
X197843444Y-65780885D01*
X197843444Y-65780885D02*
X197710110Y-65714218D01*
X197710110Y-65714218D02*
X197576777Y-65714218D01*
X197576777Y-65714218D02*
X197443444Y-65780885D01*
X197443444Y-65780885D02*
X197376777Y-65847552D01*
X197376777Y-65847552D02*
X197310110Y-65980885D01*
X197310110Y-65980885D02*
X197310110Y-66314218D01*
X197310110Y-66314218D02*
X197376777Y-66514218D01*
X197310110Y-66980885D02*
X198710110Y-67914218D01*
X197310110Y-67914218D02*
X198710110Y-66980885D01*
X197310110Y-70114218D02*
X197310110Y-69847551D01*
X197310110Y-69847551D02*
X197376777Y-69714218D01*
X197376777Y-69714218D02*
X197443444Y-69647551D01*
X197443444Y-69647551D02*
X197643444Y-69514218D01*
X197643444Y-69514218D02*
X197910110Y-69447551D01*
X197910110Y-69447551D02*
X198443444Y-69447551D01*
X198443444Y-69447551D02*
X198576777Y-69514218D01*
X198576777Y-69514218D02*
X198643444Y-69580885D01*
X198643444Y-69580885D02*
X198710110Y-69714218D01*
X198710110Y-69714218D02*
X198710110Y-69980885D01*
X198710110Y-69980885D02*
X198643444Y-70114218D01*
X198643444Y-70114218D02*
X198576777Y-70180885D01*
X198576777Y-70180885D02*
X198443444Y-70247551D01*
X198443444Y-70247551D02*
X198110110Y-70247551D01*
X198110110Y-70247551D02*
X197976777Y-70180885D01*
X197976777Y-70180885D02*
X197910110Y-70114218D01*
X197910110Y-70114218D02*
X197843444Y-69980885D01*
X197843444Y-69980885D02*
X197843444Y-69714218D01*
X197843444Y-69714218D02*
X197910110Y-69580885D01*
X197910110Y-69580885D02*
X197976777Y-69514218D01*
X197976777Y-69514218D02*
X198110110Y-69447551D01*
X197776777Y-71447551D02*
X198710110Y-71447551D01*
X197243444Y-71114218D02*
X198243444Y-70780884D01*
X198243444Y-70780884D02*
X198243444Y-71647551D01*
X198710110Y-72180884D02*
X197310110Y-72180884D01*
X198710110Y-72980884D02*
X197910110Y-72380884D01*
X197310110Y-72980884D02*
X198110110Y-72180884D01*
X197976777Y-74647551D02*
X197976777Y-75114218D01*
X198710110Y-75314218D02*
X198710110Y-74647551D01*
X198710110Y-74647551D02*
X197310110Y-74647551D01*
X197310110Y-74647551D02*
X197310110Y-75314218D01*
X198710110Y-75914218D02*
X197310110Y-75914218D01*
X197310110Y-75914218D02*
X197310110Y-76447551D01*
X197310110Y-76447551D02*
X197376777Y-76580885D01*
X197376777Y-76580885D02*
X197443444Y-76647551D01*
X197443444Y-76647551D02*
X197576777Y-76714218D01*
X197576777Y-76714218D02*
X197776777Y-76714218D01*
X197776777Y-76714218D02*
X197910110Y-76647551D01*
X197910110Y-76647551D02*
X197976777Y-76580885D01*
X197976777Y-76580885D02*
X198043444Y-76447551D01*
X198043444Y-76447551D02*
X198043444Y-75914218D01*
X198710110Y-78114218D02*
X198043444Y-77647551D01*
X198710110Y-77314218D02*
X197310110Y-77314218D01*
X197310110Y-77314218D02*
X197310110Y-77847551D01*
X197310110Y-77847551D02*
X197376777Y-77980885D01*
X197376777Y-77980885D02*
X197443444Y-78047551D01*
X197443444Y-78047551D02*
X197576777Y-78114218D01*
X197576777Y-78114218D02*
X197776777Y-78114218D01*
X197776777Y-78114218D02*
X197910110Y-78047551D01*
X197910110Y-78047551D02*
X197976777Y-77980885D01*
X197976777Y-77980885D02*
X198043444Y-77847551D01*
X198043444Y-77847551D02*
X198043444Y-77314218D01*
X197310110Y-78980885D02*
X197310110Y-79247551D01*
X197310110Y-79247551D02*
X197376777Y-79380885D01*
X197376777Y-79380885D02*
X197510110Y-79514218D01*
X197510110Y-79514218D02*
X197776777Y-79580885D01*
X197776777Y-79580885D02*
X198243444Y-79580885D01*
X198243444Y-79580885D02*
X198510110Y-79514218D01*
X198510110Y-79514218D02*
X198643444Y-79380885D01*
X198643444Y-79380885D02*
X198710110Y-79247551D01*
X198710110Y-79247551D02*
X198710110Y-78980885D01*
X198710110Y-78980885D02*
X198643444Y-78847551D01*
X198643444Y-78847551D02*
X198510110Y-78714218D01*
X198510110Y-78714218D02*
X198243444Y-78647551D01*
X198243444Y-78647551D02*
X197776777Y-78647551D01*
X197776777Y-78647551D02*
X197510110Y-78714218D01*
X197510110Y-78714218D02*
X197376777Y-78847551D01*
X197376777Y-78847551D02*
X197310110Y-78980885D01*
X198710110Y-80180885D02*
X197310110Y-80180885D01*
X197310110Y-80180885D02*
X198310110Y-80647552D01*
X198310110Y-80647552D02*
X197310110Y-81114218D01*
X197310110Y-81114218D02*
X198710110Y-81114218D01*
X198576777Y-83647552D02*
X198643444Y-83580885D01*
X198643444Y-83580885D02*
X198710110Y-83380885D01*
X198710110Y-83380885D02*
X198710110Y-83247552D01*
X198710110Y-83247552D02*
X198643444Y-83047552D01*
X198643444Y-83047552D02*
X198510110Y-82914219D01*
X198510110Y-82914219D02*
X198376777Y-82847552D01*
X198376777Y-82847552D02*
X198110110Y-82780885D01*
X198110110Y-82780885D02*
X197910110Y-82780885D01*
X197910110Y-82780885D02*
X197643444Y-82847552D01*
X197643444Y-82847552D02*
X197510110Y-82914219D01*
X197510110Y-82914219D02*
X197376777Y-83047552D01*
X197376777Y-83047552D02*
X197310110Y-83247552D01*
X197310110Y-83247552D02*
X197310110Y-83380885D01*
X197310110Y-83380885D02*
X197376777Y-83580885D01*
X197376777Y-83580885D02*
X197443444Y-83647552D01*
X198310110Y-84180885D02*
X198310110Y-84847552D01*
X198710110Y-84047552D02*
X197310110Y-84514219D01*
X197310110Y-84514219D02*
X198710110Y-84980885D01*
X198710110Y-86247552D02*
X198043444Y-85780885D01*
X198710110Y-85447552D02*
X197310110Y-85447552D01*
X197310110Y-85447552D02*
X197310110Y-85980885D01*
X197310110Y-85980885D02*
X197376777Y-86114219D01*
X197376777Y-86114219D02*
X197443444Y-86180885D01*
X197443444Y-86180885D02*
X197576777Y-86247552D01*
X197576777Y-86247552D02*
X197776777Y-86247552D01*
X197776777Y-86247552D02*
X197910110Y-86180885D01*
X197910110Y-86180885D02*
X197976777Y-86114219D01*
X197976777Y-86114219D02*
X198043444Y-85980885D01*
X198043444Y-85980885D02*
X198043444Y-85447552D01*
X197310110Y-86647552D02*
X197310110Y-87447552D01*
X198710110Y-87047552D02*
X197310110Y-87047552D01*
X198710110Y-88714219D02*
X198043444Y-88247552D01*
X198710110Y-87914219D02*
X197310110Y-87914219D01*
X197310110Y-87914219D02*
X197310110Y-88447552D01*
X197310110Y-88447552D02*
X197376777Y-88580886D01*
X197376777Y-88580886D02*
X197443444Y-88647552D01*
X197443444Y-88647552D02*
X197576777Y-88714219D01*
X197576777Y-88714219D02*
X197776777Y-88714219D01*
X197776777Y-88714219D02*
X197910110Y-88647552D01*
X197910110Y-88647552D02*
X197976777Y-88580886D01*
X197976777Y-88580886D02*
X198043444Y-88447552D01*
X198043444Y-88447552D02*
X198043444Y-87914219D01*
X198710110Y-89314219D02*
X197310110Y-89314219D01*
X198710110Y-89980886D02*
X197310110Y-89980886D01*
X197310110Y-89980886D02*
X197310110Y-90314219D01*
X197310110Y-90314219D02*
X197376777Y-90514219D01*
X197376777Y-90514219D02*
X197510110Y-90647553D01*
X197510110Y-90647553D02*
X197643444Y-90714219D01*
X197643444Y-90714219D02*
X197910110Y-90780886D01*
X197910110Y-90780886D02*
X198110110Y-90780886D01*
X198110110Y-90780886D02*
X198376777Y-90714219D01*
X198376777Y-90714219D02*
X198510110Y-90647553D01*
X198510110Y-90647553D02*
X198643444Y-90514219D01*
X198643444Y-90514219D02*
X198710110Y-90314219D01*
X198710110Y-90314219D02*
X198710110Y-89980886D01*
X197376777Y-92114219D02*
X197310110Y-91980886D01*
X197310110Y-91980886D02*
X197310110Y-91780886D01*
X197310110Y-91780886D02*
X197376777Y-91580886D01*
X197376777Y-91580886D02*
X197510110Y-91447553D01*
X197510110Y-91447553D02*
X197643444Y-91380886D01*
X197643444Y-91380886D02*
X197910110Y-91314219D01*
X197910110Y-91314219D02*
X198110110Y-91314219D01*
X198110110Y-91314219D02*
X198376777Y-91380886D01*
X198376777Y-91380886D02*
X198510110Y-91447553D01*
X198510110Y-91447553D02*
X198643444Y-91580886D01*
X198643444Y-91580886D02*
X198710110Y-91780886D01*
X198710110Y-91780886D02*
X198710110Y-91914219D01*
X198710110Y-91914219D02*
X198643444Y-92114219D01*
X198643444Y-92114219D02*
X198576777Y-92180886D01*
X198576777Y-92180886D02*
X198110110Y-92180886D01*
X198110110Y-92180886D02*
X198110110Y-91914219D01*
X197976777Y-92780886D02*
X197976777Y-93247553D01*
X198710110Y-93447553D02*
X198710110Y-92780886D01*
X198710110Y-92780886D02*
X197310110Y-92780886D01*
X197310110Y-92780886D02*
X197310110Y-93447553D01*
M02*
