%TF.GenerationSoftware,KiCad,Pcbnew,8.0.2-1.fc38*%
%TF.CreationDate,2024-06-21T20:30:13+02:00*%
%TF.ProjectId,msx_eprom_cartridge_3.1,6d73785f-6570-4726-9f6d-5f6361727472,rev?*%
%TF.SameCoordinates,Original*%
%TF.FileFunction,Drillmap*%
%TF.FilePolarity,Positive*%
%FSLAX45Y45*%
G04 Gerber Fmt 4.5, Leading zero omitted, Abs format (unit mm)*
G04 Created by KiCad (PCBNEW 8.0.2-1.fc38) date 2024-06-21 20:30:13*
%MOMM*%
%LPD*%
G01*
G04 APERTURE LIST*
%ADD10C,0.254000*%
%ADD11C,0.200000*%
%ADD12C,0.100000*%
%ADD13C,0.150000*%
G04 APERTURE END LIST*
D10*
X10160000Y-10414000D02*
X10160000Y-6165500D01*
X10160500Y-6165500D02*
X20319500Y-6165500D01*
X11176000Y-10414000D02*
X10160000Y-10414000D01*
X11176000Y-11684000D02*
X11176000Y-10414000D01*
X12446000Y-11684000D02*
X11176000Y-11684000D01*
X12446000Y-12700000D02*
X12446000Y-11684000D01*
X18923000Y-11684000D02*
X18923000Y-12700000D01*
X18923000Y-12700000D02*
X12446000Y-12700000D01*
X20320000Y-6165500D02*
X20320000Y-11684000D01*
X20320000Y-11684000D02*
X18923000Y-11684000D01*
D11*
D12*
X11835000Y-8170500D02*
X11875000Y-8210500D01*
X11875000Y-8170500D02*
X11835000Y-8210500D01*
X12244000Y-11275000D02*
X12284000Y-11315000D01*
X12284000Y-11275000D02*
X12244000Y-11315000D01*
X12349000Y-9489000D02*
X12389000Y-9529000D01*
X12389000Y-9489000D02*
X12349000Y-9529000D01*
X12471000Y-9179000D02*
X12511000Y-9219000D01*
X12511000Y-9179000D02*
X12471000Y-9219000D01*
X12502200Y-11283000D02*
X12542200Y-11323000D01*
X12542200Y-11283000D02*
X12502200Y-11323000D01*
X12955000Y-7548000D02*
X12995000Y-7588000D01*
X12995000Y-7548000D02*
X12955000Y-7588000D01*
X12956860Y-7206300D02*
X12996860Y-7246300D01*
X12996860Y-7206300D02*
X12956860Y-7246300D01*
X13111800Y-9682800D02*
X13151800Y-9722800D01*
X13151800Y-9682800D02*
X13111800Y-9722800D01*
X13201000Y-10506000D02*
X13241000Y-10546000D01*
X13241000Y-10506000D02*
X13201000Y-10546000D01*
X13337000Y-6971000D02*
X13377000Y-7011000D01*
X13377000Y-6971000D02*
X13337000Y-7011000D01*
X13848400Y-8260400D02*
X13888400Y-8300400D01*
X13888400Y-8260400D02*
X13848400Y-8300400D01*
X13848400Y-8946200D02*
X13888400Y-8986200D01*
X13888400Y-8946200D02*
X13848400Y-8986200D01*
X13886500Y-11003600D02*
X13926500Y-11043600D01*
X13926500Y-11003600D02*
X13886500Y-11043600D01*
X13988100Y-10655620D02*
X14028100Y-10695620D01*
X14028100Y-10655620D02*
X13988100Y-10695620D01*
X14077000Y-9581200D02*
X14117000Y-9621200D01*
X14117000Y-9581200D02*
X14077000Y-9621200D01*
X14153200Y-7587300D02*
X14193200Y-7627300D01*
X14193200Y-7587300D02*
X14153200Y-7627300D01*
X14204000Y-9098600D02*
X14244000Y-9138600D01*
X14244000Y-9098600D02*
X14204000Y-9138600D01*
X14254800Y-11841800D02*
X14294800Y-11881800D01*
X14294800Y-11841800D02*
X14254800Y-11881800D01*
X14381800Y-9581200D02*
X14421800Y-9621200D01*
X14421800Y-9581200D02*
X14381800Y-9621200D01*
X14483400Y-11841800D02*
X14523400Y-11881800D01*
X14523400Y-11841800D02*
X14483400Y-11881800D01*
X14584300Y-9098600D02*
X14624300Y-9138600D01*
X14624300Y-9098600D02*
X14584300Y-9138600D01*
X14737400Y-11816400D02*
X14777400Y-11856400D01*
X14777400Y-11816400D02*
X14737400Y-11856400D01*
X14762370Y-11688970D02*
X14802370Y-11728970D01*
X14802370Y-11688970D02*
X14762370Y-11728970D01*
X14991400Y-10343200D02*
X15031400Y-10383200D01*
X15031400Y-10343200D02*
X14991400Y-10383200D01*
X15016800Y-7574600D02*
X15056800Y-7614600D01*
X15056800Y-7574600D02*
X15016800Y-7614600D01*
X15067600Y-11816400D02*
X15107600Y-11856400D01*
X15107600Y-11816400D02*
X15067600Y-11856400D01*
X15093000Y-10775000D02*
X15133000Y-10815000D01*
X15133000Y-10775000D02*
X15093000Y-10815000D01*
X15169200Y-11029000D02*
X15209200Y-11069000D01*
X15209200Y-11029000D02*
X15169200Y-11069000D01*
X15245400Y-7498400D02*
X15285400Y-7538400D01*
X15285400Y-7498400D02*
X15245400Y-7538400D01*
X15347000Y-11156000D02*
X15387000Y-11196000D01*
X15387000Y-11156000D02*
X15347000Y-11196000D01*
X15499400Y-11791000D02*
X15539400Y-11831000D01*
X15539400Y-11791000D02*
X15499400Y-11831000D01*
X15550200Y-9708200D02*
X15590200Y-9748200D01*
X15590200Y-9708200D02*
X15550200Y-9748200D01*
X15552740Y-10660700D02*
X15592740Y-10700700D01*
X15592740Y-10660700D02*
X15552740Y-10700700D01*
X15651800Y-11283000D02*
X15691800Y-11323000D01*
X15691800Y-11283000D02*
X15651800Y-11323000D01*
X15728000Y-10747060D02*
X15768000Y-10787060D01*
X15768000Y-10747060D02*
X15728000Y-10787060D01*
X15778800Y-11689400D02*
X15818800Y-11729400D01*
X15818800Y-11689400D02*
X15778800Y-11729400D01*
X15931200Y-11537000D02*
X15971200Y-11577000D01*
X15971200Y-11537000D02*
X15931200Y-11577000D01*
X15969300Y-7955600D02*
X16009300Y-7995600D01*
X16009300Y-7955600D02*
X15969300Y-7995600D01*
X15977000Y-7503000D02*
X16017000Y-7543000D01*
X16017000Y-7503000D02*
X15977000Y-7543000D01*
X16007400Y-9428800D02*
X16047400Y-9468800D01*
X16047400Y-9428800D02*
X16007400Y-9468800D01*
X16007400Y-11791000D02*
X16047400Y-11831000D01*
X16047400Y-11791000D02*
X16007400Y-11831000D01*
X16083600Y-11003600D02*
X16123600Y-11043600D01*
X16123600Y-11003600D02*
X16083600Y-11043600D01*
X16159800Y-10317800D02*
X16199800Y-10357800D01*
X16199800Y-10317800D02*
X16159800Y-10357800D01*
X16253367Y-11761850D02*
X16293367Y-11801850D01*
X16293367Y-11761850D02*
X16253367Y-11801850D01*
X16363000Y-9098600D02*
X16403000Y-9138600D01*
X16403000Y-9098600D02*
X16363000Y-9138600D01*
X16388400Y-9276400D02*
X16428400Y-9316400D01*
X16428400Y-9276400D02*
X16388400Y-9316400D01*
X16412301Y-11003696D02*
X16452301Y-11043696D01*
X16452301Y-11003696D02*
X16412301Y-11043696D01*
X16515400Y-11791000D02*
X16555400Y-11831000D01*
X16555400Y-11791000D02*
X16515400Y-11831000D01*
X16566200Y-9886000D02*
X16606200Y-9926000D01*
X16606200Y-9886000D02*
X16566200Y-9926000D01*
X16617000Y-9428800D02*
X16657000Y-9468800D01*
X16657000Y-9428800D02*
X16617000Y-9468800D01*
X16693200Y-9098600D02*
X16733200Y-9138600D01*
X16733200Y-9098600D02*
X16693200Y-9138600D01*
X16820200Y-11689400D02*
X16860200Y-11729400D01*
X16860200Y-11689400D02*
X16820200Y-11729400D01*
X16820200Y-11816400D02*
X16860200Y-11856400D01*
X16860200Y-11816400D02*
X16820200Y-11856400D01*
X16998000Y-9276400D02*
X17038000Y-9316400D01*
X17038000Y-9276400D02*
X16998000Y-9316400D01*
X17023400Y-10013000D02*
X17063400Y-10053000D01*
X17063400Y-10013000D02*
X17023400Y-10053000D01*
X17125000Y-11486200D02*
X17165000Y-11526200D01*
X17165000Y-11486200D02*
X17125000Y-11526200D01*
X17277400Y-11714800D02*
X17317400Y-11754800D01*
X17317400Y-11714800D02*
X17277400Y-11754800D01*
X17380000Y-10510000D02*
X17420000Y-10550000D01*
X17420000Y-10510000D02*
X17380000Y-10550000D01*
X17556800Y-8412800D02*
X17596800Y-8452800D01*
X17596800Y-8412800D02*
X17556800Y-8452800D01*
X18268000Y-7828600D02*
X18308000Y-7868600D01*
X18308000Y-7828600D02*
X18268000Y-7868600D01*
X18344200Y-11613200D02*
X18384200Y-11653200D01*
X18384200Y-11613200D02*
X18344200Y-11653200D01*
X18725200Y-8158800D02*
X18765200Y-8198800D01*
X18765200Y-8158800D02*
X18725200Y-8198800D01*
X18852200Y-11511600D02*
X18892200Y-11551600D01*
X18892200Y-11511600D02*
X18852200Y-11551600D01*
X17858100Y-8272000D02*
G75*
G02*
X17778100Y-8272000I-40000J0D01*
G01*
X17778100Y-8272000D02*
G75*
G02*
X17858100Y-8272000I40000J0D01*
G01*
X17858100Y-8772000D02*
G75*
G02*
X17778100Y-8772000I-40000J0D01*
G01*
X17778100Y-8772000D02*
G75*
G02*
X17858100Y-8772000I40000J0D01*
G01*
X19090000Y-6733000D02*
G75*
G02*
X19010000Y-6733000I-40000J0D01*
G01*
X19010000Y-6733000D02*
G75*
G02*
X19090000Y-6733000I40000J0D01*
G01*
X19090000Y-7749000D02*
G75*
G02*
X19010000Y-7749000I-40000J0D01*
G01*
X19010000Y-7749000D02*
G75*
G02*
X19090000Y-7749000I40000J0D01*
G01*
X13373000Y-11020360D02*
X13373000Y-11101640D01*
X13332360Y-11061000D02*
X13413640Y-11061000D01*
X13373000Y-11274360D02*
X13373000Y-11355640D01*
X13332360Y-11315000D02*
X13413640Y-11315000D01*
X19081820Y-6381820D02*
X19081820Y-6318180D01*
X19018180Y-6318180D01*
X19018180Y-6381820D01*
X19081820Y-6381820D01*
X19335820Y-6381820D02*
X19335820Y-6318180D01*
X19272180Y-6318180D01*
X19272180Y-6381820D01*
X19335820Y-6381820D01*
X11042500Y-6716500D02*
X11092500Y-6666500D01*
X11042500Y-6616500D01*
X10992500Y-6666500D01*
X11042500Y-6716500D01*
X11042500Y-6970500D02*
X11092500Y-6920500D01*
X11042500Y-6870500D01*
X10992500Y-6920500D01*
X11042500Y-6970500D01*
X11042500Y-7224500D02*
X11092500Y-7174500D01*
X11042500Y-7124500D01*
X10992500Y-7174500D01*
X11042500Y-7224500D01*
X11042500Y-7732500D02*
X11092500Y-7682500D01*
X11042500Y-7632500D01*
X10992500Y-7682500D01*
X11042500Y-7732500D01*
X11042500Y-7986500D02*
X11092500Y-7936500D01*
X11042500Y-7886500D01*
X10992500Y-7936500D01*
X11042500Y-7986500D01*
X11042500Y-8240500D02*
X11092500Y-8190500D01*
X11042500Y-8140500D01*
X10992500Y-8190500D01*
X11042500Y-8240500D01*
X11042500Y-8494500D02*
X11092500Y-8444500D01*
X11042500Y-8394500D01*
X10992500Y-8444500D01*
X11042500Y-8494500D01*
X11042500Y-9002500D02*
X11092500Y-8952500D01*
X11042500Y-8902500D01*
X10992500Y-8952500D01*
X11042500Y-9002500D01*
X11042500Y-9256500D02*
X11092500Y-9206500D01*
X11042500Y-9156500D01*
X10992500Y-9206500D01*
X11042500Y-9256500D01*
X11042500Y-9510500D02*
X11092500Y-9460500D01*
X11042500Y-9410500D01*
X10992500Y-9460500D01*
X11042500Y-9510500D01*
X11042500Y-9764500D02*
X11092500Y-9714500D01*
X11042500Y-9664500D01*
X10992500Y-9714500D01*
X11042500Y-9764500D01*
X11296500Y-6716500D02*
X11346500Y-6666500D01*
X11296500Y-6616500D01*
X11246500Y-6666500D01*
X11296500Y-6716500D01*
X11296500Y-6970500D02*
X11346500Y-6920500D01*
X11296500Y-6870500D01*
X11246500Y-6920500D01*
X11296500Y-6970500D01*
X11296500Y-7224500D02*
X11346500Y-7174500D01*
X11296500Y-7124500D01*
X11246500Y-7174500D01*
X11296500Y-7224500D01*
X11296500Y-7732500D02*
X11346500Y-7682500D01*
X11296500Y-7632500D01*
X11246500Y-7682500D01*
X11296500Y-7732500D01*
X11296500Y-7986500D02*
X11346500Y-7936500D01*
X11296500Y-7886500D01*
X11246500Y-7936500D01*
X11296500Y-7986500D01*
X11296500Y-8240500D02*
X11346500Y-8190500D01*
X11296500Y-8140500D01*
X11246500Y-8190500D01*
X11296500Y-8240500D01*
X11296500Y-8494500D02*
X11346500Y-8444500D01*
X11296500Y-8394500D01*
X11246500Y-8444500D01*
X11296500Y-8494500D01*
X11296500Y-9002500D02*
X11346500Y-8952500D01*
X11296500Y-8902500D01*
X11246500Y-8952500D01*
X11296500Y-9002500D01*
X11296500Y-9256500D02*
X11346500Y-9206500D01*
X11296500Y-9156500D01*
X11246500Y-9206500D01*
X11296500Y-9256500D01*
X11296500Y-9510500D02*
X11346500Y-9460500D01*
X11296500Y-9410500D01*
X11246500Y-9460500D01*
X11296500Y-9510500D01*
X11296500Y-9764500D02*
X11346500Y-9714500D01*
X11296500Y-9664500D01*
X11246500Y-9714500D01*
X11296500Y-9764500D01*
D13*
X14021000Y-7160000D02*
X14171000Y-7310000D01*
X14171000Y-7160000D02*
X14021000Y-7310000D01*
X14171000Y-7235000D02*
G75*
G02*
X14021000Y-7235000I-75000J0D01*
G01*
X14021000Y-7235000D02*
G75*
G02*
X14171000Y-7235000I75000J0D01*
G01*
X14021000Y-8684000D02*
X14171000Y-8834000D01*
X14171000Y-8684000D02*
X14021000Y-8834000D01*
X14171000Y-8759000D02*
G75*
G02*
X14021000Y-8759000I-75000J0D01*
G01*
X14021000Y-8759000D02*
G75*
G02*
X14171000Y-8759000I75000J0D01*
G01*
X14275000Y-7160000D02*
X14425000Y-7310000D01*
X14425000Y-7160000D02*
X14275000Y-7310000D01*
X14425000Y-7235000D02*
G75*
G02*
X14275000Y-7235000I-75000J0D01*
G01*
X14275000Y-7235000D02*
G75*
G02*
X14425000Y-7235000I75000J0D01*
G01*
X14275000Y-8684000D02*
X14425000Y-8834000D01*
X14425000Y-8684000D02*
X14275000Y-8834000D01*
X14425000Y-8759000D02*
G75*
G02*
X14275000Y-8759000I-75000J0D01*
G01*
X14275000Y-8759000D02*
G75*
G02*
X14425000Y-8759000I75000J0D01*
G01*
X14529000Y-7160000D02*
X14679000Y-7310000D01*
X14679000Y-7160000D02*
X14529000Y-7310000D01*
X14679000Y-7235000D02*
G75*
G02*
X14529000Y-7235000I-75000J0D01*
G01*
X14529000Y-7235000D02*
G75*
G02*
X14679000Y-7235000I75000J0D01*
G01*
X14529000Y-8684000D02*
X14679000Y-8834000D01*
X14679000Y-8684000D02*
X14529000Y-8834000D01*
X14679000Y-8759000D02*
G75*
G02*
X14529000Y-8759000I-75000J0D01*
G01*
X14529000Y-8759000D02*
G75*
G02*
X14679000Y-8759000I75000J0D01*
G01*
X14783000Y-7160000D02*
X14933000Y-7310000D01*
X14933000Y-7160000D02*
X14783000Y-7310000D01*
X14933000Y-7235000D02*
G75*
G02*
X14783000Y-7235000I-75000J0D01*
G01*
X14783000Y-7235000D02*
G75*
G02*
X14933000Y-7235000I75000J0D01*
G01*
X14783000Y-8684000D02*
X14933000Y-8834000D01*
X14933000Y-8684000D02*
X14783000Y-8834000D01*
X14933000Y-8759000D02*
G75*
G02*
X14783000Y-8759000I-75000J0D01*
G01*
X14783000Y-8759000D02*
G75*
G02*
X14933000Y-8759000I75000J0D01*
G01*
X15037000Y-7160000D02*
X15187000Y-7310000D01*
X15187000Y-7160000D02*
X15037000Y-7310000D01*
X15187000Y-7235000D02*
G75*
G02*
X15037000Y-7235000I-75000J0D01*
G01*
X15037000Y-7235000D02*
G75*
G02*
X15187000Y-7235000I75000J0D01*
G01*
X15037000Y-8684000D02*
X15187000Y-8834000D01*
X15187000Y-8684000D02*
X15037000Y-8834000D01*
X15187000Y-8759000D02*
G75*
G02*
X15037000Y-8759000I-75000J0D01*
G01*
X15037000Y-8759000D02*
G75*
G02*
X15187000Y-8759000I75000J0D01*
G01*
X15291000Y-7160000D02*
X15441000Y-7310000D01*
X15441000Y-7160000D02*
X15291000Y-7310000D01*
X15441000Y-7235000D02*
G75*
G02*
X15291000Y-7235000I-75000J0D01*
G01*
X15291000Y-7235000D02*
G75*
G02*
X15441000Y-7235000I75000J0D01*
G01*
X15291000Y-8684000D02*
X15441000Y-8834000D01*
X15441000Y-8684000D02*
X15291000Y-8834000D01*
X15441000Y-8759000D02*
G75*
G02*
X15291000Y-8759000I-75000J0D01*
G01*
X15291000Y-8759000D02*
G75*
G02*
X15441000Y-8759000I75000J0D01*
G01*
X15545000Y-7160000D02*
X15695000Y-7310000D01*
X15695000Y-7160000D02*
X15545000Y-7310000D01*
X15695000Y-7235000D02*
G75*
G02*
X15545000Y-7235000I-75000J0D01*
G01*
X15545000Y-7235000D02*
G75*
G02*
X15695000Y-7235000I75000J0D01*
G01*
X15545000Y-8684000D02*
X15695000Y-8834000D01*
X15695000Y-8684000D02*
X15545000Y-8834000D01*
X15695000Y-8759000D02*
G75*
G02*
X15545000Y-8759000I-75000J0D01*
G01*
X15545000Y-8759000D02*
G75*
G02*
X15695000Y-8759000I75000J0D01*
G01*
X15799000Y-7160000D02*
X15949000Y-7310000D01*
X15949000Y-7160000D02*
X15799000Y-7310000D01*
X15949000Y-7235000D02*
G75*
G02*
X15799000Y-7235000I-75000J0D01*
G01*
X15799000Y-7235000D02*
G75*
G02*
X15949000Y-7235000I75000J0D01*
G01*
X15799000Y-8684000D02*
X15949000Y-8834000D01*
X15949000Y-8684000D02*
X15799000Y-8834000D01*
X15949000Y-8759000D02*
G75*
G02*
X15799000Y-8759000I-75000J0D01*
G01*
X15799000Y-8759000D02*
G75*
G02*
X15949000Y-8759000I75000J0D01*
G01*
X16053000Y-7160000D02*
X16203000Y-7310000D01*
X16203000Y-7160000D02*
X16053000Y-7310000D01*
X16203000Y-7235000D02*
G75*
G02*
X16053000Y-7235000I-75000J0D01*
G01*
X16053000Y-7235000D02*
G75*
G02*
X16203000Y-7235000I75000J0D01*
G01*
X16053000Y-8684000D02*
X16203000Y-8834000D01*
X16203000Y-8684000D02*
X16053000Y-8834000D01*
X16203000Y-8759000D02*
G75*
G02*
X16053000Y-8759000I-75000J0D01*
G01*
X16053000Y-8759000D02*
G75*
G02*
X16203000Y-8759000I75000J0D01*
G01*
X16307000Y-7160000D02*
X16457000Y-7310000D01*
X16457000Y-7160000D02*
X16307000Y-7310000D01*
X16457000Y-7235000D02*
G75*
G02*
X16307000Y-7235000I-75000J0D01*
G01*
X16307000Y-7235000D02*
G75*
G02*
X16457000Y-7235000I75000J0D01*
G01*
X16307000Y-8684000D02*
X16457000Y-8834000D01*
X16457000Y-8684000D02*
X16307000Y-8834000D01*
X16457000Y-8759000D02*
G75*
G02*
X16307000Y-8759000I-75000J0D01*
G01*
X16307000Y-8759000D02*
G75*
G02*
X16457000Y-8759000I75000J0D01*
G01*
X16561000Y-7160000D02*
X16711000Y-7310000D01*
X16711000Y-7160000D02*
X16561000Y-7310000D01*
X16711000Y-7235000D02*
G75*
G02*
X16561000Y-7235000I-75000J0D01*
G01*
X16561000Y-7235000D02*
G75*
G02*
X16711000Y-7235000I75000J0D01*
G01*
X16561000Y-8684000D02*
X16711000Y-8834000D01*
X16711000Y-8684000D02*
X16561000Y-8834000D01*
X16711000Y-8759000D02*
G75*
G02*
X16561000Y-8759000I-75000J0D01*
G01*
X16561000Y-8759000D02*
G75*
G02*
X16711000Y-8759000I75000J0D01*
G01*
X16815000Y-7160000D02*
X16965000Y-7310000D01*
X16965000Y-7160000D02*
X16815000Y-7310000D01*
X16965000Y-7235000D02*
G75*
G02*
X16815000Y-7235000I-75000J0D01*
G01*
X16815000Y-7235000D02*
G75*
G02*
X16965000Y-7235000I75000J0D01*
G01*
X16815000Y-8684000D02*
X16965000Y-8834000D01*
X16965000Y-8684000D02*
X16815000Y-8834000D01*
X16965000Y-8759000D02*
G75*
G02*
X16815000Y-8759000I-75000J0D01*
G01*
X16815000Y-8759000D02*
G75*
G02*
X16965000Y-8759000I75000J0D01*
G01*
X17069000Y-7160000D02*
X17219000Y-7310000D01*
X17219000Y-7160000D02*
X17069000Y-7310000D01*
X17219000Y-7235000D02*
G75*
G02*
X17069000Y-7235000I-75000J0D01*
G01*
X17069000Y-7235000D02*
G75*
G02*
X17219000Y-7235000I75000J0D01*
G01*
X17069000Y-8684000D02*
X17219000Y-8834000D01*
X17219000Y-8684000D02*
X17069000Y-8834000D01*
X17219000Y-8759000D02*
G75*
G02*
X17069000Y-8759000I-75000J0D01*
G01*
X17069000Y-8759000D02*
G75*
G02*
X17219000Y-8759000I75000J0D01*
G01*
X17323000Y-7160000D02*
X17473000Y-7310000D01*
X17473000Y-7160000D02*
X17323000Y-7310000D01*
X17473000Y-7235000D02*
G75*
G02*
X17323000Y-7235000I-75000J0D01*
G01*
X17323000Y-7235000D02*
G75*
G02*
X17473000Y-7235000I75000J0D01*
G01*
X17323000Y-8684000D02*
X17473000Y-8834000D01*
X17473000Y-8684000D02*
X17323000Y-8834000D01*
X17473000Y-8759000D02*
G75*
G02*
X17323000Y-8759000I-75000J0D01*
G01*
X17323000Y-8759000D02*
G75*
G02*
X17473000Y-8759000I75000J0D01*
G01*
D11*
X10408077Y-13024184D02*
X10408077Y-12824184D01*
X10408077Y-12824184D02*
X10455696Y-12824184D01*
X10455696Y-12824184D02*
X10484267Y-12833708D01*
X10484267Y-12833708D02*
X10503315Y-12852755D01*
X10503315Y-12852755D02*
X10512839Y-12871803D01*
X10512839Y-12871803D02*
X10522363Y-12909898D01*
X10522363Y-12909898D02*
X10522363Y-12938469D01*
X10522363Y-12938469D02*
X10512839Y-12976565D01*
X10512839Y-12976565D02*
X10503315Y-12995612D01*
X10503315Y-12995612D02*
X10484267Y-13014660D01*
X10484267Y-13014660D02*
X10455696Y-13024184D01*
X10455696Y-13024184D02*
X10408077Y-13024184D01*
X10608077Y-13024184D02*
X10608077Y-12890850D01*
X10608077Y-12928946D02*
X10617601Y-12909898D01*
X10617601Y-12909898D02*
X10627124Y-12900374D01*
X10627124Y-12900374D02*
X10646172Y-12890850D01*
X10646172Y-12890850D02*
X10665220Y-12890850D01*
X10731886Y-13024184D02*
X10731886Y-12890850D01*
X10731886Y-12824184D02*
X10722363Y-12833708D01*
X10722363Y-12833708D02*
X10731886Y-12843231D01*
X10731886Y-12843231D02*
X10741410Y-12833708D01*
X10741410Y-12833708D02*
X10731886Y-12824184D01*
X10731886Y-12824184D02*
X10731886Y-12843231D01*
X10855696Y-13024184D02*
X10836648Y-13014660D01*
X10836648Y-13014660D02*
X10827124Y-12995612D01*
X10827124Y-12995612D02*
X10827124Y-12824184D01*
X10960458Y-13024184D02*
X10941410Y-13014660D01*
X10941410Y-13014660D02*
X10931886Y-12995612D01*
X10931886Y-12995612D02*
X10931886Y-12824184D01*
X11189029Y-13024184D02*
X11189029Y-12824184D01*
X11189029Y-12824184D02*
X11255696Y-12967041D01*
X11255696Y-12967041D02*
X11322362Y-12824184D01*
X11322362Y-12824184D02*
X11322362Y-13024184D01*
X11503315Y-13024184D02*
X11503315Y-12919422D01*
X11503315Y-12919422D02*
X11493791Y-12900374D01*
X11493791Y-12900374D02*
X11474743Y-12890850D01*
X11474743Y-12890850D02*
X11436648Y-12890850D01*
X11436648Y-12890850D02*
X11417601Y-12900374D01*
X11503315Y-13014660D02*
X11484267Y-13024184D01*
X11484267Y-13024184D02*
X11436648Y-13024184D01*
X11436648Y-13024184D02*
X11417601Y-13014660D01*
X11417601Y-13014660D02*
X11408077Y-12995612D01*
X11408077Y-12995612D02*
X11408077Y-12976565D01*
X11408077Y-12976565D02*
X11417601Y-12957517D01*
X11417601Y-12957517D02*
X11436648Y-12947993D01*
X11436648Y-12947993D02*
X11484267Y-12947993D01*
X11484267Y-12947993D02*
X11503315Y-12938469D01*
X11598553Y-12890850D02*
X11598553Y-13090850D01*
X11598553Y-12900374D02*
X11617601Y-12890850D01*
X11617601Y-12890850D02*
X11655696Y-12890850D01*
X11655696Y-12890850D02*
X11674743Y-12900374D01*
X11674743Y-12900374D02*
X11684267Y-12909898D01*
X11684267Y-12909898D02*
X11693791Y-12928946D01*
X11693791Y-12928946D02*
X11693791Y-12986088D01*
X11693791Y-12986088D02*
X11684267Y-13005136D01*
X11684267Y-13005136D02*
X11674743Y-13014660D01*
X11674743Y-13014660D02*
X11655696Y-13024184D01*
X11655696Y-13024184D02*
X11617601Y-13024184D01*
X11617601Y-13024184D02*
X11598553Y-13014660D01*
X11779505Y-13005136D02*
X11789029Y-13014660D01*
X11789029Y-13014660D02*
X11779505Y-13024184D01*
X11779505Y-13024184D02*
X11769982Y-13014660D01*
X11769982Y-13014660D02*
X11779505Y-13005136D01*
X11779505Y-13005136D02*
X11779505Y-13024184D01*
X11779505Y-12900374D02*
X11789029Y-12909898D01*
X11789029Y-12909898D02*
X11779505Y-12919422D01*
X11779505Y-12919422D02*
X11769982Y-12909898D01*
X11769982Y-12909898D02*
X11779505Y-12900374D01*
X11779505Y-12900374D02*
X11779505Y-12919422D01*
D12*
X10107300Y-13332700D02*
X10147300Y-13372700D01*
X10147300Y-13332700D02*
X10107300Y-13372700D01*
D11*
X10446172Y-13244184D02*
X10465220Y-13244184D01*
X10465220Y-13244184D02*
X10484267Y-13253708D01*
X10484267Y-13253708D02*
X10493791Y-13263231D01*
X10493791Y-13263231D02*
X10503315Y-13282279D01*
X10503315Y-13282279D02*
X10512839Y-13320374D01*
X10512839Y-13320374D02*
X10512839Y-13367993D01*
X10512839Y-13367993D02*
X10503315Y-13406088D01*
X10503315Y-13406088D02*
X10493791Y-13425136D01*
X10493791Y-13425136D02*
X10484267Y-13434660D01*
X10484267Y-13434660D02*
X10465220Y-13444184D01*
X10465220Y-13444184D02*
X10446172Y-13444184D01*
X10446172Y-13444184D02*
X10427124Y-13434660D01*
X10427124Y-13434660D02*
X10417601Y-13425136D01*
X10417601Y-13425136D02*
X10408077Y-13406088D01*
X10408077Y-13406088D02*
X10398553Y-13367993D01*
X10398553Y-13367993D02*
X10398553Y-13320374D01*
X10398553Y-13320374D02*
X10408077Y-13282279D01*
X10408077Y-13282279D02*
X10417601Y-13263231D01*
X10417601Y-13263231D02*
X10427124Y-13253708D01*
X10427124Y-13253708D02*
X10446172Y-13244184D01*
X10598553Y-13425136D02*
X10608077Y-13434660D01*
X10608077Y-13434660D02*
X10598553Y-13444184D01*
X10598553Y-13444184D02*
X10589029Y-13434660D01*
X10589029Y-13434660D02*
X10598553Y-13425136D01*
X10598553Y-13425136D02*
X10598553Y-13444184D01*
X10779505Y-13310850D02*
X10779505Y-13444184D01*
X10731886Y-13234660D02*
X10684267Y-13377517D01*
X10684267Y-13377517D02*
X10808077Y-13377517D01*
X10922363Y-13244184D02*
X10941410Y-13244184D01*
X10941410Y-13244184D02*
X10960458Y-13253708D01*
X10960458Y-13253708D02*
X10969982Y-13263231D01*
X10969982Y-13263231D02*
X10979505Y-13282279D01*
X10979505Y-13282279D02*
X10989029Y-13320374D01*
X10989029Y-13320374D02*
X10989029Y-13367993D01*
X10989029Y-13367993D02*
X10979505Y-13406088D01*
X10979505Y-13406088D02*
X10969982Y-13425136D01*
X10969982Y-13425136D02*
X10960458Y-13434660D01*
X10960458Y-13434660D02*
X10941410Y-13444184D01*
X10941410Y-13444184D02*
X10922363Y-13444184D01*
X10922363Y-13444184D02*
X10903315Y-13434660D01*
X10903315Y-13434660D02*
X10893791Y-13425136D01*
X10893791Y-13425136D02*
X10884267Y-13406088D01*
X10884267Y-13406088D02*
X10874744Y-13367993D01*
X10874744Y-13367993D02*
X10874744Y-13320374D01*
X10874744Y-13320374D02*
X10884267Y-13282279D01*
X10884267Y-13282279D02*
X10893791Y-13263231D01*
X10893791Y-13263231D02*
X10903315Y-13253708D01*
X10903315Y-13253708D02*
X10922363Y-13244184D01*
X11112839Y-13244184D02*
X11131886Y-13244184D01*
X11131886Y-13244184D02*
X11150934Y-13253708D01*
X11150934Y-13253708D02*
X11160458Y-13263231D01*
X11160458Y-13263231D02*
X11169982Y-13282279D01*
X11169982Y-13282279D02*
X11179505Y-13320374D01*
X11179505Y-13320374D02*
X11179505Y-13367993D01*
X11179505Y-13367993D02*
X11169982Y-13406088D01*
X11169982Y-13406088D02*
X11160458Y-13425136D01*
X11160458Y-13425136D02*
X11150934Y-13434660D01*
X11150934Y-13434660D02*
X11131886Y-13444184D01*
X11131886Y-13444184D02*
X11112839Y-13444184D01*
X11112839Y-13444184D02*
X11093791Y-13434660D01*
X11093791Y-13434660D02*
X11084267Y-13425136D01*
X11084267Y-13425136D02*
X11074744Y-13406088D01*
X11074744Y-13406088D02*
X11065220Y-13367993D01*
X11065220Y-13367993D02*
X11065220Y-13320374D01*
X11065220Y-13320374D02*
X11074744Y-13282279D01*
X11074744Y-13282279D02*
X11084267Y-13263231D01*
X11084267Y-13263231D02*
X11093791Y-13253708D01*
X11093791Y-13253708D02*
X11112839Y-13244184D01*
X11265220Y-13444184D02*
X11265220Y-13310850D01*
X11265220Y-13329898D02*
X11274743Y-13320374D01*
X11274743Y-13320374D02*
X11293791Y-13310850D01*
X11293791Y-13310850D02*
X11322363Y-13310850D01*
X11322363Y-13310850D02*
X11341410Y-13320374D01*
X11341410Y-13320374D02*
X11350934Y-13339422D01*
X11350934Y-13339422D02*
X11350934Y-13444184D01*
X11350934Y-13339422D02*
X11360458Y-13320374D01*
X11360458Y-13320374D02*
X11379505Y-13310850D01*
X11379505Y-13310850D02*
X11408077Y-13310850D01*
X11408077Y-13310850D02*
X11427124Y-13320374D01*
X11427124Y-13320374D02*
X11436648Y-13339422D01*
X11436648Y-13339422D02*
X11436648Y-13444184D01*
X11531886Y-13444184D02*
X11531886Y-13310850D01*
X11531886Y-13329898D02*
X11541410Y-13320374D01*
X11541410Y-13320374D02*
X11560458Y-13310850D01*
X11560458Y-13310850D02*
X11589029Y-13310850D01*
X11589029Y-13310850D02*
X11608077Y-13320374D01*
X11608077Y-13320374D02*
X11617601Y-13339422D01*
X11617601Y-13339422D02*
X11617601Y-13444184D01*
X11617601Y-13339422D02*
X11627124Y-13320374D01*
X11627124Y-13320374D02*
X11646172Y-13310850D01*
X11646172Y-13310850D02*
X11674743Y-13310850D01*
X11674743Y-13310850D02*
X11693791Y-13320374D01*
X11693791Y-13320374D02*
X11703315Y-13339422D01*
X11703315Y-13339422D02*
X11703315Y-13444184D01*
X12093791Y-13234660D02*
X11922363Y-13491803D01*
X12350934Y-13244184D02*
X12369982Y-13244184D01*
X12369982Y-13244184D02*
X12389029Y-13253708D01*
X12389029Y-13253708D02*
X12398553Y-13263231D01*
X12398553Y-13263231D02*
X12408077Y-13282279D01*
X12408077Y-13282279D02*
X12417601Y-13320374D01*
X12417601Y-13320374D02*
X12417601Y-13367993D01*
X12417601Y-13367993D02*
X12408077Y-13406088D01*
X12408077Y-13406088D02*
X12398553Y-13425136D01*
X12398553Y-13425136D02*
X12389029Y-13434660D01*
X12389029Y-13434660D02*
X12369982Y-13444184D01*
X12369982Y-13444184D02*
X12350934Y-13444184D01*
X12350934Y-13444184D02*
X12331886Y-13434660D01*
X12331886Y-13434660D02*
X12322363Y-13425136D01*
X12322363Y-13425136D02*
X12312839Y-13406088D01*
X12312839Y-13406088D02*
X12303315Y-13367993D01*
X12303315Y-13367993D02*
X12303315Y-13320374D01*
X12303315Y-13320374D02*
X12312839Y-13282279D01*
X12312839Y-13282279D02*
X12322363Y-13263231D01*
X12322363Y-13263231D02*
X12331886Y-13253708D01*
X12331886Y-13253708D02*
X12350934Y-13244184D01*
X12503315Y-13425136D02*
X12512839Y-13434660D01*
X12512839Y-13434660D02*
X12503315Y-13444184D01*
X12503315Y-13444184D02*
X12493791Y-13434660D01*
X12493791Y-13434660D02*
X12503315Y-13425136D01*
X12503315Y-13425136D02*
X12503315Y-13444184D01*
X12636648Y-13244184D02*
X12655696Y-13244184D01*
X12655696Y-13244184D02*
X12674744Y-13253708D01*
X12674744Y-13253708D02*
X12684267Y-13263231D01*
X12684267Y-13263231D02*
X12693791Y-13282279D01*
X12693791Y-13282279D02*
X12703315Y-13320374D01*
X12703315Y-13320374D02*
X12703315Y-13367993D01*
X12703315Y-13367993D02*
X12693791Y-13406088D01*
X12693791Y-13406088D02*
X12684267Y-13425136D01*
X12684267Y-13425136D02*
X12674744Y-13434660D01*
X12674744Y-13434660D02*
X12655696Y-13444184D01*
X12655696Y-13444184D02*
X12636648Y-13444184D01*
X12636648Y-13444184D02*
X12617601Y-13434660D01*
X12617601Y-13434660D02*
X12608077Y-13425136D01*
X12608077Y-13425136D02*
X12598553Y-13406088D01*
X12598553Y-13406088D02*
X12589029Y-13367993D01*
X12589029Y-13367993D02*
X12589029Y-13320374D01*
X12589029Y-13320374D02*
X12598553Y-13282279D01*
X12598553Y-13282279D02*
X12608077Y-13263231D01*
X12608077Y-13263231D02*
X12617601Y-13253708D01*
X12617601Y-13253708D02*
X12636648Y-13244184D01*
X12893791Y-13444184D02*
X12779506Y-13444184D01*
X12836648Y-13444184D02*
X12836648Y-13244184D01*
X12836648Y-13244184D02*
X12817601Y-13272755D01*
X12817601Y-13272755D02*
X12798553Y-13291803D01*
X12798553Y-13291803D02*
X12779506Y-13301327D01*
X13074744Y-13244184D02*
X12979506Y-13244184D01*
X12979506Y-13244184D02*
X12969982Y-13339422D01*
X12969982Y-13339422D02*
X12979506Y-13329898D01*
X12979506Y-13329898D02*
X12998553Y-13320374D01*
X12998553Y-13320374D02*
X13046172Y-13320374D01*
X13046172Y-13320374D02*
X13065220Y-13329898D01*
X13065220Y-13329898D02*
X13074744Y-13339422D01*
X13074744Y-13339422D02*
X13084267Y-13358469D01*
X13084267Y-13358469D02*
X13084267Y-13406088D01*
X13084267Y-13406088D02*
X13074744Y-13425136D01*
X13074744Y-13425136D02*
X13065220Y-13434660D01*
X13065220Y-13434660D02*
X13046172Y-13444184D01*
X13046172Y-13444184D02*
X12998553Y-13444184D01*
X12998553Y-13444184D02*
X12979506Y-13434660D01*
X12979506Y-13434660D02*
X12969982Y-13425136D01*
X13150934Y-13244184D02*
X13284267Y-13244184D01*
X13284267Y-13244184D02*
X13198553Y-13444184D01*
X13350934Y-13244184D02*
X13350934Y-13282279D01*
X13427125Y-13244184D02*
X13427125Y-13282279D01*
X13722363Y-13520374D02*
X13712839Y-13510850D01*
X13712839Y-13510850D02*
X13693791Y-13482279D01*
X13693791Y-13482279D02*
X13684268Y-13463231D01*
X13684268Y-13463231D02*
X13674744Y-13434660D01*
X13674744Y-13434660D02*
X13665220Y-13387041D01*
X13665220Y-13387041D02*
X13665220Y-13348946D01*
X13665220Y-13348946D02*
X13674744Y-13301327D01*
X13674744Y-13301327D02*
X13684268Y-13272755D01*
X13684268Y-13272755D02*
X13693791Y-13253708D01*
X13693791Y-13253708D02*
X13712839Y-13225136D01*
X13712839Y-13225136D02*
X13722363Y-13215612D01*
X13884268Y-13244184D02*
X13846172Y-13244184D01*
X13846172Y-13244184D02*
X13827125Y-13253708D01*
X13827125Y-13253708D02*
X13817601Y-13263231D01*
X13817601Y-13263231D02*
X13798553Y-13291803D01*
X13798553Y-13291803D02*
X13789029Y-13329898D01*
X13789029Y-13329898D02*
X13789029Y-13406088D01*
X13789029Y-13406088D02*
X13798553Y-13425136D01*
X13798553Y-13425136D02*
X13808077Y-13434660D01*
X13808077Y-13434660D02*
X13827125Y-13444184D01*
X13827125Y-13444184D02*
X13865220Y-13444184D01*
X13865220Y-13444184D02*
X13884268Y-13434660D01*
X13884268Y-13434660D02*
X13893791Y-13425136D01*
X13893791Y-13425136D02*
X13903315Y-13406088D01*
X13903315Y-13406088D02*
X13903315Y-13358469D01*
X13903315Y-13358469D02*
X13893791Y-13339422D01*
X13893791Y-13339422D02*
X13884268Y-13329898D01*
X13884268Y-13329898D02*
X13865220Y-13320374D01*
X13865220Y-13320374D02*
X13827125Y-13320374D01*
X13827125Y-13320374D02*
X13808077Y-13329898D01*
X13808077Y-13329898D02*
X13798553Y-13339422D01*
X13798553Y-13339422D02*
X13789029Y-13358469D01*
X13969982Y-13244184D02*
X14093791Y-13244184D01*
X14093791Y-13244184D02*
X14027125Y-13320374D01*
X14027125Y-13320374D02*
X14055696Y-13320374D01*
X14055696Y-13320374D02*
X14074744Y-13329898D01*
X14074744Y-13329898D02*
X14084268Y-13339422D01*
X14084268Y-13339422D02*
X14093791Y-13358469D01*
X14093791Y-13358469D02*
X14093791Y-13406088D01*
X14093791Y-13406088D02*
X14084268Y-13425136D01*
X14084268Y-13425136D02*
X14074744Y-13434660D01*
X14074744Y-13434660D02*
X14055696Y-13444184D01*
X14055696Y-13444184D02*
X13998553Y-13444184D01*
X13998553Y-13444184D02*
X13979506Y-13434660D01*
X13979506Y-13434660D02*
X13969982Y-13425136D01*
X14331887Y-13444184D02*
X14331887Y-13244184D01*
X14417601Y-13444184D02*
X14417601Y-13339422D01*
X14417601Y-13339422D02*
X14408077Y-13320374D01*
X14408077Y-13320374D02*
X14389030Y-13310850D01*
X14389030Y-13310850D02*
X14360458Y-13310850D01*
X14360458Y-13310850D02*
X14341410Y-13320374D01*
X14341410Y-13320374D02*
X14331887Y-13329898D01*
X14541410Y-13444184D02*
X14522363Y-13434660D01*
X14522363Y-13434660D02*
X14512839Y-13425136D01*
X14512839Y-13425136D02*
X14503315Y-13406088D01*
X14503315Y-13406088D02*
X14503315Y-13348946D01*
X14503315Y-13348946D02*
X14512839Y-13329898D01*
X14512839Y-13329898D02*
X14522363Y-13320374D01*
X14522363Y-13320374D02*
X14541410Y-13310850D01*
X14541410Y-13310850D02*
X14569982Y-13310850D01*
X14569982Y-13310850D02*
X14589030Y-13320374D01*
X14589030Y-13320374D02*
X14598553Y-13329898D01*
X14598553Y-13329898D02*
X14608077Y-13348946D01*
X14608077Y-13348946D02*
X14608077Y-13406088D01*
X14608077Y-13406088D02*
X14598553Y-13425136D01*
X14598553Y-13425136D02*
X14589030Y-13434660D01*
X14589030Y-13434660D02*
X14569982Y-13444184D01*
X14569982Y-13444184D02*
X14541410Y-13444184D01*
X14722363Y-13444184D02*
X14703315Y-13434660D01*
X14703315Y-13434660D02*
X14693791Y-13415612D01*
X14693791Y-13415612D02*
X14693791Y-13244184D01*
X14874744Y-13434660D02*
X14855696Y-13444184D01*
X14855696Y-13444184D02*
X14817601Y-13444184D01*
X14817601Y-13444184D02*
X14798553Y-13434660D01*
X14798553Y-13434660D02*
X14789030Y-13415612D01*
X14789030Y-13415612D02*
X14789030Y-13339422D01*
X14789030Y-13339422D02*
X14798553Y-13320374D01*
X14798553Y-13320374D02*
X14817601Y-13310850D01*
X14817601Y-13310850D02*
X14855696Y-13310850D01*
X14855696Y-13310850D02*
X14874744Y-13320374D01*
X14874744Y-13320374D02*
X14884268Y-13339422D01*
X14884268Y-13339422D02*
X14884268Y-13358469D01*
X14884268Y-13358469D02*
X14789030Y-13377517D01*
X14960458Y-13434660D02*
X14979506Y-13444184D01*
X14979506Y-13444184D02*
X15017601Y-13444184D01*
X15017601Y-13444184D02*
X15036649Y-13434660D01*
X15036649Y-13434660D02*
X15046172Y-13415612D01*
X15046172Y-13415612D02*
X15046172Y-13406088D01*
X15046172Y-13406088D02*
X15036649Y-13387041D01*
X15036649Y-13387041D02*
X15017601Y-13377517D01*
X15017601Y-13377517D02*
X14989030Y-13377517D01*
X14989030Y-13377517D02*
X14969982Y-13367993D01*
X14969982Y-13367993D02*
X14960458Y-13348946D01*
X14960458Y-13348946D02*
X14960458Y-13339422D01*
X14960458Y-13339422D02*
X14969982Y-13320374D01*
X14969982Y-13320374D02*
X14989030Y-13310850D01*
X14989030Y-13310850D02*
X15017601Y-13310850D01*
X15017601Y-13310850D02*
X15036649Y-13320374D01*
X15112839Y-13520374D02*
X15122363Y-13510850D01*
X15122363Y-13510850D02*
X15141411Y-13482279D01*
X15141411Y-13482279D02*
X15150934Y-13463231D01*
X15150934Y-13463231D02*
X15160458Y-13434660D01*
X15160458Y-13434660D02*
X15169982Y-13387041D01*
X15169982Y-13387041D02*
X15169982Y-13348946D01*
X15169982Y-13348946D02*
X15160458Y-13301327D01*
X15160458Y-13301327D02*
X15150934Y-13272755D01*
X15150934Y-13272755D02*
X15141411Y-13253708D01*
X15141411Y-13253708D02*
X15122363Y-13225136D01*
X15122363Y-13225136D02*
X15112839Y-13215612D01*
D12*
X10147300Y-13616700D02*
G75*
G02*
X10067300Y-13616700I-40000J0D01*
G01*
X10067300Y-13616700D02*
G75*
G02*
X10147300Y-13616700I40000J0D01*
G01*
D11*
X10446172Y-13508184D02*
X10465220Y-13508184D01*
X10465220Y-13508184D02*
X10484267Y-13517708D01*
X10484267Y-13517708D02*
X10493791Y-13527231D01*
X10493791Y-13527231D02*
X10503315Y-13546279D01*
X10503315Y-13546279D02*
X10512839Y-13584374D01*
X10512839Y-13584374D02*
X10512839Y-13631993D01*
X10512839Y-13631993D02*
X10503315Y-13670088D01*
X10503315Y-13670088D02*
X10493791Y-13689136D01*
X10493791Y-13689136D02*
X10484267Y-13698660D01*
X10484267Y-13698660D02*
X10465220Y-13708184D01*
X10465220Y-13708184D02*
X10446172Y-13708184D01*
X10446172Y-13708184D02*
X10427124Y-13698660D01*
X10427124Y-13698660D02*
X10417601Y-13689136D01*
X10417601Y-13689136D02*
X10408077Y-13670088D01*
X10408077Y-13670088D02*
X10398553Y-13631993D01*
X10398553Y-13631993D02*
X10398553Y-13584374D01*
X10398553Y-13584374D02*
X10408077Y-13546279D01*
X10408077Y-13546279D02*
X10417601Y-13527231D01*
X10417601Y-13527231D02*
X10427124Y-13517708D01*
X10427124Y-13517708D02*
X10446172Y-13508184D01*
X10598553Y-13689136D02*
X10608077Y-13698660D01*
X10608077Y-13698660D02*
X10598553Y-13708184D01*
X10598553Y-13708184D02*
X10589029Y-13698660D01*
X10589029Y-13698660D02*
X10598553Y-13689136D01*
X10598553Y-13689136D02*
X10598553Y-13708184D01*
X10722363Y-13593898D02*
X10703315Y-13584374D01*
X10703315Y-13584374D02*
X10693791Y-13574850D01*
X10693791Y-13574850D02*
X10684267Y-13555803D01*
X10684267Y-13555803D02*
X10684267Y-13546279D01*
X10684267Y-13546279D02*
X10693791Y-13527231D01*
X10693791Y-13527231D02*
X10703315Y-13517708D01*
X10703315Y-13517708D02*
X10722363Y-13508184D01*
X10722363Y-13508184D02*
X10760458Y-13508184D01*
X10760458Y-13508184D02*
X10779505Y-13517708D01*
X10779505Y-13517708D02*
X10789029Y-13527231D01*
X10789029Y-13527231D02*
X10798553Y-13546279D01*
X10798553Y-13546279D02*
X10798553Y-13555803D01*
X10798553Y-13555803D02*
X10789029Y-13574850D01*
X10789029Y-13574850D02*
X10779505Y-13584374D01*
X10779505Y-13584374D02*
X10760458Y-13593898D01*
X10760458Y-13593898D02*
X10722363Y-13593898D01*
X10722363Y-13593898D02*
X10703315Y-13603422D01*
X10703315Y-13603422D02*
X10693791Y-13612946D01*
X10693791Y-13612946D02*
X10684267Y-13631993D01*
X10684267Y-13631993D02*
X10684267Y-13670088D01*
X10684267Y-13670088D02*
X10693791Y-13689136D01*
X10693791Y-13689136D02*
X10703315Y-13698660D01*
X10703315Y-13698660D02*
X10722363Y-13708184D01*
X10722363Y-13708184D02*
X10760458Y-13708184D01*
X10760458Y-13708184D02*
X10779505Y-13698660D01*
X10779505Y-13698660D02*
X10789029Y-13689136D01*
X10789029Y-13689136D02*
X10798553Y-13670088D01*
X10798553Y-13670088D02*
X10798553Y-13631993D01*
X10798553Y-13631993D02*
X10789029Y-13612946D01*
X10789029Y-13612946D02*
X10779505Y-13603422D01*
X10779505Y-13603422D02*
X10760458Y-13593898D01*
X10922363Y-13508184D02*
X10941410Y-13508184D01*
X10941410Y-13508184D02*
X10960458Y-13517708D01*
X10960458Y-13517708D02*
X10969982Y-13527231D01*
X10969982Y-13527231D02*
X10979505Y-13546279D01*
X10979505Y-13546279D02*
X10989029Y-13584374D01*
X10989029Y-13584374D02*
X10989029Y-13631993D01*
X10989029Y-13631993D02*
X10979505Y-13670088D01*
X10979505Y-13670088D02*
X10969982Y-13689136D01*
X10969982Y-13689136D02*
X10960458Y-13698660D01*
X10960458Y-13698660D02*
X10941410Y-13708184D01*
X10941410Y-13708184D02*
X10922363Y-13708184D01*
X10922363Y-13708184D02*
X10903315Y-13698660D01*
X10903315Y-13698660D02*
X10893791Y-13689136D01*
X10893791Y-13689136D02*
X10884267Y-13670088D01*
X10884267Y-13670088D02*
X10874744Y-13631993D01*
X10874744Y-13631993D02*
X10874744Y-13584374D01*
X10874744Y-13584374D02*
X10884267Y-13546279D01*
X10884267Y-13546279D02*
X10893791Y-13527231D01*
X10893791Y-13527231D02*
X10903315Y-13517708D01*
X10903315Y-13517708D02*
X10922363Y-13508184D01*
X11112839Y-13508184D02*
X11131886Y-13508184D01*
X11131886Y-13508184D02*
X11150934Y-13517708D01*
X11150934Y-13517708D02*
X11160458Y-13527231D01*
X11160458Y-13527231D02*
X11169982Y-13546279D01*
X11169982Y-13546279D02*
X11179505Y-13584374D01*
X11179505Y-13584374D02*
X11179505Y-13631993D01*
X11179505Y-13631993D02*
X11169982Y-13670088D01*
X11169982Y-13670088D02*
X11160458Y-13689136D01*
X11160458Y-13689136D02*
X11150934Y-13698660D01*
X11150934Y-13698660D02*
X11131886Y-13708184D01*
X11131886Y-13708184D02*
X11112839Y-13708184D01*
X11112839Y-13708184D02*
X11093791Y-13698660D01*
X11093791Y-13698660D02*
X11084267Y-13689136D01*
X11084267Y-13689136D02*
X11074744Y-13670088D01*
X11074744Y-13670088D02*
X11065220Y-13631993D01*
X11065220Y-13631993D02*
X11065220Y-13584374D01*
X11065220Y-13584374D02*
X11074744Y-13546279D01*
X11074744Y-13546279D02*
X11084267Y-13527231D01*
X11084267Y-13527231D02*
X11093791Y-13517708D01*
X11093791Y-13517708D02*
X11112839Y-13508184D01*
X11265220Y-13708184D02*
X11265220Y-13574850D01*
X11265220Y-13593898D02*
X11274743Y-13584374D01*
X11274743Y-13584374D02*
X11293791Y-13574850D01*
X11293791Y-13574850D02*
X11322363Y-13574850D01*
X11322363Y-13574850D02*
X11341410Y-13584374D01*
X11341410Y-13584374D02*
X11350934Y-13603422D01*
X11350934Y-13603422D02*
X11350934Y-13708184D01*
X11350934Y-13603422D02*
X11360458Y-13584374D01*
X11360458Y-13584374D02*
X11379505Y-13574850D01*
X11379505Y-13574850D02*
X11408077Y-13574850D01*
X11408077Y-13574850D02*
X11427124Y-13584374D01*
X11427124Y-13584374D02*
X11436648Y-13603422D01*
X11436648Y-13603422D02*
X11436648Y-13708184D01*
X11531886Y-13708184D02*
X11531886Y-13574850D01*
X11531886Y-13593898D02*
X11541410Y-13584374D01*
X11541410Y-13584374D02*
X11560458Y-13574850D01*
X11560458Y-13574850D02*
X11589029Y-13574850D01*
X11589029Y-13574850D02*
X11608077Y-13584374D01*
X11608077Y-13584374D02*
X11617601Y-13603422D01*
X11617601Y-13603422D02*
X11617601Y-13708184D01*
X11617601Y-13603422D02*
X11627124Y-13584374D01*
X11627124Y-13584374D02*
X11646172Y-13574850D01*
X11646172Y-13574850D02*
X11674743Y-13574850D01*
X11674743Y-13574850D02*
X11693791Y-13584374D01*
X11693791Y-13584374D02*
X11703315Y-13603422D01*
X11703315Y-13603422D02*
X11703315Y-13708184D01*
X12093791Y-13498660D02*
X11922363Y-13755803D01*
X12350934Y-13508184D02*
X12369982Y-13508184D01*
X12369982Y-13508184D02*
X12389029Y-13517708D01*
X12389029Y-13517708D02*
X12398553Y-13527231D01*
X12398553Y-13527231D02*
X12408077Y-13546279D01*
X12408077Y-13546279D02*
X12417601Y-13584374D01*
X12417601Y-13584374D02*
X12417601Y-13631993D01*
X12417601Y-13631993D02*
X12408077Y-13670088D01*
X12408077Y-13670088D02*
X12398553Y-13689136D01*
X12398553Y-13689136D02*
X12389029Y-13698660D01*
X12389029Y-13698660D02*
X12369982Y-13708184D01*
X12369982Y-13708184D02*
X12350934Y-13708184D01*
X12350934Y-13708184D02*
X12331886Y-13698660D01*
X12331886Y-13698660D02*
X12322363Y-13689136D01*
X12322363Y-13689136D02*
X12312839Y-13670088D01*
X12312839Y-13670088D02*
X12303315Y-13631993D01*
X12303315Y-13631993D02*
X12303315Y-13584374D01*
X12303315Y-13584374D02*
X12312839Y-13546279D01*
X12312839Y-13546279D02*
X12322363Y-13527231D01*
X12322363Y-13527231D02*
X12331886Y-13517708D01*
X12331886Y-13517708D02*
X12350934Y-13508184D01*
X12503315Y-13689136D02*
X12512839Y-13698660D01*
X12512839Y-13698660D02*
X12503315Y-13708184D01*
X12503315Y-13708184D02*
X12493791Y-13698660D01*
X12493791Y-13698660D02*
X12503315Y-13689136D01*
X12503315Y-13689136D02*
X12503315Y-13708184D01*
X12636648Y-13508184D02*
X12655696Y-13508184D01*
X12655696Y-13508184D02*
X12674744Y-13517708D01*
X12674744Y-13517708D02*
X12684267Y-13527231D01*
X12684267Y-13527231D02*
X12693791Y-13546279D01*
X12693791Y-13546279D02*
X12703315Y-13584374D01*
X12703315Y-13584374D02*
X12703315Y-13631993D01*
X12703315Y-13631993D02*
X12693791Y-13670088D01*
X12693791Y-13670088D02*
X12684267Y-13689136D01*
X12684267Y-13689136D02*
X12674744Y-13698660D01*
X12674744Y-13698660D02*
X12655696Y-13708184D01*
X12655696Y-13708184D02*
X12636648Y-13708184D01*
X12636648Y-13708184D02*
X12617601Y-13698660D01*
X12617601Y-13698660D02*
X12608077Y-13689136D01*
X12608077Y-13689136D02*
X12598553Y-13670088D01*
X12598553Y-13670088D02*
X12589029Y-13631993D01*
X12589029Y-13631993D02*
X12589029Y-13584374D01*
X12589029Y-13584374D02*
X12598553Y-13546279D01*
X12598553Y-13546279D02*
X12608077Y-13527231D01*
X12608077Y-13527231D02*
X12617601Y-13517708D01*
X12617601Y-13517708D02*
X12636648Y-13508184D01*
X12769982Y-13508184D02*
X12893791Y-13508184D01*
X12893791Y-13508184D02*
X12827125Y-13584374D01*
X12827125Y-13584374D02*
X12855696Y-13584374D01*
X12855696Y-13584374D02*
X12874744Y-13593898D01*
X12874744Y-13593898D02*
X12884267Y-13603422D01*
X12884267Y-13603422D02*
X12893791Y-13622469D01*
X12893791Y-13622469D02*
X12893791Y-13670088D01*
X12893791Y-13670088D02*
X12884267Y-13689136D01*
X12884267Y-13689136D02*
X12874744Y-13698660D01*
X12874744Y-13698660D02*
X12855696Y-13708184D01*
X12855696Y-13708184D02*
X12798553Y-13708184D01*
X12798553Y-13708184D02*
X12779506Y-13698660D01*
X12779506Y-13698660D02*
X12769982Y-13689136D01*
X13084267Y-13708184D02*
X12969982Y-13708184D01*
X13027125Y-13708184D02*
X13027125Y-13508184D01*
X13027125Y-13508184D02*
X13008077Y-13536755D01*
X13008077Y-13536755D02*
X12989029Y-13555803D01*
X12989029Y-13555803D02*
X12969982Y-13565327D01*
X13265220Y-13508184D02*
X13169982Y-13508184D01*
X13169982Y-13508184D02*
X13160458Y-13603422D01*
X13160458Y-13603422D02*
X13169982Y-13593898D01*
X13169982Y-13593898D02*
X13189029Y-13584374D01*
X13189029Y-13584374D02*
X13236648Y-13584374D01*
X13236648Y-13584374D02*
X13255696Y-13593898D01*
X13255696Y-13593898D02*
X13265220Y-13603422D01*
X13265220Y-13603422D02*
X13274744Y-13622469D01*
X13274744Y-13622469D02*
X13274744Y-13670088D01*
X13274744Y-13670088D02*
X13265220Y-13689136D01*
X13265220Y-13689136D02*
X13255696Y-13698660D01*
X13255696Y-13698660D02*
X13236648Y-13708184D01*
X13236648Y-13708184D02*
X13189029Y-13708184D01*
X13189029Y-13708184D02*
X13169982Y-13698660D01*
X13169982Y-13698660D02*
X13160458Y-13689136D01*
X13350934Y-13508184D02*
X13350934Y-13546279D01*
X13427125Y-13508184D02*
X13427125Y-13546279D01*
X13722363Y-13784374D02*
X13712839Y-13774850D01*
X13712839Y-13774850D02*
X13693791Y-13746279D01*
X13693791Y-13746279D02*
X13684268Y-13727231D01*
X13684268Y-13727231D02*
X13674744Y-13698660D01*
X13674744Y-13698660D02*
X13665220Y-13651041D01*
X13665220Y-13651041D02*
X13665220Y-13612946D01*
X13665220Y-13612946D02*
X13674744Y-13565327D01*
X13674744Y-13565327D02*
X13684268Y-13536755D01*
X13684268Y-13536755D02*
X13693791Y-13517708D01*
X13693791Y-13517708D02*
X13712839Y-13489136D01*
X13712839Y-13489136D02*
X13722363Y-13479612D01*
X13884268Y-13574850D02*
X13884268Y-13708184D01*
X13836648Y-13498660D02*
X13789029Y-13641517D01*
X13789029Y-13641517D02*
X13912839Y-13641517D01*
X14141410Y-13708184D02*
X14141410Y-13508184D01*
X14227125Y-13708184D02*
X14227125Y-13603422D01*
X14227125Y-13603422D02*
X14217601Y-13584374D01*
X14217601Y-13584374D02*
X14198553Y-13574850D01*
X14198553Y-13574850D02*
X14169982Y-13574850D01*
X14169982Y-13574850D02*
X14150934Y-13584374D01*
X14150934Y-13584374D02*
X14141410Y-13593898D01*
X14350934Y-13708184D02*
X14331887Y-13698660D01*
X14331887Y-13698660D02*
X14322363Y-13689136D01*
X14322363Y-13689136D02*
X14312839Y-13670088D01*
X14312839Y-13670088D02*
X14312839Y-13612946D01*
X14312839Y-13612946D02*
X14322363Y-13593898D01*
X14322363Y-13593898D02*
X14331887Y-13584374D01*
X14331887Y-13584374D02*
X14350934Y-13574850D01*
X14350934Y-13574850D02*
X14379506Y-13574850D01*
X14379506Y-13574850D02*
X14398553Y-13584374D01*
X14398553Y-13584374D02*
X14408077Y-13593898D01*
X14408077Y-13593898D02*
X14417601Y-13612946D01*
X14417601Y-13612946D02*
X14417601Y-13670088D01*
X14417601Y-13670088D02*
X14408077Y-13689136D01*
X14408077Y-13689136D02*
X14398553Y-13698660D01*
X14398553Y-13698660D02*
X14379506Y-13708184D01*
X14379506Y-13708184D02*
X14350934Y-13708184D01*
X14531887Y-13708184D02*
X14512839Y-13698660D01*
X14512839Y-13698660D02*
X14503315Y-13679612D01*
X14503315Y-13679612D02*
X14503315Y-13508184D01*
X14684268Y-13698660D02*
X14665220Y-13708184D01*
X14665220Y-13708184D02*
X14627125Y-13708184D01*
X14627125Y-13708184D02*
X14608077Y-13698660D01*
X14608077Y-13698660D02*
X14598553Y-13679612D01*
X14598553Y-13679612D02*
X14598553Y-13603422D01*
X14598553Y-13603422D02*
X14608077Y-13584374D01*
X14608077Y-13584374D02*
X14627125Y-13574850D01*
X14627125Y-13574850D02*
X14665220Y-13574850D01*
X14665220Y-13574850D02*
X14684268Y-13584374D01*
X14684268Y-13584374D02*
X14693791Y-13603422D01*
X14693791Y-13603422D02*
X14693791Y-13622469D01*
X14693791Y-13622469D02*
X14598553Y-13641517D01*
X14769982Y-13698660D02*
X14789030Y-13708184D01*
X14789030Y-13708184D02*
X14827125Y-13708184D01*
X14827125Y-13708184D02*
X14846172Y-13698660D01*
X14846172Y-13698660D02*
X14855696Y-13679612D01*
X14855696Y-13679612D02*
X14855696Y-13670088D01*
X14855696Y-13670088D02*
X14846172Y-13651041D01*
X14846172Y-13651041D02*
X14827125Y-13641517D01*
X14827125Y-13641517D02*
X14798553Y-13641517D01*
X14798553Y-13641517D02*
X14779506Y-13631993D01*
X14779506Y-13631993D02*
X14769982Y-13612946D01*
X14769982Y-13612946D02*
X14769982Y-13603422D01*
X14769982Y-13603422D02*
X14779506Y-13584374D01*
X14779506Y-13584374D02*
X14798553Y-13574850D01*
X14798553Y-13574850D02*
X14827125Y-13574850D01*
X14827125Y-13574850D02*
X14846172Y-13584374D01*
X14922363Y-13784374D02*
X14931887Y-13774850D01*
X14931887Y-13774850D02*
X14950934Y-13746279D01*
X14950934Y-13746279D02*
X14960458Y-13727231D01*
X14960458Y-13727231D02*
X14969982Y-13698660D01*
X14969982Y-13698660D02*
X14979506Y-13651041D01*
X14979506Y-13651041D02*
X14979506Y-13612946D01*
X14979506Y-13612946D02*
X14969982Y-13565327D01*
X14969982Y-13565327D02*
X14960458Y-13536755D01*
X14960458Y-13536755D02*
X14950934Y-13517708D01*
X14950934Y-13517708D02*
X14931887Y-13489136D01*
X14931887Y-13489136D02*
X14922363Y-13479612D01*
D12*
X10106660Y-13840060D02*
X10106660Y-13921340D01*
X10066020Y-13880700D02*
X10147300Y-13880700D01*
D11*
X10446172Y-13772184D02*
X10465220Y-13772184D01*
X10465220Y-13772184D02*
X10484267Y-13781708D01*
X10484267Y-13781708D02*
X10493791Y-13791231D01*
X10493791Y-13791231D02*
X10503315Y-13810279D01*
X10503315Y-13810279D02*
X10512839Y-13848374D01*
X10512839Y-13848374D02*
X10512839Y-13895993D01*
X10512839Y-13895993D02*
X10503315Y-13934088D01*
X10503315Y-13934088D02*
X10493791Y-13953136D01*
X10493791Y-13953136D02*
X10484267Y-13962660D01*
X10484267Y-13962660D02*
X10465220Y-13972184D01*
X10465220Y-13972184D02*
X10446172Y-13972184D01*
X10446172Y-13972184D02*
X10427124Y-13962660D01*
X10427124Y-13962660D02*
X10417601Y-13953136D01*
X10417601Y-13953136D02*
X10408077Y-13934088D01*
X10408077Y-13934088D02*
X10398553Y-13895993D01*
X10398553Y-13895993D02*
X10398553Y-13848374D01*
X10398553Y-13848374D02*
X10408077Y-13810279D01*
X10408077Y-13810279D02*
X10417601Y-13791231D01*
X10417601Y-13791231D02*
X10427124Y-13781708D01*
X10427124Y-13781708D02*
X10446172Y-13772184D01*
X10598553Y-13953136D02*
X10608077Y-13962660D01*
X10608077Y-13962660D02*
X10598553Y-13972184D01*
X10598553Y-13972184D02*
X10589029Y-13962660D01*
X10589029Y-13962660D02*
X10598553Y-13953136D01*
X10598553Y-13953136D02*
X10598553Y-13972184D01*
X10722363Y-13857898D02*
X10703315Y-13848374D01*
X10703315Y-13848374D02*
X10693791Y-13838850D01*
X10693791Y-13838850D02*
X10684267Y-13819803D01*
X10684267Y-13819803D02*
X10684267Y-13810279D01*
X10684267Y-13810279D02*
X10693791Y-13791231D01*
X10693791Y-13791231D02*
X10703315Y-13781708D01*
X10703315Y-13781708D02*
X10722363Y-13772184D01*
X10722363Y-13772184D02*
X10760458Y-13772184D01*
X10760458Y-13772184D02*
X10779505Y-13781708D01*
X10779505Y-13781708D02*
X10789029Y-13791231D01*
X10789029Y-13791231D02*
X10798553Y-13810279D01*
X10798553Y-13810279D02*
X10798553Y-13819803D01*
X10798553Y-13819803D02*
X10789029Y-13838850D01*
X10789029Y-13838850D02*
X10779505Y-13848374D01*
X10779505Y-13848374D02*
X10760458Y-13857898D01*
X10760458Y-13857898D02*
X10722363Y-13857898D01*
X10722363Y-13857898D02*
X10703315Y-13867422D01*
X10703315Y-13867422D02*
X10693791Y-13876946D01*
X10693791Y-13876946D02*
X10684267Y-13895993D01*
X10684267Y-13895993D02*
X10684267Y-13934088D01*
X10684267Y-13934088D02*
X10693791Y-13953136D01*
X10693791Y-13953136D02*
X10703315Y-13962660D01*
X10703315Y-13962660D02*
X10722363Y-13972184D01*
X10722363Y-13972184D02*
X10760458Y-13972184D01*
X10760458Y-13972184D02*
X10779505Y-13962660D01*
X10779505Y-13962660D02*
X10789029Y-13953136D01*
X10789029Y-13953136D02*
X10798553Y-13934088D01*
X10798553Y-13934088D02*
X10798553Y-13895993D01*
X10798553Y-13895993D02*
X10789029Y-13876946D01*
X10789029Y-13876946D02*
X10779505Y-13867422D01*
X10779505Y-13867422D02*
X10760458Y-13857898D01*
X10989029Y-13972184D02*
X10874744Y-13972184D01*
X10931886Y-13972184D02*
X10931886Y-13772184D01*
X10931886Y-13772184D02*
X10912839Y-13800755D01*
X10912839Y-13800755D02*
X10893791Y-13819803D01*
X10893791Y-13819803D02*
X10874744Y-13829327D01*
X11055696Y-13772184D02*
X11179505Y-13772184D01*
X11179505Y-13772184D02*
X11112839Y-13848374D01*
X11112839Y-13848374D02*
X11141410Y-13848374D01*
X11141410Y-13848374D02*
X11160458Y-13857898D01*
X11160458Y-13857898D02*
X11169982Y-13867422D01*
X11169982Y-13867422D02*
X11179505Y-13886469D01*
X11179505Y-13886469D02*
X11179505Y-13934088D01*
X11179505Y-13934088D02*
X11169982Y-13953136D01*
X11169982Y-13953136D02*
X11160458Y-13962660D01*
X11160458Y-13962660D02*
X11141410Y-13972184D01*
X11141410Y-13972184D02*
X11084267Y-13972184D01*
X11084267Y-13972184D02*
X11065220Y-13962660D01*
X11065220Y-13962660D02*
X11055696Y-13953136D01*
X11265220Y-13972184D02*
X11265220Y-13838850D01*
X11265220Y-13857898D02*
X11274743Y-13848374D01*
X11274743Y-13848374D02*
X11293791Y-13838850D01*
X11293791Y-13838850D02*
X11322363Y-13838850D01*
X11322363Y-13838850D02*
X11341410Y-13848374D01*
X11341410Y-13848374D02*
X11350934Y-13867422D01*
X11350934Y-13867422D02*
X11350934Y-13972184D01*
X11350934Y-13867422D02*
X11360458Y-13848374D01*
X11360458Y-13848374D02*
X11379505Y-13838850D01*
X11379505Y-13838850D02*
X11408077Y-13838850D01*
X11408077Y-13838850D02*
X11427124Y-13848374D01*
X11427124Y-13848374D02*
X11436648Y-13867422D01*
X11436648Y-13867422D02*
X11436648Y-13972184D01*
X11531886Y-13972184D02*
X11531886Y-13838850D01*
X11531886Y-13857898D02*
X11541410Y-13848374D01*
X11541410Y-13848374D02*
X11560458Y-13838850D01*
X11560458Y-13838850D02*
X11589029Y-13838850D01*
X11589029Y-13838850D02*
X11608077Y-13848374D01*
X11608077Y-13848374D02*
X11617601Y-13867422D01*
X11617601Y-13867422D02*
X11617601Y-13972184D01*
X11617601Y-13867422D02*
X11627124Y-13848374D01*
X11627124Y-13848374D02*
X11646172Y-13838850D01*
X11646172Y-13838850D02*
X11674743Y-13838850D01*
X11674743Y-13838850D02*
X11693791Y-13848374D01*
X11693791Y-13848374D02*
X11703315Y-13867422D01*
X11703315Y-13867422D02*
X11703315Y-13972184D01*
X12093791Y-13762660D02*
X11922363Y-14019803D01*
X12350934Y-13772184D02*
X12369982Y-13772184D01*
X12369982Y-13772184D02*
X12389029Y-13781708D01*
X12389029Y-13781708D02*
X12398553Y-13791231D01*
X12398553Y-13791231D02*
X12408077Y-13810279D01*
X12408077Y-13810279D02*
X12417601Y-13848374D01*
X12417601Y-13848374D02*
X12417601Y-13895993D01*
X12417601Y-13895993D02*
X12408077Y-13934088D01*
X12408077Y-13934088D02*
X12398553Y-13953136D01*
X12398553Y-13953136D02*
X12389029Y-13962660D01*
X12389029Y-13962660D02*
X12369982Y-13972184D01*
X12369982Y-13972184D02*
X12350934Y-13972184D01*
X12350934Y-13972184D02*
X12331886Y-13962660D01*
X12331886Y-13962660D02*
X12322363Y-13953136D01*
X12322363Y-13953136D02*
X12312839Y-13934088D01*
X12312839Y-13934088D02*
X12303315Y-13895993D01*
X12303315Y-13895993D02*
X12303315Y-13848374D01*
X12303315Y-13848374D02*
X12312839Y-13810279D01*
X12312839Y-13810279D02*
X12322363Y-13791231D01*
X12322363Y-13791231D02*
X12331886Y-13781708D01*
X12331886Y-13781708D02*
X12350934Y-13772184D01*
X12503315Y-13953136D02*
X12512839Y-13962660D01*
X12512839Y-13962660D02*
X12503315Y-13972184D01*
X12503315Y-13972184D02*
X12493791Y-13962660D01*
X12493791Y-13962660D02*
X12503315Y-13953136D01*
X12503315Y-13953136D02*
X12503315Y-13972184D01*
X12636648Y-13772184D02*
X12655696Y-13772184D01*
X12655696Y-13772184D02*
X12674744Y-13781708D01*
X12674744Y-13781708D02*
X12684267Y-13791231D01*
X12684267Y-13791231D02*
X12693791Y-13810279D01*
X12693791Y-13810279D02*
X12703315Y-13848374D01*
X12703315Y-13848374D02*
X12703315Y-13895993D01*
X12703315Y-13895993D02*
X12693791Y-13934088D01*
X12693791Y-13934088D02*
X12684267Y-13953136D01*
X12684267Y-13953136D02*
X12674744Y-13962660D01*
X12674744Y-13962660D02*
X12655696Y-13972184D01*
X12655696Y-13972184D02*
X12636648Y-13972184D01*
X12636648Y-13972184D02*
X12617601Y-13962660D01*
X12617601Y-13962660D02*
X12608077Y-13953136D01*
X12608077Y-13953136D02*
X12598553Y-13934088D01*
X12598553Y-13934088D02*
X12589029Y-13895993D01*
X12589029Y-13895993D02*
X12589029Y-13848374D01*
X12589029Y-13848374D02*
X12598553Y-13810279D01*
X12598553Y-13810279D02*
X12608077Y-13791231D01*
X12608077Y-13791231D02*
X12617601Y-13781708D01*
X12617601Y-13781708D02*
X12636648Y-13772184D01*
X12769982Y-13772184D02*
X12893791Y-13772184D01*
X12893791Y-13772184D02*
X12827125Y-13848374D01*
X12827125Y-13848374D02*
X12855696Y-13848374D01*
X12855696Y-13848374D02*
X12874744Y-13857898D01*
X12874744Y-13857898D02*
X12884267Y-13867422D01*
X12884267Y-13867422D02*
X12893791Y-13886469D01*
X12893791Y-13886469D02*
X12893791Y-13934088D01*
X12893791Y-13934088D02*
X12884267Y-13953136D01*
X12884267Y-13953136D02*
X12874744Y-13962660D01*
X12874744Y-13962660D02*
X12855696Y-13972184D01*
X12855696Y-13972184D02*
X12798553Y-13972184D01*
X12798553Y-13972184D02*
X12779506Y-13962660D01*
X12779506Y-13962660D02*
X12769982Y-13953136D01*
X12969982Y-13791231D02*
X12979506Y-13781708D01*
X12979506Y-13781708D02*
X12998553Y-13772184D01*
X12998553Y-13772184D02*
X13046172Y-13772184D01*
X13046172Y-13772184D02*
X13065220Y-13781708D01*
X13065220Y-13781708D02*
X13074744Y-13791231D01*
X13074744Y-13791231D02*
X13084267Y-13810279D01*
X13084267Y-13810279D02*
X13084267Y-13829327D01*
X13084267Y-13829327D02*
X13074744Y-13857898D01*
X13074744Y-13857898D02*
X12960458Y-13972184D01*
X12960458Y-13972184D02*
X13084267Y-13972184D01*
X13208077Y-13772184D02*
X13227125Y-13772184D01*
X13227125Y-13772184D02*
X13246172Y-13781708D01*
X13246172Y-13781708D02*
X13255696Y-13791231D01*
X13255696Y-13791231D02*
X13265220Y-13810279D01*
X13265220Y-13810279D02*
X13274744Y-13848374D01*
X13274744Y-13848374D02*
X13274744Y-13895993D01*
X13274744Y-13895993D02*
X13265220Y-13934088D01*
X13265220Y-13934088D02*
X13255696Y-13953136D01*
X13255696Y-13953136D02*
X13246172Y-13962660D01*
X13246172Y-13962660D02*
X13227125Y-13972184D01*
X13227125Y-13972184D02*
X13208077Y-13972184D01*
X13208077Y-13972184D02*
X13189029Y-13962660D01*
X13189029Y-13962660D02*
X13179506Y-13953136D01*
X13179506Y-13953136D02*
X13169982Y-13934088D01*
X13169982Y-13934088D02*
X13160458Y-13895993D01*
X13160458Y-13895993D02*
X13160458Y-13848374D01*
X13160458Y-13848374D02*
X13169982Y-13810279D01*
X13169982Y-13810279D02*
X13179506Y-13791231D01*
X13179506Y-13791231D02*
X13189029Y-13781708D01*
X13189029Y-13781708D02*
X13208077Y-13772184D01*
X13350934Y-13772184D02*
X13350934Y-13810279D01*
X13427125Y-13772184D02*
X13427125Y-13810279D01*
X13722363Y-14048374D02*
X13712839Y-14038850D01*
X13712839Y-14038850D02*
X13693791Y-14010279D01*
X13693791Y-14010279D02*
X13684268Y-13991231D01*
X13684268Y-13991231D02*
X13674744Y-13962660D01*
X13674744Y-13962660D02*
X13665220Y-13915041D01*
X13665220Y-13915041D02*
X13665220Y-13876946D01*
X13665220Y-13876946D02*
X13674744Y-13829327D01*
X13674744Y-13829327D02*
X13684268Y-13800755D01*
X13684268Y-13800755D02*
X13693791Y-13781708D01*
X13693791Y-13781708D02*
X13712839Y-13753136D01*
X13712839Y-13753136D02*
X13722363Y-13743612D01*
X13789029Y-13791231D02*
X13798553Y-13781708D01*
X13798553Y-13781708D02*
X13817601Y-13772184D01*
X13817601Y-13772184D02*
X13865220Y-13772184D01*
X13865220Y-13772184D02*
X13884268Y-13781708D01*
X13884268Y-13781708D02*
X13893791Y-13791231D01*
X13893791Y-13791231D02*
X13903315Y-13810279D01*
X13903315Y-13810279D02*
X13903315Y-13829327D01*
X13903315Y-13829327D02*
X13893791Y-13857898D01*
X13893791Y-13857898D02*
X13779506Y-13972184D01*
X13779506Y-13972184D02*
X13903315Y-13972184D01*
X14141410Y-13972184D02*
X14141410Y-13772184D01*
X14227125Y-13972184D02*
X14227125Y-13867422D01*
X14227125Y-13867422D02*
X14217601Y-13848374D01*
X14217601Y-13848374D02*
X14198553Y-13838850D01*
X14198553Y-13838850D02*
X14169982Y-13838850D01*
X14169982Y-13838850D02*
X14150934Y-13848374D01*
X14150934Y-13848374D02*
X14141410Y-13857898D01*
X14350934Y-13972184D02*
X14331887Y-13962660D01*
X14331887Y-13962660D02*
X14322363Y-13953136D01*
X14322363Y-13953136D02*
X14312839Y-13934088D01*
X14312839Y-13934088D02*
X14312839Y-13876946D01*
X14312839Y-13876946D02*
X14322363Y-13857898D01*
X14322363Y-13857898D02*
X14331887Y-13848374D01*
X14331887Y-13848374D02*
X14350934Y-13838850D01*
X14350934Y-13838850D02*
X14379506Y-13838850D01*
X14379506Y-13838850D02*
X14398553Y-13848374D01*
X14398553Y-13848374D02*
X14408077Y-13857898D01*
X14408077Y-13857898D02*
X14417601Y-13876946D01*
X14417601Y-13876946D02*
X14417601Y-13934088D01*
X14417601Y-13934088D02*
X14408077Y-13953136D01*
X14408077Y-13953136D02*
X14398553Y-13962660D01*
X14398553Y-13962660D02*
X14379506Y-13972184D01*
X14379506Y-13972184D02*
X14350934Y-13972184D01*
X14531887Y-13972184D02*
X14512839Y-13962660D01*
X14512839Y-13962660D02*
X14503315Y-13943612D01*
X14503315Y-13943612D02*
X14503315Y-13772184D01*
X14684268Y-13962660D02*
X14665220Y-13972184D01*
X14665220Y-13972184D02*
X14627125Y-13972184D01*
X14627125Y-13972184D02*
X14608077Y-13962660D01*
X14608077Y-13962660D02*
X14598553Y-13943612D01*
X14598553Y-13943612D02*
X14598553Y-13867422D01*
X14598553Y-13867422D02*
X14608077Y-13848374D01*
X14608077Y-13848374D02*
X14627125Y-13838850D01*
X14627125Y-13838850D02*
X14665220Y-13838850D01*
X14665220Y-13838850D02*
X14684268Y-13848374D01*
X14684268Y-13848374D02*
X14693791Y-13867422D01*
X14693791Y-13867422D02*
X14693791Y-13886469D01*
X14693791Y-13886469D02*
X14598553Y-13905517D01*
X14769982Y-13962660D02*
X14789030Y-13972184D01*
X14789030Y-13972184D02*
X14827125Y-13972184D01*
X14827125Y-13972184D02*
X14846172Y-13962660D01*
X14846172Y-13962660D02*
X14855696Y-13943612D01*
X14855696Y-13943612D02*
X14855696Y-13934088D01*
X14855696Y-13934088D02*
X14846172Y-13915041D01*
X14846172Y-13915041D02*
X14827125Y-13905517D01*
X14827125Y-13905517D02*
X14798553Y-13905517D01*
X14798553Y-13905517D02*
X14779506Y-13895993D01*
X14779506Y-13895993D02*
X14769982Y-13876946D01*
X14769982Y-13876946D02*
X14769982Y-13867422D01*
X14769982Y-13867422D02*
X14779506Y-13848374D01*
X14779506Y-13848374D02*
X14798553Y-13838850D01*
X14798553Y-13838850D02*
X14827125Y-13838850D01*
X14827125Y-13838850D02*
X14846172Y-13848374D01*
X14922363Y-14048374D02*
X14931887Y-14038850D01*
X14931887Y-14038850D02*
X14950934Y-14010279D01*
X14950934Y-14010279D02*
X14960458Y-13991231D01*
X14960458Y-13991231D02*
X14969982Y-13962660D01*
X14969982Y-13962660D02*
X14979506Y-13915041D01*
X14979506Y-13915041D02*
X14979506Y-13876946D01*
X14979506Y-13876946D02*
X14969982Y-13829327D01*
X14969982Y-13829327D02*
X14960458Y-13800755D01*
X14960458Y-13800755D02*
X14950934Y-13781708D01*
X14950934Y-13781708D02*
X14931887Y-13753136D01*
X14931887Y-13753136D02*
X14922363Y-13743612D01*
D12*
X10134120Y-14176520D02*
X10134120Y-14112880D01*
X10070480Y-14112880D01*
X10070480Y-14176520D01*
X10134120Y-14176520D01*
D11*
X10446172Y-14036184D02*
X10465220Y-14036184D01*
X10465220Y-14036184D02*
X10484267Y-14045708D01*
X10484267Y-14045708D02*
X10493791Y-14055231D01*
X10493791Y-14055231D02*
X10503315Y-14074279D01*
X10503315Y-14074279D02*
X10512839Y-14112374D01*
X10512839Y-14112374D02*
X10512839Y-14159993D01*
X10512839Y-14159993D02*
X10503315Y-14198088D01*
X10503315Y-14198088D02*
X10493791Y-14217136D01*
X10493791Y-14217136D02*
X10484267Y-14226660D01*
X10484267Y-14226660D02*
X10465220Y-14236184D01*
X10465220Y-14236184D02*
X10446172Y-14236184D01*
X10446172Y-14236184D02*
X10427124Y-14226660D01*
X10427124Y-14226660D02*
X10417601Y-14217136D01*
X10417601Y-14217136D02*
X10408077Y-14198088D01*
X10408077Y-14198088D02*
X10398553Y-14159993D01*
X10398553Y-14159993D02*
X10398553Y-14112374D01*
X10398553Y-14112374D02*
X10408077Y-14074279D01*
X10408077Y-14074279D02*
X10417601Y-14055231D01*
X10417601Y-14055231D02*
X10427124Y-14045708D01*
X10427124Y-14045708D02*
X10446172Y-14036184D01*
X10598553Y-14217136D02*
X10608077Y-14226660D01*
X10608077Y-14226660D02*
X10598553Y-14236184D01*
X10598553Y-14236184D02*
X10589029Y-14226660D01*
X10589029Y-14226660D02*
X10598553Y-14217136D01*
X10598553Y-14217136D02*
X10598553Y-14236184D01*
X10703315Y-14236184D02*
X10741410Y-14236184D01*
X10741410Y-14236184D02*
X10760458Y-14226660D01*
X10760458Y-14226660D02*
X10769982Y-14217136D01*
X10769982Y-14217136D02*
X10789029Y-14188565D01*
X10789029Y-14188565D02*
X10798553Y-14150469D01*
X10798553Y-14150469D02*
X10798553Y-14074279D01*
X10798553Y-14074279D02*
X10789029Y-14055231D01*
X10789029Y-14055231D02*
X10779505Y-14045708D01*
X10779505Y-14045708D02*
X10760458Y-14036184D01*
X10760458Y-14036184D02*
X10722363Y-14036184D01*
X10722363Y-14036184D02*
X10703315Y-14045708D01*
X10703315Y-14045708D02*
X10693791Y-14055231D01*
X10693791Y-14055231D02*
X10684267Y-14074279D01*
X10684267Y-14074279D02*
X10684267Y-14121898D01*
X10684267Y-14121898D02*
X10693791Y-14140946D01*
X10693791Y-14140946D02*
X10703315Y-14150469D01*
X10703315Y-14150469D02*
X10722363Y-14159993D01*
X10722363Y-14159993D02*
X10760458Y-14159993D01*
X10760458Y-14159993D02*
X10779505Y-14150469D01*
X10779505Y-14150469D02*
X10789029Y-14140946D01*
X10789029Y-14140946D02*
X10798553Y-14121898D01*
X10922363Y-14036184D02*
X10941410Y-14036184D01*
X10941410Y-14036184D02*
X10960458Y-14045708D01*
X10960458Y-14045708D02*
X10969982Y-14055231D01*
X10969982Y-14055231D02*
X10979505Y-14074279D01*
X10979505Y-14074279D02*
X10989029Y-14112374D01*
X10989029Y-14112374D02*
X10989029Y-14159993D01*
X10989029Y-14159993D02*
X10979505Y-14198088D01*
X10979505Y-14198088D02*
X10969982Y-14217136D01*
X10969982Y-14217136D02*
X10960458Y-14226660D01*
X10960458Y-14226660D02*
X10941410Y-14236184D01*
X10941410Y-14236184D02*
X10922363Y-14236184D01*
X10922363Y-14236184D02*
X10903315Y-14226660D01*
X10903315Y-14226660D02*
X10893791Y-14217136D01*
X10893791Y-14217136D02*
X10884267Y-14198088D01*
X10884267Y-14198088D02*
X10874744Y-14159993D01*
X10874744Y-14159993D02*
X10874744Y-14112374D01*
X10874744Y-14112374D02*
X10884267Y-14074279D01*
X10884267Y-14074279D02*
X10893791Y-14055231D01*
X10893791Y-14055231D02*
X10903315Y-14045708D01*
X10903315Y-14045708D02*
X10922363Y-14036184D01*
X11112839Y-14036184D02*
X11131886Y-14036184D01*
X11131886Y-14036184D02*
X11150934Y-14045708D01*
X11150934Y-14045708D02*
X11160458Y-14055231D01*
X11160458Y-14055231D02*
X11169982Y-14074279D01*
X11169982Y-14074279D02*
X11179505Y-14112374D01*
X11179505Y-14112374D02*
X11179505Y-14159993D01*
X11179505Y-14159993D02*
X11169982Y-14198088D01*
X11169982Y-14198088D02*
X11160458Y-14217136D01*
X11160458Y-14217136D02*
X11150934Y-14226660D01*
X11150934Y-14226660D02*
X11131886Y-14236184D01*
X11131886Y-14236184D02*
X11112839Y-14236184D01*
X11112839Y-14236184D02*
X11093791Y-14226660D01*
X11093791Y-14226660D02*
X11084267Y-14217136D01*
X11084267Y-14217136D02*
X11074744Y-14198088D01*
X11074744Y-14198088D02*
X11065220Y-14159993D01*
X11065220Y-14159993D02*
X11065220Y-14112374D01*
X11065220Y-14112374D02*
X11074744Y-14074279D01*
X11074744Y-14074279D02*
X11084267Y-14055231D01*
X11084267Y-14055231D02*
X11093791Y-14045708D01*
X11093791Y-14045708D02*
X11112839Y-14036184D01*
X11265220Y-14236184D02*
X11265220Y-14102850D01*
X11265220Y-14121898D02*
X11274743Y-14112374D01*
X11274743Y-14112374D02*
X11293791Y-14102850D01*
X11293791Y-14102850D02*
X11322363Y-14102850D01*
X11322363Y-14102850D02*
X11341410Y-14112374D01*
X11341410Y-14112374D02*
X11350934Y-14131422D01*
X11350934Y-14131422D02*
X11350934Y-14236184D01*
X11350934Y-14131422D02*
X11360458Y-14112374D01*
X11360458Y-14112374D02*
X11379505Y-14102850D01*
X11379505Y-14102850D02*
X11408077Y-14102850D01*
X11408077Y-14102850D02*
X11427124Y-14112374D01*
X11427124Y-14112374D02*
X11436648Y-14131422D01*
X11436648Y-14131422D02*
X11436648Y-14236184D01*
X11531886Y-14236184D02*
X11531886Y-14102850D01*
X11531886Y-14121898D02*
X11541410Y-14112374D01*
X11541410Y-14112374D02*
X11560458Y-14102850D01*
X11560458Y-14102850D02*
X11589029Y-14102850D01*
X11589029Y-14102850D02*
X11608077Y-14112374D01*
X11608077Y-14112374D02*
X11617601Y-14131422D01*
X11617601Y-14131422D02*
X11617601Y-14236184D01*
X11617601Y-14131422D02*
X11627124Y-14112374D01*
X11627124Y-14112374D02*
X11646172Y-14102850D01*
X11646172Y-14102850D02*
X11674743Y-14102850D01*
X11674743Y-14102850D02*
X11693791Y-14112374D01*
X11693791Y-14112374D02*
X11703315Y-14131422D01*
X11703315Y-14131422D02*
X11703315Y-14236184D01*
X12093791Y-14026660D02*
X11922363Y-14283803D01*
X12350934Y-14036184D02*
X12369982Y-14036184D01*
X12369982Y-14036184D02*
X12389029Y-14045708D01*
X12389029Y-14045708D02*
X12398553Y-14055231D01*
X12398553Y-14055231D02*
X12408077Y-14074279D01*
X12408077Y-14074279D02*
X12417601Y-14112374D01*
X12417601Y-14112374D02*
X12417601Y-14159993D01*
X12417601Y-14159993D02*
X12408077Y-14198088D01*
X12408077Y-14198088D02*
X12398553Y-14217136D01*
X12398553Y-14217136D02*
X12389029Y-14226660D01*
X12389029Y-14226660D02*
X12369982Y-14236184D01*
X12369982Y-14236184D02*
X12350934Y-14236184D01*
X12350934Y-14236184D02*
X12331886Y-14226660D01*
X12331886Y-14226660D02*
X12322363Y-14217136D01*
X12322363Y-14217136D02*
X12312839Y-14198088D01*
X12312839Y-14198088D02*
X12303315Y-14159993D01*
X12303315Y-14159993D02*
X12303315Y-14112374D01*
X12303315Y-14112374D02*
X12312839Y-14074279D01*
X12312839Y-14074279D02*
X12322363Y-14055231D01*
X12322363Y-14055231D02*
X12331886Y-14045708D01*
X12331886Y-14045708D02*
X12350934Y-14036184D01*
X12503315Y-14217136D02*
X12512839Y-14226660D01*
X12512839Y-14226660D02*
X12503315Y-14236184D01*
X12503315Y-14236184D02*
X12493791Y-14226660D01*
X12493791Y-14226660D02*
X12503315Y-14217136D01*
X12503315Y-14217136D02*
X12503315Y-14236184D01*
X12636648Y-14036184D02*
X12655696Y-14036184D01*
X12655696Y-14036184D02*
X12674744Y-14045708D01*
X12674744Y-14045708D02*
X12684267Y-14055231D01*
X12684267Y-14055231D02*
X12693791Y-14074279D01*
X12693791Y-14074279D02*
X12703315Y-14112374D01*
X12703315Y-14112374D02*
X12703315Y-14159993D01*
X12703315Y-14159993D02*
X12693791Y-14198088D01*
X12693791Y-14198088D02*
X12684267Y-14217136D01*
X12684267Y-14217136D02*
X12674744Y-14226660D01*
X12674744Y-14226660D02*
X12655696Y-14236184D01*
X12655696Y-14236184D02*
X12636648Y-14236184D01*
X12636648Y-14236184D02*
X12617601Y-14226660D01*
X12617601Y-14226660D02*
X12608077Y-14217136D01*
X12608077Y-14217136D02*
X12598553Y-14198088D01*
X12598553Y-14198088D02*
X12589029Y-14159993D01*
X12589029Y-14159993D02*
X12589029Y-14112374D01*
X12589029Y-14112374D02*
X12598553Y-14074279D01*
X12598553Y-14074279D02*
X12608077Y-14055231D01*
X12608077Y-14055231D02*
X12617601Y-14045708D01*
X12617601Y-14045708D02*
X12636648Y-14036184D01*
X12769982Y-14036184D02*
X12893791Y-14036184D01*
X12893791Y-14036184D02*
X12827125Y-14112374D01*
X12827125Y-14112374D02*
X12855696Y-14112374D01*
X12855696Y-14112374D02*
X12874744Y-14121898D01*
X12874744Y-14121898D02*
X12884267Y-14131422D01*
X12884267Y-14131422D02*
X12893791Y-14150469D01*
X12893791Y-14150469D02*
X12893791Y-14198088D01*
X12893791Y-14198088D02*
X12884267Y-14217136D01*
X12884267Y-14217136D02*
X12874744Y-14226660D01*
X12874744Y-14226660D02*
X12855696Y-14236184D01*
X12855696Y-14236184D02*
X12798553Y-14236184D01*
X12798553Y-14236184D02*
X12779506Y-14226660D01*
X12779506Y-14226660D02*
X12769982Y-14217136D01*
X13074744Y-14036184D02*
X12979506Y-14036184D01*
X12979506Y-14036184D02*
X12969982Y-14131422D01*
X12969982Y-14131422D02*
X12979506Y-14121898D01*
X12979506Y-14121898D02*
X12998553Y-14112374D01*
X12998553Y-14112374D02*
X13046172Y-14112374D01*
X13046172Y-14112374D02*
X13065220Y-14121898D01*
X13065220Y-14121898D02*
X13074744Y-14131422D01*
X13074744Y-14131422D02*
X13084267Y-14150469D01*
X13084267Y-14150469D02*
X13084267Y-14198088D01*
X13084267Y-14198088D02*
X13074744Y-14217136D01*
X13074744Y-14217136D02*
X13065220Y-14226660D01*
X13065220Y-14226660D02*
X13046172Y-14236184D01*
X13046172Y-14236184D02*
X12998553Y-14236184D01*
X12998553Y-14236184D02*
X12979506Y-14226660D01*
X12979506Y-14226660D02*
X12969982Y-14217136D01*
X13255696Y-14102850D02*
X13255696Y-14236184D01*
X13208077Y-14026660D02*
X13160458Y-14169517D01*
X13160458Y-14169517D02*
X13284267Y-14169517D01*
X13350934Y-14036184D02*
X13350934Y-14074279D01*
X13427125Y-14036184D02*
X13427125Y-14074279D01*
X13722363Y-14312374D02*
X13712839Y-14302850D01*
X13712839Y-14302850D02*
X13693791Y-14274279D01*
X13693791Y-14274279D02*
X13684268Y-14255231D01*
X13684268Y-14255231D02*
X13674744Y-14226660D01*
X13674744Y-14226660D02*
X13665220Y-14179041D01*
X13665220Y-14179041D02*
X13665220Y-14140946D01*
X13665220Y-14140946D02*
X13674744Y-14093327D01*
X13674744Y-14093327D02*
X13684268Y-14064755D01*
X13684268Y-14064755D02*
X13693791Y-14045708D01*
X13693791Y-14045708D02*
X13712839Y-14017136D01*
X13712839Y-14017136D02*
X13722363Y-14007612D01*
X13789029Y-14055231D02*
X13798553Y-14045708D01*
X13798553Y-14045708D02*
X13817601Y-14036184D01*
X13817601Y-14036184D02*
X13865220Y-14036184D01*
X13865220Y-14036184D02*
X13884268Y-14045708D01*
X13884268Y-14045708D02*
X13893791Y-14055231D01*
X13893791Y-14055231D02*
X13903315Y-14074279D01*
X13903315Y-14074279D02*
X13903315Y-14093327D01*
X13903315Y-14093327D02*
X13893791Y-14121898D01*
X13893791Y-14121898D02*
X13779506Y-14236184D01*
X13779506Y-14236184D02*
X13903315Y-14236184D01*
X14141410Y-14236184D02*
X14141410Y-14036184D01*
X14227125Y-14236184D02*
X14227125Y-14131422D01*
X14227125Y-14131422D02*
X14217601Y-14112374D01*
X14217601Y-14112374D02*
X14198553Y-14102850D01*
X14198553Y-14102850D02*
X14169982Y-14102850D01*
X14169982Y-14102850D02*
X14150934Y-14112374D01*
X14150934Y-14112374D02*
X14141410Y-14121898D01*
X14350934Y-14236184D02*
X14331887Y-14226660D01*
X14331887Y-14226660D02*
X14322363Y-14217136D01*
X14322363Y-14217136D02*
X14312839Y-14198088D01*
X14312839Y-14198088D02*
X14312839Y-14140946D01*
X14312839Y-14140946D02*
X14322363Y-14121898D01*
X14322363Y-14121898D02*
X14331887Y-14112374D01*
X14331887Y-14112374D02*
X14350934Y-14102850D01*
X14350934Y-14102850D02*
X14379506Y-14102850D01*
X14379506Y-14102850D02*
X14398553Y-14112374D01*
X14398553Y-14112374D02*
X14408077Y-14121898D01*
X14408077Y-14121898D02*
X14417601Y-14140946D01*
X14417601Y-14140946D02*
X14417601Y-14198088D01*
X14417601Y-14198088D02*
X14408077Y-14217136D01*
X14408077Y-14217136D02*
X14398553Y-14226660D01*
X14398553Y-14226660D02*
X14379506Y-14236184D01*
X14379506Y-14236184D02*
X14350934Y-14236184D01*
X14531887Y-14236184D02*
X14512839Y-14226660D01*
X14512839Y-14226660D02*
X14503315Y-14207612D01*
X14503315Y-14207612D02*
X14503315Y-14036184D01*
X14684268Y-14226660D02*
X14665220Y-14236184D01*
X14665220Y-14236184D02*
X14627125Y-14236184D01*
X14627125Y-14236184D02*
X14608077Y-14226660D01*
X14608077Y-14226660D02*
X14598553Y-14207612D01*
X14598553Y-14207612D02*
X14598553Y-14131422D01*
X14598553Y-14131422D02*
X14608077Y-14112374D01*
X14608077Y-14112374D02*
X14627125Y-14102850D01*
X14627125Y-14102850D02*
X14665220Y-14102850D01*
X14665220Y-14102850D02*
X14684268Y-14112374D01*
X14684268Y-14112374D02*
X14693791Y-14131422D01*
X14693791Y-14131422D02*
X14693791Y-14150469D01*
X14693791Y-14150469D02*
X14598553Y-14169517D01*
X14769982Y-14226660D02*
X14789030Y-14236184D01*
X14789030Y-14236184D02*
X14827125Y-14236184D01*
X14827125Y-14236184D02*
X14846172Y-14226660D01*
X14846172Y-14226660D02*
X14855696Y-14207612D01*
X14855696Y-14207612D02*
X14855696Y-14198088D01*
X14855696Y-14198088D02*
X14846172Y-14179041D01*
X14846172Y-14179041D02*
X14827125Y-14169517D01*
X14827125Y-14169517D02*
X14798553Y-14169517D01*
X14798553Y-14169517D02*
X14779506Y-14159993D01*
X14779506Y-14159993D02*
X14769982Y-14140946D01*
X14769982Y-14140946D02*
X14769982Y-14131422D01*
X14769982Y-14131422D02*
X14779506Y-14112374D01*
X14779506Y-14112374D02*
X14798553Y-14102850D01*
X14798553Y-14102850D02*
X14827125Y-14102850D01*
X14827125Y-14102850D02*
X14846172Y-14112374D01*
X14922363Y-14312374D02*
X14931887Y-14302850D01*
X14931887Y-14302850D02*
X14950934Y-14274279D01*
X14950934Y-14274279D02*
X14960458Y-14255231D01*
X14960458Y-14255231D02*
X14969982Y-14226660D01*
X14969982Y-14226660D02*
X14979506Y-14179041D01*
X14979506Y-14179041D02*
X14979506Y-14140946D01*
X14979506Y-14140946D02*
X14969982Y-14093327D01*
X14969982Y-14093327D02*
X14960458Y-14064755D01*
X14960458Y-14064755D02*
X14950934Y-14045708D01*
X14950934Y-14045708D02*
X14931887Y-14017136D01*
X14931887Y-14017136D02*
X14922363Y-14007612D01*
D12*
X10097300Y-14458700D02*
X10147300Y-14408700D01*
X10097300Y-14358700D01*
X10047300Y-14408700D01*
X10097300Y-14458700D01*
D11*
X10512839Y-14500184D02*
X10398553Y-14500184D01*
X10455696Y-14500184D02*
X10455696Y-14300184D01*
X10455696Y-14300184D02*
X10436648Y-14328755D01*
X10436648Y-14328755D02*
X10417601Y-14347803D01*
X10417601Y-14347803D02*
X10398553Y-14357327D01*
X10598553Y-14481136D02*
X10608077Y-14490660D01*
X10608077Y-14490660D02*
X10598553Y-14500184D01*
X10598553Y-14500184D02*
X10589029Y-14490660D01*
X10589029Y-14490660D02*
X10598553Y-14481136D01*
X10598553Y-14481136D02*
X10598553Y-14500184D01*
X10731886Y-14300184D02*
X10750934Y-14300184D01*
X10750934Y-14300184D02*
X10769982Y-14309708D01*
X10769982Y-14309708D02*
X10779505Y-14319231D01*
X10779505Y-14319231D02*
X10789029Y-14338279D01*
X10789029Y-14338279D02*
X10798553Y-14376374D01*
X10798553Y-14376374D02*
X10798553Y-14423993D01*
X10798553Y-14423993D02*
X10789029Y-14462088D01*
X10789029Y-14462088D02*
X10779505Y-14481136D01*
X10779505Y-14481136D02*
X10769982Y-14490660D01*
X10769982Y-14490660D02*
X10750934Y-14500184D01*
X10750934Y-14500184D02*
X10731886Y-14500184D01*
X10731886Y-14500184D02*
X10712839Y-14490660D01*
X10712839Y-14490660D02*
X10703315Y-14481136D01*
X10703315Y-14481136D02*
X10693791Y-14462088D01*
X10693791Y-14462088D02*
X10684267Y-14423993D01*
X10684267Y-14423993D02*
X10684267Y-14376374D01*
X10684267Y-14376374D02*
X10693791Y-14338279D01*
X10693791Y-14338279D02*
X10703315Y-14319231D01*
X10703315Y-14319231D02*
X10712839Y-14309708D01*
X10712839Y-14309708D02*
X10731886Y-14300184D01*
X10922363Y-14300184D02*
X10941410Y-14300184D01*
X10941410Y-14300184D02*
X10960458Y-14309708D01*
X10960458Y-14309708D02*
X10969982Y-14319231D01*
X10969982Y-14319231D02*
X10979505Y-14338279D01*
X10979505Y-14338279D02*
X10989029Y-14376374D01*
X10989029Y-14376374D02*
X10989029Y-14423993D01*
X10989029Y-14423993D02*
X10979505Y-14462088D01*
X10979505Y-14462088D02*
X10969982Y-14481136D01*
X10969982Y-14481136D02*
X10960458Y-14490660D01*
X10960458Y-14490660D02*
X10941410Y-14500184D01*
X10941410Y-14500184D02*
X10922363Y-14500184D01*
X10922363Y-14500184D02*
X10903315Y-14490660D01*
X10903315Y-14490660D02*
X10893791Y-14481136D01*
X10893791Y-14481136D02*
X10884267Y-14462088D01*
X10884267Y-14462088D02*
X10874744Y-14423993D01*
X10874744Y-14423993D02*
X10874744Y-14376374D01*
X10874744Y-14376374D02*
X10884267Y-14338279D01*
X10884267Y-14338279D02*
X10893791Y-14319231D01*
X10893791Y-14319231D02*
X10903315Y-14309708D01*
X10903315Y-14309708D02*
X10922363Y-14300184D01*
X11112839Y-14300184D02*
X11131886Y-14300184D01*
X11131886Y-14300184D02*
X11150934Y-14309708D01*
X11150934Y-14309708D02*
X11160458Y-14319231D01*
X11160458Y-14319231D02*
X11169982Y-14338279D01*
X11169982Y-14338279D02*
X11179505Y-14376374D01*
X11179505Y-14376374D02*
X11179505Y-14423993D01*
X11179505Y-14423993D02*
X11169982Y-14462088D01*
X11169982Y-14462088D02*
X11160458Y-14481136D01*
X11160458Y-14481136D02*
X11150934Y-14490660D01*
X11150934Y-14490660D02*
X11131886Y-14500184D01*
X11131886Y-14500184D02*
X11112839Y-14500184D01*
X11112839Y-14500184D02*
X11093791Y-14490660D01*
X11093791Y-14490660D02*
X11084267Y-14481136D01*
X11084267Y-14481136D02*
X11074744Y-14462088D01*
X11074744Y-14462088D02*
X11065220Y-14423993D01*
X11065220Y-14423993D02*
X11065220Y-14376374D01*
X11065220Y-14376374D02*
X11074744Y-14338279D01*
X11074744Y-14338279D02*
X11084267Y-14319231D01*
X11084267Y-14319231D02*
X11093791Y-14309708D01*
X11093791Y-14309708D02*
X11112839Y-14300184D01*
X11265220Y-14500184D02*
X11265220Y-14366850D01*
X11265220Y-14385898D02*
X11274743Y-14376374D01*
X11274743Y-14376374D02*
X11293791Y-14366850D01*
X11293791Y-14366850D02*
X11322363Y-14366850D01*
X11322363Y-14366850D02*
X11341410Y-14376374D01*
X11341410Y-14376374D02*
X11350934Y-14395422D01*
X11350934Y-14395422D02*
X11350934Y-14500184D01*
X11350934Y-14395422D02*
X11360458Y-14376374D01*
X11360458Y-14376374D02*
X11379505Y-14366850D01*
X11379505Y-14366850D02*
X11408077Y-14366850D01*
X11408077Y-14366850D02*
X11427124Y-14376374D01*
X11427124Y-14376374D02*
X11436648Y-14395422D01*
X11436648Y-14395422D02*
X11436648Y-14500184D01*
X11531886Y-14500184D02*
X11531886Y-14366850D01*
X11531886Y-14385898D02*
X11541410Y-14376374D01*
X11541410Y-14376374D02*
X11560458Y-14366850D01*
X11560458Y-14366850D02*
X11589029Y-14366850D01*
X11589029Y-14366850D02*
X11608077Y-14376374D01*
X11608077Y-14376374D02*
X11617601Y-14395422D01*
X11617601Y-14395422D02*
X11617601Y-14500184D01*
X11617601Y-14395422D02*
X11627124Y-14376374D01*
X11627124Y-14376374D02*
X11646172Y-14366850D01*
X11646172Y-14366850D02*
X11674743Y-14366850D01*
X11674743Y-14366850D02*
X11693791Y-14376374D01*
X11693791Y-14376374D02*
X11703315Y-14395422D01*
X11703315Y-14395422D02*
X11703315Y-14500184D01*
X12093791Y-14290660D02*
X11922363Y-14547803D01*
X12350934Y-14300184D02*
X12369982Y-14300184D01*
X12369982Y-14300184D02*
X12389029Y-14309708D01*
X12389029Y-14309708D02*
X12398553Y-14319231D01*
X12398553Y-14319231D02*
X12408077Y-14338279D01*
X12408077Y-14338279D02*
X12417601Y-14376374D01*
X12417601Y-14376374D02*
X12417601Y-14423993D01*
X12417601Y-14423993D02*
X12408077Y-14462088D01*
X12408077Y-14462088D02*
X12398553Y-14481136D01*
X12398553Y-14481136D02*
X12389029Y-14490660D01*
X12389029Y-14490660D02*
X12369982Y-14500184D01*
X12369982Y-14500184D02*
X12350934Y-14500184D01*
X12350934Y-14500184D02*
X12331886Y-14490660D01*
X12331886Y-14490660D02*
X12322363Y-14481136D01*
X12322363Y-14481136D02*
X12312839Y-14462088D01*
X12312839Y-14462088D02*
X12303315Y-14423993D01*
X12303315Y-14423993D02*
X12303315Y-14376374D01*
X12303315Y-14376374D02*
X12312839Y-14338279D01*
X12312839Y-14338279D02*
X12322363Y-14319231D01*
X12322363Y-14319231D02*
X12331886Y-14309708D01*
X12331886Y-14309708D02*
X12350934Y-14300184D01*
X12503315Y-14481136D02*
X12512839Y-14490660D01*
X12512839Y-14490660D02*
X12503315Y-14500184D01*
X12503315Y-14500184D02*
X12493791Y-14490660D01*
X12493791Y-14490660D02*
X12503315Y-14481136D01*
X12503315Y-14481136D02*
X12503315Y-14500184D01*
X12636648Y-14300184D02*
X12655696Y-14300184D01*
X12655696Y-14300184D02*
X12674744Y-14309708D01*
X12674744Y-14309708D02*
X12684267Y-14319231D01*
X12684267Y-14319231D02*
X12693791Y-14338279D01*
X12693791Y-14338279D02*
X12703315Y-14376374D01*
X12703315Y-14376374D02*
X12703315Y-14423993D01*
X12703315Y-14423993D02*
X12693791Y-14462088D01*
X12693791Y-14462088D02*
X12684267Y-14481136D01*
X12684267Y-14481136D02*
X12674744Y-14490660D01*
X12674744Y-14490660D02*
X12655696Y-14500184D01*
X12655696Y-14500184D02*
X12636648Y-14500184D01*
X12636648Y-14500184D02*
X12617601Y-14490660D01*
X12617601Y-14490660D02*
X12608077Y-14481136D01*
X12608077Y-14481136D02*
X12598553Y-14462088D01*
X12598553Y-14462088D02*
X12589029Y-14423993D01*
X12589029Y-14423993D02*
X12589029Y-14376374D01*
X12589029Y-14376374D02*
X12598553Y-14338279D01*
X12598553Y-14338279D02*
X12608077Y-14319231D01*
X12608077Y-14319231D02*
X12617601Y-14309708D01*
X12617601Y-14309708D02*
X12636648Y-14300184D01*
X12769982Y-14300184D02*
X12893791Y-14300184D01*
X12893791Y-14300184D02*
X12827125Y-14376374D01*
X12827125Y-14376374D02*
X12855696Y-14376374D01*
X12855696Y-14376374D02*
X12874744Y-14385898D01*
X12874744Y-14385898D02*
X12884267Y-14395422D01*
X12884267Y-14395422D02*
X12893791Y-14414469D01*
X12893791Y-14414469D02*
X12893791Y-14462088D01*
X12893791Y-14462088D02*
X12884267Y-14481136D01*
X12884267Y-14481136D02*
X12874744Y-14490660D01*
X12874744Y-14490660D02*
X12855696Y-14500184D01*
X12855696Y-14500184D02*
X12798553Y-14500184D01*
X12798553Y-14500184D02*
X12779506Y-14490660D01*
X12779506Y-14490660D02*
X12769982Y-14481136D01*
X12989029Y-14500184D02*
X13027125Y-14500184D01*
X13027125Y-14500184D02*
X13046172Y-14490660D01*
X13046172Y-14490660D02*
X13055696Y-14481136D01*
X13055696Y-14481136D02*
X13074744Y-14452565D01*
X13074744Y-14452565D02*
X13084267Y-14414469D01*
X13084267Y-14414469D02*
X13084267Y-14338279D01*
X13084267Y-14338279D02*
X13074744Y-14319231D01*
X13074744Y-14319231D02*
X13065220Y-14309708D01*
X13065220Y-14309708D02*
X13046172Y-14300184D01*
X13046172Y-14300184D02*
X13008077Y-14300184D01*
X13008077Y-14300184D02*
X12989029Y-14309708D01*
X12989029Y-14309708D02*
X12979506Y-14319231D01*
X12979506Y-14319231D02*
X12969982Y-14338279D01*
X12969982Y-14338279D02*
X12969982Y-14385898D01*
X12969982Y-14385898D02*
X12979506Y-14404946D01*
X12979506Y-14404946D02*
X12989029Y-14414469D01*
X12989029Y-14414469D02*
X13008077Y-14423993D01*
X13008077Y-14423993D02*
X13046172Y-14423993D01*
X13046172Y-14423993D02*
X13065220Y-14414469D01*
X13065220Y-14414469D02*
X13074744Y-14404946D01*
X13074744Y-14404946D02*
X13084267Y-14385898D01*
X13255696Y-14366850D02*
X13255696Y-14500184D01*
X13208077Y-14290660D02*
X13160458Y-14433517D01*
X13160458Y-14433517D02*
X13284267Y-14433517D01*
X13350934Y-14300184D02*
X13350934Y-14338279D01*
X13427125Y-14300184D02*
X13427125Y-14338279D01*
X13722363Y-14576374D02*
X13712839Y-14566850D01*
X13712839Y-14566850D02*
X13693791Y-14538279D01*
X13693791Y-14538279D02*
X13684268Y-14519231D01*
X13684268Y-14519231D02*
X13674744Y-14490660D01*
X13674744Y-14490660D02*
X13665220Y-14443041D01*
X13665220Y-14443041D02*
X13665220Y-14404946D01*
X13665220Y-14404946D02*
X13674744Y-14357327D01*
X13674744Y-14357327D02*
X13684268Y-14328755D01*
X13684268Y-14328755D02*
X13693791Y-14309708D01*
X13693791Y-14309708D02*
X13712839Y-14281136D01*
X13712839Y-14281136D02*
X13722363Y-14271612D01*
X13789029Y-14319231D02*
X13798553Y-14309708D01*
X13798553Y-14309708D02*
X13817601Y-14300184D01*
X13817601Y-14300184D02*
X13865220Y-14300184D01*
X13865220Y-14300184D02*
X13884268Y-14309708D01*
X13884268Y-14309708D02*
X13893791Y-14319231D01*
X13893791Y-14319231D02*
X13903315Y-14338279D01*
X13903315Y-14338279D02*
X13903315Y-14357327D01*
X13903315Y-14357327D02*
X13893791Y-14385898D01*
X13893791Y-14385898D02*
X13779506Y-14500184D01*
X13779506Y-14500184D02*
X13903315Y-14500184D01*
X13979506Y-14319231D02*
X13989029Y-14309708D01*
X13989029Y-14309708D02*
X14008077Y-14300184D01*
X14008077Y-14300184D02*
X14055696Y-14300184D01*
X14055696Y-14300184D02*
X14074744Y-14309708D01*
X14074744Y-14309708D02*
X14084268Y-14319231D01*
X14084268Y-14319231D02*
X14093791Y-14338279D01*
X14093791Y-14338279D02*
X14093791Y-14357327D01*
X14093791Y-14357327D02*
X14084268Y-14385898D01*
X14084268Y-14385898D02*
X13969982Y-14500184D01*
X13969982Y-14500184D02*
X14093791Y-14500184D01*
X14331887Y-14500184D02*
X14331887Y-14300184D01*
X14417601Y-14500184D02*
X14417601Y-14395422D01*
X14417601Y-14395422D02*
X14408077Y-14376374D01*
X14408077Y-14376374D02*
X14389030Y-14366850D01*
X14389030Y-14366850D02*
X14360458Y-14366850D01*
X14360458Y-14366850D02*
X14341410Y-14376374D01*
X14341410Y-14376374D02*
X14331887Y-14385898D01*
X14541410Y-14500184D02*
X14522363Y-14490660D01*
X14522363Y-14490660D02*
X14512839Y-14481136D01*
X14512839Y-14481136D02*
X14503315Y-14462088D01*
X14503315Y-14462088D02*
X14503315Y-14404946D01*
X14503315Y-14404946D02*
X14512839Y-14385898D01*
X14512839Y-14385898D02*
X14522363Y-14376374D01*
X14522363Y-14376374D02*
X14541410Y-14366850D01*
X14541410Y-14366850D02*
X14569982Y-14366850D01*
X14569982Y-14366850D02*
X14589030Y-14376374D01*
X14589030Y-14376374D02*
X14598553Y-14385898D01*
X14598553Y-14385898D02*
X14608077Y-14404946D01*
X14608077Y-14404946D02*
X14608077Y-14462088D01*
X14608077Y-14462088D02*
X14598553Y-14481136D01*
X14598553Y-14481136D02*
X14589030Y-14490660D01*
X14589030Y-14490660D02*
X14569982Y-14500184D01*
X14569982Y-14500184D02*
X14541410Y-14500184D01*
X14722363Y-14500184D02*
X14703315Y-14490660D01*
X14703315Y-14490660D02*
X14693791Y-14471612D01*
X14693791Y-14471612D02*
X14693791Y-14300184D01*
X14874744Y-14490660D02*
X14855696Y-14500184D01*
X14855696Y-14500184D02*
X14817601Y-14500184D01*
X14817601Y-14500184D02*
X14798553Y-14490660D01*
X14798553Y-14490660D02*
X14789030Y-14471612D01*
X14789030Y-14471612D02*
X14789030Y-14395422D01*
X14789030Y-14395422D02*
X14798553Y-14376374D01*
X14798553Y-14376374D02*
X14817601Y-14366850D01*
X14817601Y-14366850D02*
X14855696Y-14366850D01*
X14855696Y-14366850D02*
X14874744Y-14376374D01*
X14874744Y-14376374D02*
X14884268Y-14395422D01*
X14884268Y-14395422D02*
X14884268Y-14414469D01*
X14884268Y-14414469D02*
X14789030Y-14433517D01*
X14960458Y-14490660D02*
X14979506Y-14500184D01*
X14979506Y-14500184D02*
X15017601Y-14500184D01*
X15017601Y-14500184D02*
X15036649Y-14490660D01*
X15036649Y-14490660D02*
X15046172Y-14471612D01*
X15046172Y-14471612D02*
X15046172Y-14462088D01*
X15046172Y-14462088D02*
X15036649Y-14443041D01*
X15036649Y-14443041D02*
X15017601Y-14433517D01*
X15017601Y-14433517D02*
X14989030Y-14433517D01*
X14989030Y-14433517D02*
X14969982Y-14423993D01*
X14969982Y-14423993D02*
X14960458Y-14404946D01*
X14960458Y-14404946D02*
X14960458Y-14395422D01*
X14960458Y-14395422D02*
X14969982Y-14376374D01*
X14969982Y-14376374D02*
X14989030Y-14366850D01*
X14989030Y-14366850D02*
X15017601Y-14366850D01*
X15017601Y-14366850D02*
X15036649Y-14376374D01*
X15112839Y-14576374D02*
X15122363Y-14566850D01*
X15122363Y-14566850D02*
X15141411Y-14538279D01*
X15141411Y-14538279D02*
X15150934Y-14519231D01*
X15150934Y-14519231D02*
X15160458Y-14490660D01*
X15160458Y-14490660D02*
X15169982Y-14443041D01*
X15169982Y-14443041D02*
X15169982Y-14404946D01*
X15169982Y-14404946D02*
X15160458Y-14357327D01*
X15160458Y-14357327D02*
X15150934Y-14328755D01*
X15150934Y-14328755D02*
X15141411Y-14309708D01*
X15141411Y-14309708D02*
X15122363Y-14281136D01*
X15122363Y-14281136D02*
X15112839Y-14271612D01*
D13*
X9997300Y-14597700D02*
X10147300Y-14747700D01*
X10147300Y-14597700D02*
X9997300Y-14747700D01*
X10147300Y-14672700D02*
G75*
G02*
X9997300Y-14672700I-75000J0D01*
G01*
X9997300Y-14672700D02*
G75*
G02*
X10147300Y-14672700I75000J0D01*
G01*
D11*
X10512839Y-14764184D02*
X10398553Y-14764184D01*
X10455696Y-14764184D02*
X10455696Y-14564184D01*
X10455696Y-14564184D02*
X10436648Y-14592755D01*
X10436648Y-14592755D02*
X10417601Y-14611803D01*
X10417601Y-14611803D02*
X10398553Y-14621327D01*
X10598553Y-14745136D02*
X10608077Y-14754660D01*
X10608077Y-14754660D02*
X10598553Y-14764184D01*
X10598553Y-14764184D02*
X10589029Y-14754660D01*
X10589029Y-14754660D02*
X10598553Y-14745136D01*
X10598553Y-14745136D02*
X10598553Y-14764184D01*
X10789029Y-14564184D02*
X10693791Y-14564184D01*
X10693791Y-14564184D02*
X10684267Y-14659422D01*
X10684267Y-14659422D02*
X10693791Y-14649898D01*
X10693791Y-14649898D02*
X10712839Y-14640374D01*
X10712839Y-14640374D02*
X10760458Y-14640374D01*
X10760458Y-14640374D02*
X10779505Y-14649898D01*
X10779505Y-14649898D02*
X10789029Y-14659422D01*
X10789029Y-14659422D02*
X10798553Y-14678469D01*
X10798553Y-14678469D02*
X10798553Y-14726088D01*
X10798553Y-14726088D02*
X10789029Y-14745136D01*
X10789029Y-14745136D02*
X10779505Y-14754660D01*
X10779505Y-14754660D02*
X10760458Y-14764184D01*
X10760458Y-14764184D02*
X10712839Y-14764184D01*
X10712839Y-14764184D02*
X10693791Y-14754660D01*
X10693791Y-14754660D02*
X10684267Y-14745136D01*
X10922363Y-14564184D02*
X10941410Y-14564184D01*
X10941410Y-14564184D02*
X10960458Y-14573708D01*
X10960458Y-14573708D02*
X10969982Y-14583231D01*
X10969982Y-14583231D02*
X10979505Y-14602279D01*
X10979505Y-14602279D02*
X10989029Y-14640374D01*
X10989029Y-14640374D02*
X10989029Y-14687993D01*
X10989029Y-14687993D02*
X10979505Y-14726088D01*
X10979505Y-14726088D02*
X10969982Y-14745136D01*
X10969982Y-14745136D02*
X10960458Y-14754660D01*
X10960458Y-14754660D02*
X10941410Y-14764184D01*
X10941410Y-14764184D02*
X10922363Y-14764184D01*
X10922363Y-14764184D02*
X10903315Y-14754660D01*
X10903315Y-14754660D02*
X10893791Y-14745136D01*
X10893791Y-14745136D02*
X10884267Y-14726088D01*
X10884267Y-14726088D02*
X10874744Y-14687993D01*
X10874744Y-14687993D02*
X10874744Y-14640374D01*
X10874744Y-14640374D02*
X10884267Y-14602279D01*
X10884267Y-14602279D02*
X10893791Y-14583231D01*
X10893791Y-14583231D02*
X10903315Y-14573708D01*
X10903315Y-14573708D02*
X10922363Y-14564184D01*
X11112839Y-14564184D02*
X11131886Y-14564184D01*
X11131886Y-14564184D02*
X11150934Y-14573708D01*
X11150934Y-14573708D02*
X11160458Y-14583231D01*
X11160458Y-14583231D02*
X11169982Y-14602279D01*
X11169982Y-14602279D02*
X11179505Y-14640374D01*
X11179505Y-14640374D02*
X11179505Y-14687993D01*
X11179505Y-14687993D02*
X11169982Y-14726088D01*
X11169982Y-14726088D02*
X11160458Y-14745136D01*
X11160458Y-14745136D02*
X11150934Y-14754660D01*
X11150934Y-14754660D02*
X11131886Y-14764184D01*
X11131886Y-14764184D02*
X11112839Y-14764184D01*
X11112839Y-14764184D02*
X11093791Y-14754660D01*
X11093791Y-14754660D02*
X11084267Y-14745136D01*
X11084267Y-14745136D02*
X11074744Y-14726088D01*
X11074744Y-14726088D02*
X11065220Y-14687993D01*
X11065220Y-14687993D02*
X11065220Y-14640374D01*
X11065220Y-14640374D02*
X11074744Y-14602279D01*
X11074744Y-14602279D02*
X11084267Y-14583231D01*
X11084267Y-14583231D02*
X11093791Y-14573708D01*
X11093791Y-14573708D02*
X11112839Y-14564184D01*
X11265220Y-14764184D02*
X11265220Y-14630850D01*
X11265220Y-14649898D02*
X11274743Y-14640374D01*
X11274743Y-14640374D02*
X11293791Y-14630850D01*
X11293791Y-14630850D02*
X11322363Y-14630850D01*
X11322363Y-14630850D02*
X11341410Y-14640374D01*
X11341410Y-14640374D02*
X11350934Y-14659422D01*
X11350934Y-14659422D02*
X11350934Y-14764184D01*
X11350934Y-14659422D02*
X11360458Y-14640374D01*
X11360458Y-14640374D02*
X11379505Y-14630850D01*
X11379505Y-14630850D02*
X11408077Y-14630850D01*
X11408077Y-14630850D02*
X11427124Y-14640374D01*
X11427124Y-14640374D02*
X11436648Y-14659422D01*
X11436648Y-14659422D02*
X11436648Y-14764184D01*
X11531886Y-14764184D02*
X11531886Y-14630850D01*
X11531886Y-14649898D02*
X11541410Y-14640374D01*
X11541410Y-14640374D02*
X11560458Y-14630850D01*
X11560458Y-14630850D02*
X11589029Y-14630850D01*
X11589029Y-14630850D02*
X11608077Y-14640374D01*
X11608077Y-14640374D02*
X11617601Y-14659422D01*
X11617601Y-14659422D02*
X11617601Y-14764184D01*
X11617601Y-14659422D02*
X11627124Y-14640374D01*
X11627124Y-14640374D02*
X11646172Y-14630850D01*
X11646172Y-14630850D02*
X11674743Y-14630850D01*
X11674743Y-14630850D02*
X11693791Y-14640374D01*
X11693791Y-14640374D02*
X11703315Y-14659422D01*
X11703315Y-14659422D02*
X11703315Y-14764184D01*
X12093791Y-14554660D02*
X11922363Y-14811803D01*
X12350934Y-14564184D02*
X12369982Y-14564184D01*
X12369982Y-14564184D02*
X12389029Y-14573708D01*
X12389029Y-14573708D02*
X12398553Y-14583231D01*
X12398553Y-14583231D02*
X12408077Y-14602279D01*
X12408077Y-14602279D02*
X12417601Y-14640374D01*
X12417601Y-14640374D02*
X12417601Y-14687993D01*
X12417601Y-14687993D02*
X12408077Y-14726088D01*
X12408077Y-14726088D02*
X12398553Y-14745136D01*
X12398553Y-14745136D02*
X12389029Y-14754660D01*
X12389029Y-14754660D02*
X12369982Y-14764184D01*
X12369982Y-14764184D02*
X12350934Y-14764184D01*
X12350934Y-14764184D02*
X12331886Y-14754660D01*
X12331886Y-14754660D02*
X12322363Y-14745136D01*
X12322363Y-14745136D02*
X12312839Y-14726088D01*
X12312839Y-14726088D02*
X12303315Y-14687993D01*
X12303315Y-14687993D02*
X12303315Y-14640374D01*
X12303315Y-14640374D02*
X12312839Y-14602279D01*
X12312839Y-14602279D02*
X12322363Y-14583231D01*
X12322363Y-14583231D02*
X12331886Y-14573708D01*
X12331886Y-14573708D02*
X12350934Y-14564184D01*
X12503315Y-14745136D02*
X12512839Y-14754660D01*
X12512839Y-14754660D02*
X12503315Y-14764184D01*
X12503315Y-14764184D02*
X12493791Y-14754660D01*
X12493791Y-14754660D02*
X12503315Y-14745136D01*
X12503315Y-14745136D02*
X12503315Y-14764184D01*
X12636648Y-14564184D02*
X12655696Y-14564184D01*
X12655696Y-14564184D02*
X12674744Y-14573708D01*
X12674744Y-14573708D02*
X12684267Y-14583231D01*
X12684267Y-14583231D02*
X12693791Y-14602279D01*
X12693791Y-14602279D02*
X12703315Y-14640374D01*
X12703315Y-14640374D02*
X12703315Y-14687993D01*
X12703315Y-14687993D02*
X12693791Y-14726088D01*
X12693791Y-14726088D02*
X12684267Y-14745136D01*
X12684267Y-14745136D02*
X12674744Y-14754660D01*
X12674744Y-14754660D02*
X12655696Y-14764184D01*
X12655696Y-14764184D02*
X12636648Y-14764184D01*
X12636648Y-14764184D02*
X12617601Y-14754660D01*
X12617601Y-14754660D02*
X12608077Y-14745136D01*
X12608077Y-14745136D02*
X12598553Y-14726088D01*
X12598553Y-14726088D02*
X12589029Y-14687993D01*
X12589029Y-14687993D02*
X12589029Y-14640374D01*
X12589029Y-14640374D02*
X12598553Y-14602279D01*
X12598553Y-14602279D02*
X12608077Y-14583231D01*
X12608077Y-14583231D02*
X12617601Y-14573708D01*
X12617601Y-14573708D02*
X12636648Y-14564184D01*
X12884267Y-14564184D02*
X12789029Y-14564184D01*
X12789029Y-14564184D02*
X12779506Y-14659422D01*
X12779506Y-14659422D02*
X12789029Y-14649898D01*
X12789029Y-14649898D02*
X12808077Y-14640374D01*
X12808077Y-14640374D02*
X12855696Y-14640374D01*
X12855696Y-14640374D02*
X12874744Y-14649898D01*
X12874744Y-14649898D02*
X12884267Y-14659422D01*
X12884267Y-14659422D02*
X12893791Y-14678469D01*
X12893791Y-14678469D02*
X12893791Y-14726088D01*
X12893791Y-14726088D02*
X12884267Y-14745136D01*
X12884267Y-14745136D02*
X12874744Y-14754660D01*
X12874744Y-14754660D02*
X12855696Y-14764184D01*
X12855696Y-14764184D02*
X12808077Y-14764184D01*
X12808077Y-14764184D02*
X12789029Y-14754660D01*
X12789029Y-14754660D02*
X12779506Y-14745136D01*
X12989029Y-14764184D02*
X13027125Y-14764184D01*
X13027125Y-14764184D02*
X13046172Y-14754660D01*
X13046172Y-14754660D02*
X13055696Y-14745136D01*
X13055696Y-14745136D02*
X13074744Y-14716565D01*
X13074744Y-14716565D02*
X13084267Y-14678469D01*
X13084267Y-14678469D02*
X13084267Y-14602279D01*
X13084267Y-14602279D02*
X13074744Y-14583231D01*
X13074744Y-14583231D02*
X13065220Y-14573708D01*
X13065220Y-14573708D02*
X13046172Y-14564184D01*
X13046172Y-14564184D02*
X13008077Y-14564184D01*
X13008077Y-14564184D02*
X12989029Y-14573708D01*
X12989029Y-14573708D02*
X12979506Y-14583231D01*
X12979506Y-14583231D02*
X12969982Y-14602279D01*
X12969982Y-14602279D02*
X12969982Y-14649898D01*
X12969982Y-14649898D02*
X12979506Y-14668946D01*
X12979506Y-14668946D02*
X12989029Y-14678469D01*
X12989029Y-14678469D02*
X13008077Y-14687993D01*
X13008077Y-14687993D02*
X13046172Y-14687993D01*
X13046172Y-14687993D02*
X13065220Y-14678469D01*
X13065220Y-14678469D02*
X13074744Y-14668946D01*
X13074744Y-14668946D02*
X13084267Y-14649898D01*
X13274744Y-14764184D02*
X13160458Y-14764184D01*
X13217601Y-14764184D02*
X13217601Y-14564184D01*
X13217601Y-14564184D02*
X13198553Y-14592755D01*
X13198553Y-14592755D02*
X13179506Y-14611803D01*
X13179506Y-14611803D02*
X13160458Y-14621327D01*
X13350934Y-14564184D02*
X13350934Y-14602279D01*
X13427125Y-14564184D02*
X13427125Y-14602279D01*
X13722363Y-14840374D02*
X13712839Y-14830850D01*
X13712839Y-14830850D02*
X13693791Y-14802279D01*
X13693791Y-14802279D02*
X13684268Y-14783231D01*
X13684268Y-14783231D02*
X13674744Y-14754660D01*
X13674744Y-14754660D02*
X13665220Y-14707041D01*
X13665220Y-14707041D02*
X13665220Y-14668946D01*
X13665220Y-14668946D02*
X13674744Y-14621327D01*
X13674744Y-14621327D02*
X13684268Y-14592755D01*
X13684268Y-14592755D02*
X13693791Y-14573708D01*
X13693791Y-14573708D02*
X13712839Y-14545136D01*
X13712839Y-14545136D02*
X13722363Y-14535612D01*
X13789029Y-14583231D02*
X13798553Y-14573708D01*
X13798553Y-14573708D02*
X13817601Y-14564184D01*
X13817601Y-14564184D02*
X13865220Y-14564184D01*
X13865220Y-14564184D02*
X13884268Y-14573708D01*
X13884268Y-14573708D02*
X13893791Y-14583231D01*
X13893791Y-14583231D02*
X13903315Y-14602279D01*
X13903315Y-14602279D02*
X13903315Y-14621327D01*
X13903315Y-14621327D02*
X13893791Y-14649898D01*
X13893791Y-14649898D02*
X13779506Y-14764184D01*
X13779506Y-14764184D02*
X13903315Y-14764184D01*
X14017601Y-14649898D02*
X13998553Y-14640374D01*
X13998553Y-14640374D02*
X13989029Y-14630850D01*
X13989029Y-14630850D02*
X13979506Y-14611803D01*
X13979506Y-14611803D02*
X13979506Y-14602279D01*
X13979506Y-14602279D02*
X13989029Y-14583231D01*
X13989029Y-14583231D02*
X13998553Y-14573708D01*
X13998553Y-14573708D02*
X14017601Y-14564184D01*
X14017601Y-14564184D02*
X14055696Y-14564184D01*
X14055696Y-14564184D02*
X14074744Y-14573708D01*
X14074744Y-14573708D02*
X14084268Y-14583231D01*
X14084268Y-14583231D02*
X14093791Y-14602279D01*
X14093791Y-14602279D02*
X14093791Y-14611803D01*
X14093791Y-14611803D02*
X14084268Y-14630850D01*
X14084268Y-14630850D02*
X14074744Y-14640374D01*
X14074744Y-14640374D02*
X14055696Y-14649898D01*
X14055696Y-14649898D02*
X14017601Y-14649898D01*
X14017601Y-14649898D02*
X13998553Y-14659422D01*
X13998553Y-14659422D02*
X13989029Y-14668946D01*
X13989029Y-14668946D02*
X13979506Y-14687993D01*
X13979506Y-14687993D02*
X13979506Y-14726088D01*
X13979506Y-14726088D02*
X13989029Y-14745136D01*
X13989029Y-14745136D02*
X13998553Y-14754660D01*
X13998553Y-14754660D02*
X14017601Y-14764184D01*
X14017601Y-14764184D02*
X14055696Y-14764184D01*
X14055696Y-14764184D02*
X14074744Y-14754660D01*
X14074744Y-14754660D02*
X14084268Y-14745136D01*
X14084268Y-14745136D02*
X14093791Y-14726088D01*
X14093791Y-14726088D02*
X14093791Y-14687993D01*
X14093791Y-14687993D02*
X14084268Y-14668946D01*
X14084268Y-14668946D02*
X14074744Y-14659422D01*
X14074744Y-14659422D02*
X14055696Y-14649898D01*
X14331887Y-14764184D02*
X14331887Y-14564184D01*
X14417601Y-14764184D02*
X14417601Y-14659422D01*
X14417601Y-14659422D02*
X14408077Y-14640374D01*
X14408077Y-14640374D02*
X14389030Y-14630850D01*
X14389030Y-14630850D02*
X14360458Y-14630850D01*
X14360458Y-14630850D02*
X14341410Y-14640374D01*
X14341410Y-14640374D02*
X14331887Y-14649898D01*
X14541410Y-14764184D02*
X14522363Y-14754660D01*
X14522363Y-14754660D02*
X14512839Y-14745136D01*
X14512839Y-14745136D02*
X14503315Y-14726088D01*
X14503315Y-14726088D02*
X14503315Y-14668946D01*
X14503315Y-14668946D02*
X14512839Y-14649898D01*
X14512839Y-14649898D02*
X14522363Y-14640374D01*
X14522363Y-14640374D02*
X14541410Y-14630850D01*
X14541410Y-14630850D02*
X14569982Y-14630850D01*
X14569982Y-14630850D02*
X14589030Y-14640374D01*
X14589030Y-14640374D02*
X14598553Y-14649898D01*
X14598553Y-14649898D02*
X14608077Y-14668946D01*
X14608077Y-14668946D02*
X14608077Y-14726088D01*
X14608077Y-14726088D02*
X14598553Y-14745136D01*
X14598553Y-14745136D02*
X14589030Y-14754660D01*
X14589030Y-14754660D02*
X14569982Y-14764184D01*
X14569982Y-14764184D02*
X14541410Y-14764184D01*
X14722363Y-14764184D02*
X14703315Y-14754660D01*
X14703315Y-14754660D02*
X14693791Y-14735612D01*
X14693791Y-14735612D02*
X14693791Y-14564184D01*
X14874744Y-14754660D02*
X14855696Y-14764184D01*
X14855696Y-14764184D02*
X14817601Y-14764184D01*
X14817601Y-14764184D02*
X14798553Y-14754660D01*
X14798553Y-14754660D02*
X14789030Y-14735612D01*
X14789030Y-14735612D02*
X14789030Y-14659422D01*
X14789030Y-14659422D02*
X14798553Y-14640374D01*
X14798553Y-14640374D02*
X14817601Y-14630850D01*
X14817601Y-14630850D02*
X14855696Y-14630850D01*
X14855696Y-14630850D02*
X14874744Y-14640374D01*
X14874744Y-14640374D02*
X14884268Y-14659422D01*
X14884268Y-14659422D02*
X14884268Y-14678469D01*
X14884268Y-14678469D02*
X14789030Y-14697517D01*
X14960458Y-14754660D02*
X14979506Y-14764184D01*
X14979506Y-14764184D02*
X15017601Y-14764184D01*
X15017601Y-14764184D02*
X15036649Y-14754660D01*
X15036649Y-14754660D02*
X15046172Y-14735612D01*
X15046172Y-14735612D02*
X15046172Y-14726088D01*
X15046172Y-14726088D02*
X15036649Y-14707041D01*
X15036649Y-14707041D02*
X15017601Y-14697517D01*
X15017601Y-14697517D02*
X14989030Y-14697517D01*
X14989030Y-14697517D02*
X14969982Y-14687993D01*
X14969982Y-14687993D02*
X14960458Y-14668946D01*
X14960458Y-14668946D02*
X14960458Y-14659422D01*
X14960458Y-14659422D02*
X14969982Y-14640374D01*
X14969982Y-14640374D02*
X14989030Y-14630850D01*
X14989030Y-14630850D02*
X15017601Y-14630850D01*
X15017601Y-14630850D02*
X15036649Y-14640374D01*
X15112839Y-14840374D02*
X15122363Y-14830850D01*
X15122363Y-14830850D02*
X15141411Y-14802279D01*
X15141411Y-14802279D02*
X15150934Y-14783231D01*
X15150934Y-14783231D02*
X15160458Y-14754660D01*
X15160458Y-14754660D02*
X15169982Y-14707041D01*
X15169982Y-14707041D02*
X15169982Y-14668946D01*
X15169982Y-14668946D02*
X15160458Y-14621327D01*
X15160458Y-14621327D02*
X15150934Y-14592755D01*
X15150934Y-14592755D02*
X15141411Y-14573708D01*
X15141411Y-14573708D02*
X15122363Y-14545136D01*
X15122363Y-14545136D02*
X15112839Y-14535612D01*
M02*
