%TF.GenerationSoftware,KiCad,Pcbnew,8.0.2-1.fc38*%
%TF.CreationDate,2024-06-21T20:30:20+02:00*%
%TF.ProjectId,msx_eprom_cartridge_3.1,6d73785f-6570-4726-9f6d-5f6361727472,rev?*%
%TF.SameCoordinates,Original*%
%TF.FileFunction,Copper,L2,Bot*%
%TF.FilePolarity,Positive*%
%FSLAX46Y46*%
G04 Gerber Fmt 4.6, Leading zero omitted, Abs format (unit mm)*
G04 Created by KiCad (PCBNEW 8.0.2-1.fc38) date 2024-06-21 20:30:20*
%MOMM*%
%LPD*%
G01*
G04 APERTURE LIST*
%TA.AperFunction,SMDPad,CuDef*%
%ADD10R,1.270000X7.620000*%
%TD*%
%TA.AperFunction,ComponentPad*%
%ADD11R,1.700000X1.700000*%
%TD*%
%TA.AperFunction,ComponentPad*%
%ADD12O,1.700000X1.700000*%
%TD*%
%TA.AperFunction,ComponentPad*%
%ADD13C,1.600000*%
%TD*%
%TA.AperFunction,ComponentPad*%
%ADD14C,1.574800*%
%TD*%
%TA.AperFunction,ComponentPad*%
%ADD15R,1.800000X1.800000*%
%TD*%
%TA.AperFunction,ComponentPad*%
%ADD16C,1.800000*%
%TD*%
%TA.AperFunction,ComponentPad*%
%ADD17O,1.600000X1.600000*%
%TD*%
%TA.AperFunction,ComponentPad*%
%ADD18R,1.800000X2.400000*%
%TD*%
%TA.AperFunction,ComponentPad*%
%ADD19O,1.800000X2.400000*%
%TD*%
%TA.AperFunction,ViaPad*%
%ADD20C,0.800000*%
%TD*%
%TA.AperFunction,Conductor*%
%ADD21C,0.700000*%
%TD*%
%TA.AperFunction,Conductor*%
%ADD22C,0.250000*%
%TD*%
G04 APERTURE END LIST*
D10*
%TO.P,CN1,01,~{CS1}*%
%TO.N,/~{CS1}*%
X187325000Y-123190000D03*
%TO.P,CN1,03,~{CS12}*%
%TO.N,/~{CS12}*%
X184785000Y-123190000D03*
%TO.P,CN1,05,NC1*%
%TO.N,unconnected-(CN1-NC1-Pad05)*%
X182245000Y-123190000D03*
%TO.P,CN1,07,~{WAIT}*%
%TO.N,unconnected-(CN1-~{WAIT}-Pad07)*%
X179705000Y-123190000D03*
%TO.P,CN1,09,~{M1}*%
%TO.N,unconnected-(CN1-~{M1}-Pad09)*%
X177165000Y-123190000D03*
%TO.P,CN1,11,~{IORQ}*%
%TO.N,unconnected-(CN1-~{IORQ}-Pad11)*%
X174625000Y-123190000D03*
%TO.P,CN1,13,~{WR}*%
%TO.N,unconnected-(CN1-~{WR}-Pad13)*%
X172085000Y-123190000D03*
%TO.P,CN1,15,~{RESET}*%
%TO.N,unconnected-(CN1-~{RESET}-Pad15)*%
X169545000Y-123190000D03*
%TO.P,CN1,17,A9*%
%TO.N,/A9*%
X167005000Y-123190000D03*
%TO.P,CN1,19,A11*%
%TO.N,/A11*%
X164465000Y-123190000D03*
%TO.P,CN1,21,A7*%
%TO.N,/A7*%
X161925000Y-123190000D03*
%TO.P,CN1,23,A12*%
%TO.N,/A12*%
X159385000Y-123190000D03*
%TO.P,CN1,25,A14*%
%TO.N,/A14*%
X156845000Y-123190000D03*
%TO.P,CN1,27,A1*%
%TO.N,/A1*%
X154305000Y-123190000D03*
%TO.P,CN1,29,A3*%
%TO.N,/A3*%
X151765000Y-123190000D03*
%TO.P,CN1,31,A5*%
%TO.N,/A5*%
X149225000Y-123190000D03*
%TO.P,CN1,33,D1*%
%TO.N,/D1*%
X146685000Y-123190000D03*
%TO.P,CN1,35,D3*%
%TO.N,/D3*%
X144145000Y-123190000D03*
%TO.P,CN1,37,D5*%
%TO.N,/D5*%
X141605000Y-123190000D03*
%TO.P,CN1,39,D7*%
%TO.N,/D7*%
X139065000Y-123190000D03*
%TO.P,CN1,41,GND1*%
%TO.N,GND*%
X136525000Y-123190000D03*
%TO.P,CN1,43,GND2*%
X133985000Y-123190000D03*
%TO.P,CN1,45,+5V1*%
%TO.N,+5V*%
X131445000Y-123190000D03*
%TO.P,CN1,47,+5V2*%
X128905000Y-123190000D03*
%TO.P,CN1,49,SNDIN*%
%TO.N,unconnected-(CN1-SNDIN-Pad49)*%
X126365000Y-123190000D03*
%TD*%
D11*
%TO.P,JP3,1,Pin_1*%
%TO.N,/A15*%
X112965000Y-97145000D03*
D12*
%TO.P,JP3,2,Pin_2*%
%TO.N,/P27*%
X110425000Y-97145000D03*
%TO.P,JP3,3,Pin_3*%
%TO.N,/A14*%
X112965000Y-94605000D03*
%TO.P,JP3,4,Pin_4*%
%TO.N,/P27*%
X110425000Y-94605000D03*
%TO.P,JP3,5,Pin_5*%
%TO.N,+5V*%
X112965000Y-92065000D03*
%TO.P,JP3,6,Pin_6*%
%TO.N,/P27*%
X110425000Y-92065000D03*
%TO.P,JP3,7,Pin_7*%
%TO.N,GND*%
X112965000Y-89525000D03*
%TO.P,JP3,8,Pin_8*%
%TO.N,/P27*%
X110425000Y-89525000D03*
%TD*%
D13*
%TO.P,C2,1*%
%TO.N,+5V*%
X178181000Y-87720000D03*
%TO.P,C2,2*%
%TO.N,GND*%
X178181000Y-82720000D03*
%TD*%
D14*
%TO.P,C1,1*%
%TO.N,+5V*%
X133730000Y-110610000D03*
%TO.P,C1,2*%
%TO.N,GND*%
X133730000Y-113150000D03*
%TD*%
D15*
%TO.P,D1,1,K*%
%TO.N,/~{OE}*%
X193040000Y-63500000D03*
D16*
%TO.P,D1,2,A*%
%TO.N,Net-(D1-A)*%
X190500000Y-63500000D03*
%TD*%
D13*
%TO.P,R1,1*%
%TO.N,+5V*%
X190500000Y-77490000D03*
D17*
%TO.P,R1,2*%
%TO.N,Net-(D1-A)*%
X190500000Y-67330000D03*
%TD*%
D18*
%TO.P,U1,1,A15*%
%TO.N,/P1*%
X173980000Y-72350000D03*
D19*
%TO.P,U1,2,A12*%
%TO.N,/A12*%
X171440000Y-72350000D03*
%TO.P,U1,3,A7*%
%TO.N,/A7*%
X168900000Y-72350000D03*
%TO.P,U1,4,A6*%
%TO.N,/A6*%
X166360000Y-72350000D03*
%TO.P,U1,5,A5*%
%TO.N,/A5*%
X163820000Y-72350000D03*
%TO.P,U1,6,A4*%
%TO.N,/A4*%
X161280000Y-72350000D03*
%TO.P,U1,7,A3*%
%TO.N,/A3*%
X158740000Y-72350000D03*
%TO.P,U1,8,A2*%
%TO.N,/A2*%
X156200000Y-72350000D03*
%TO.P,U1,9,A1*%
%TO.N,/A1*%
X153660000Y-72350000D03*
%TO.P,U1,10,A0*%
%TO.N,/A0*%
X151120000Y-72350000D03*
%TO.P,U1,11,D0*%
%TO.N,/D0*%
X148580000Y-72350000D03*
%TO.P,U1,12,D1*%
%TO.N,/D1*%
X146040000Y-72350000D03*
%TO.P,U1,13,D2*%
%TO.N,/D2*%
X143500000Y-72350000D03*
%TO.P,U1,14,GND*%
%TO.N,GND*%
X140960000Y-72350000D03*
%TO.P,U1,15,D3*%
%TO.N,/D3*%
X140960000Y-87590000D03*
%TO.P,U1,16,D4*%
%TO.N,/D4*%
X143500000Y-87590000D03*
%TO.P,U1,17,D5*%
%TO.N,/D5*%
X146040000Y-87590000D03*
%TO.P,U1,18,D6*%
%TO.N,/D6*%
X148580000Y-87590000D03*
%TO.P,U1,19,D7*%
%TO.N,/D7*%
X151120000Y-87590000D03*
%TO.P,U1,20,~{CE}*%
%TO.N,/~{SLTSL}*%
X153660000Y-87590000D03*
%TO.P,U1,21,A10*%
%TO.N,/A10*%
X156200000Y-87590000D03*
%TO.P,U1,22,~{OE}*%
%TO.N,/~{OE}*%
X158740000Y-87590000D03*
%TO.P,U1,23,A11*%
%TO.N,/A11*%
X161280000Y-87590000D03*
%TO.P,U1,24,A9*%
%TO.N,/A9*%
X163820000Y-87590000D03*
%TO.P,U1,25,A8*%
%TO.N,/A8*%
X166360000Y-87590000D03*
%TO.P,U1,26,A13*%
%TO.N,/A13*%
X168900000Y-87590000D03*
%TO.P,U1,27,A14*%
%TO.N,/P27*%
X171440000Y-87590000D03*
%TO.P,U1,28,VCC*%
%TO.N,+5V*%
X173980000Y-87590000D03*
%TD*%
D11*
%TO.P,JP1,1,Pin_1*%
%TO.N,/A15*%
X112965000Y-71745000D03*
D12*
%TO.P,JP1,2,Pin_2*%
%TO.N,/P1*%
X110425000Y-71745000D03*
%TO.P,JP1,3,Pin_3*%
%TO.N,+5V*%
X112965000Y-69205000D03*
%TO.P,JP1,4,Pin_4*%
%TO.N,/P1*%
X110425000Y-69205000D03*
%TO.P,JP1,5,Pin_5*%
%TO.N,GND*%
X112965000Y-66665000D03*
%TO.P,JP1,6,Pin_6*%
%TO.N,/P1*%
X110425000Y-66665000D03*
%TD*%
D11*
%TO.P,JP2,1,Pin_1*%
%TO.N,/~{RD}*%
X112965000Y-84445000D03*
D12*
%TO.P,JP2,2,Pin_2*%
%TO.N,/~{OE}*%
X110425000Y-84445000D03*
%TO.P,JP2,3,Pin_3*%
%TO.N,/~{CS12}*%
X112965000Y-81905000D03*
%TO.P,JP2,4,Pin_4*%
%TO.N,/~{OE}*%
X110425000Y-81905000D03*
%TO.P,JP2,5,Pin_5*%
%TO.N,/~{CS2}*%
X112965000Y-79365000D03*
%TO.P,JP2,6,Pin_6*%
%TO.N,/~{OE}*%
X110425000Y-79365000D03*
%TO.P,JP2,7,Pin_7*%
%TO.N,/~{CS1}*%
X112965000Y-76825000D03*
%TO.P,JP2,8,Pin_8*%
%TO.N,/~{OE}*%
X110425000Y-76825000D03*
%TD*%
D20*
%TO.N,+5V*%
X132210000Y-105260000D03*
X174000000Y-105300000D03*
X124910000Y-91990000D03*
%TO.N,GND*%
X138684000Y-89662000D03*
X129768600Y-72263000D03*
X138684000Y-82804000D03*
%TO.N,/~{OE}*%
X159893000Y-79756000D03*
X159970000Y-75230000D03*
%TO.N,/A15*%
X131318000Y-97028000D03*
X129750000Y-75680000D03*
X168402000Y-118364000D03*
X170434000Y-100330000D03*
%TO.N,/P1*%
X133570000Y-69910000D03*
%TO.N,/~{CS2}*%
X188722000Y-115316000D03*
X187452000Y-81788000D03*
%TO.N,/~{CS12}*%
X122640000Y-112950000D03*
X183642000Y-116332000D03*
X118550000Y-81905000D03*
%TO.N,/~{RD}*%
X172974000Y-117348000D03*
X175768000Y-84328000D03*
%TO.N,/~{CS1}*%
X182880000Y-78486000D03*
%TO.N,/A14*%
X123690000Y-95090000D03*
X125222000Y-113030000D03*
X156718000Y-113030000D03*
%TO.N,/D3*%
X140970000Y-96012000D03*
X144018000Y-96012000D03*
%TO.N,/D4*%
X142748000Y-118618000D03*
%TO.N,/A5*%
X161798000Y-103378000D03*
X150114000Y-103632000D03*
%TO.N,/A11*%
X161036000Y-110236000D03*
X164323011Y-110236963D03*
%TO.N,/A6*%
X162733667Y-117818500D03*
%TO.N,/A7*%
X170180000Y-92964000D03*
X164084000Y-92964000D03*
%TO.N,/~{SLTSL}*%
X153670000Y-111760000D03*
%TO.N,/D2*%
X145034000Y-118618000D03*
%TO.N,/A10*%
X155702000Y-97282000D03*
X165354000Y-118110000D03*
X165862000Y-99060000D03*
%TO.N,/D7*%
X139065000Y-110236000D03*
X151130000Y-107950000D03*
%TO.N,/D0*%
X147574000Y-118364000D03*
%TO.N,/A2*%
X150876000Y-118364000D03*
X152654000Y-75184000D03*
%TO.N,/A3*%
X157480000Y-107670600D03*
X151892000Y-110490000D03*
%TO.N,/D6*%
X147823701Y-117089701D03*
%TO.N,/A4*%
X157988000Y-117094000D03*
%TO.N,/A0*%
X150368000Y-75946000D03*
X155194000Y-118110000D03*
X141732000Y-76073000D03*
X155727400Y-106807000D03*
X140081000Y-106756200D03*
%TO.N,/A8*%
X166370000Y-94488000D03*
X160274000Y-118110000D03*
X160274000Y-94488000D03*
%TO.N,/A9*%
X163830000Y-91186000D03*
X167132000Y-91186000D03*
%TO.N,/A13*%
X168402000Y-117094000D03*
%TO.N,/A12*%
X171450000Y-115062000D03*
X159512000Y-115570000D03*
%TO.N,/D5*%
X146043000Y-91186000D03*
X142240000Y-91186000D03*
%TD*%
D21*
%TO.N,+5V*%
X124910000Y-97790000D02*
X132210000Y-105090000D01*
X124910000Y-91990000D02*
X124910000Y-97790000D01*
X133730000Y-110610000D02*
X132210000Y-109090000D01*
X117535000Y-69205000D02*
X112965000Y-69205000D01*
X131731000Y-115559000D02*
X131731000Y-112609000D01*
X128905000Y-118385000D02*
X128905000Y-123190000D01*
X132210000Y-105090000D02*
X132210000Y-105260000D01*
X131731000Y-112609000D02*
X133730000Y-110610000D01*
X131445000Y-118205000D02*
X130710000Y-117470000D01*
X124910000Y-91990000D02*
X124910000Y-76580000D01*
X124910000Y-76580000D02*
X117535000Y-69205000D01*
X130710000Y-117470000D02*
X129820000Y-117470000D01*
X174000000Y-105300000D02*
X173980000Y-105280000D01*
X173980000Y-105280000D02*
X173980000Y-87590000D01*
X131731000Y-115559000D02*
X129820000Y-117470000D01*
X129820000Y-117470000D02*
X128905000Y-118385000D01*
X131445000Y-123190000D02*
X131445000Y-118205000D01*
X132210000Y-109090000D02*
X132210000Y-105260000D01*
D22*
%TO.N,GND*%
X138684000Y-72290000D02*
X138684000Y-82804000D01*
X135560000Y-111328000D02*
X133731000Y-113157000D01*
X140963000Y-72290000D02*
X138684000Y-72290000D01*
X136525000Y-115951000D02*
X133731000Y-113157000D01*
X134862000Y-114288000D02*
X133985000Y-115165000D01*
X138684000Y-82804000D02*
X138684000Y-89662000D01*
X135560000Y-106947902D02*
X135560000Y-111328000D01*
D21*
X140936000Y-72263000D02*
X140963000Y-72290000D01*
D22*
X138684000Y-103823902D02*
X135560000Y-106947902D01*
X133985000Y-115165000D02*
X133985000Y-123190000D01*
X138684000Y-89662000D02*
X138684000Y-103823902D01*
X136525000Y-123190000D02*
X136525000Y-115951000D01*
X129768600Y-72263000D02*
X140936000Y-72263000D01*
X133731000Y-113157000D02*
X134862000Y-114288000D01*
%TO.N,Net-(D1-A)*%
X190500000Y-63440000D02*
X190435000Y-63375000D01*
X190500000Y-67330000D02*
X190500000Y-63500000D01*
X190500000Y-63500000D02*
X190500000Y-63440000D01*
%TO.N,/~{OE}*%
X158750000Y-81026000D02*
X159967511Y-79808489D01*
X158750000Y-82149255D02*
X158750000Y-88030744D01*
X158750000Y-82296000D02*
X158750000Y-81026000D01*
X159967511Y-79808489D02*
X159967511Y-75232489D01*
X159967511Y-75232489D02*
X159970000Y-75230000D01*
X110425000Y-76825000D02*
X110425000Y-84445000D01*
%TO.N,/A15*%
X131318000Y-97028000D02*
X131318000Y-77248000D01*
X170688000Y-100584000D02*
X170688000Y-116078000D01*
X170688000Y-116078000D02*
X168402000Y-118364000D01*
X170434000Y-100330000D02*
X170688000Y-100584000D01*
X131318000Y-77248000D02*
X129750000Y-75680000D01*
%TO.N,/P1*%
X110425000Y-65490489D02*
X110425000Y-65278000D01*
X110425000Y-65828744D02*
X110425000Y-65489255D01*
X110425000Y-69205000D02*
X110425000Y-71745000D01*
X110933000Y-64770000D02*
X125975500Y-64770000D01*
X130793800Y-69910000D02*
X133570000Y-69910000D01*
X110425000Y-66665000D02*
X110425000Y-69205000D01*
X110425000Y-65278000D02*
X110933000Y-64770000D01*
X125653800Y-64770000D02*
X130793800Y-69910000D01*
%TO.N,/~{CS2}*%
X188722000Y-83058000D02*
X187452000Y-81788000D01*
X188722000Y-115316000D02*
X188722000Y-83058000D01*
%TO.N,/~{CS12}*%
X183642000Y-116332000D02*
X184785000Y-117549414D01*
X184785000Y-117549414D02*
X184785000Y-123190000D01*
X118550000Y-108860000D02*
X118550000Y-81905000D01*
X122640000Y-112950000D02*
X118550000Y-108860000D01*
%TO.N,/~{RD}*%
X175768000Y-84328000D02*
X175768000Y-114554000D01*
X175768000Y-114554000D02*
X172974000Y-117348000D01*
%TO.N,/~{CS1}*%
X187769521Y-115506479D02*
X187325000Y-115951000D01*
X187325000Y-115951000D02*
X187325000Y-123190000D01*
X182880000Y-78486000D02*
X187769521Y-83375521D01*
X187769521Y-83375521D02*
X187769521Y-115506479D01*
%TO.N,/P27*%
X110425000Y-97145000D02*
X110425000Y-92065000D01*
%TO.N,/A14*%
X156718000Y-113030000D02*
X156845000Y-113157000D01*
X123680000Y-111488000D02*
X123680000Y-95100000D01*
X125222000Y-113030000D02*
X123680000Y-111488000D01*
X123680000Y-95100000D02*
X123690000Y-95090000D01*
X156845000Y-113157000D02*
X156845000Y-123190000D01*
%TO.N,/D3*%
X144145000Y-96139000D02*
X144018000Y-96012000D01*
X140970000Y-96012000D02*
X140963000Y-95751000D01*
X144145000Y-98425000D02*
X144145000Y-96139000D01*
X140963000Y-95751000D02*
X140963000Y-88139000D01*
X144145000Y-123190000D02*
X144145000Y-98425000D01*
%TO.N,/D4*%
X142748000Y-118618000D02*
X142748000Y-93726000D01*
X143503000Y-92971000D02*
X143503000Y-88139000D01*
X142748000Y-93726000D02*
X143503000Y-92971000D01*
%TO.N,/A5*%
X149225000Y-123190000D02*
X149225000Y-118287800D01*
X162507511Y-81459489D02*
X163823000Y-80144000D01*
X161798000Y-103378000D02*
X162507511Y-102668489D01*
X163823000Y-80144000D02*
X163823000Y-72290000D01*
X150114000Y-106502200D02*
X149631400Y-106984800D01*
X150114000Y-103632000D02*
X150114000Y-106502200D01*
X149631400Y-106984800D02*
X149631400Y-117881400D01*
X162507511Y-102668489D02*
X162507511Y-81459489D01*
X149631400Y-117881400D02*
X149225000Y-118287800D01*
%TO.N,/A11*%
X164465000Y-123190000D02*
X164465000Y-110378952D01*
X164465000Y-110378952D02*
X164323011Y-110236963D01*
X161283000Y-89411792D02*
X161283000Y-88139000D01*
X161036000Y-110236000D02*
X161036000Y-89658792D01*
X161036000Y-89658792D02*
X161283000Y-89411792D01*
%TO.N,/D1*%
X147320000Y-92710000D02*
X147320000Y-73567000D01*
X146685000Y-93345000D02*
X147320000Y-92710000D01*
X147320000Y-73567000D02*
X146043000Y-72290000D01*
X146685000Y-123190000D02*
X146685000Y-93345000D01*
%TO.N,/A6*%
X162733667Y-117818500D02*
X162733667Y-117682333D01*
X165047511Y-105081489D02*
X165047511Y-73605489D01*
X162814000Y-107315000D02*
X165047511Y-105081489D01*
X165047511Y-73605489D02*
X166363000Y-72290000D01*
X162733667Y-117682333D02*
X162814000Y-117602000D01*
X162814000Y-117602000D02*
X162814000Y-107315000D01*
%TO.N,/A7*%
X170180000Y-86614000D02*
X168917000Y-85351000D01*
X168903000Y-85351000D02*
X168903000Y-72290000D01*
X163322000Y-103378000D02*
X161925000Y-104775000D01*
X164084000Y-92964000D02*
X163322000Y-93726000D01*
X168917000Y-85351000D02*
X168903000Y-85351000D01*
X163322000Y-93726000D02*
X163322000Y-103378000D01*
X161925000Y-104775000D02*
X161925000Y-123190000D01*
X170180000Y-92964000D02*
X170180000Y-86614000D01*
%TO.N,/~{SLTSL}*%
X153663000Y-111753000D02*
X153663000Y-88139000D01*
X153670000Y-111760000D02*
X153663000Y-111753000D01*
%TO.N,/D2*%
X143503000Y-73526000D02*
X143503000Y-72290000D01*
X145034000Y-92710000D02*
X144780000Y-92456000D01*
X144780000Y-92456000D02*
X144780000Y-74803000D01*
X144780000Y-74803000D02*
X143503000Y-73526000D01*
X145034000Y-118618000D02*
X145034000Y-92710000D01*
%TO.N,/A10*%
X166116000Y-99314000D02*
X165862000Y-99060000D01*
X155702000Y-90170000D02*
X156203000Y-89669000D01*
X166116000Y-108458000D02*
X166116000Y-99314000D01*
X156203000Y-89669000D02*
X156203000Y-88139000D01*
X165354000Y-118110000D02*
X165354000Y-109220000D01*
X155702000Y-97282000D02*
X155702000Y-90170000D01*
X165354000Y-109220000D02*
X166116000Y-108458000D01*
%TO.N,/D7*%
X151123000Y-107943000D02*
X151123000Y-88139000D01*
X151130000Y-107950000D02*
X151123000Y-107943000D01*
X139065000Y-123571000D02*
X139065000Y-110236000D01*
%TO.N,/D0*%
X147574000Y-118364000D02*
X148590000Y-117348000D01*
X149860000Y-80518000D02*
X148583000Y-79241000D01*
X149860000Y-93980000D02*
X149860000Y-80518000D01*
X148590000Y-117348000D02*
X148590000Y-95250000D01*
X148590000Y-95250000D02*
X149860000Y-93980000D01*
X148583000Y-79241000D02*
X148583000Y-72290000D01*
%TO.N,/A2*%
X150876000Y-109474000D02*
X150876000Y-118364000D01*
X152654000Y-75184000D02*
X152400000Y-75438000D01*
X152400000Y-75438000D02*
X152400000Y-107950000D01*
X152400000Y-107950000D02*
X150876000Y-109474000D01*
%TO.N,/A3*%
X157480000Y-79502000D02*
X158743000Y-78239000D01*
X151765000Y-110617000D02*
X151892000Y-110490000D01*
X158743000Y-78239000D02*
X158743000Y-72290000D01*
X157480000Y-107670600D02*
X157480000Y-79502000D01*
X151765000Y-123190000D02*
X151765000Y-110617000D01*
%TO.N,/D6*%
X148583000Y-88139000D02*
X148583000Y-93479000D01*
X147823701Y-94238299D02*
X147823701Y-117089701D01*
X148583000Y-93479000D02*
X147823701Y-94238299D01*
%TO.N,/A4*%
X159004000Y-110744000D02*
X159004000Y-90170000D01*
X157988000Y-117094000D02*
X157988000Y-111760000D01*
X160020000Y-89154000D02*
X160020000Y-81788000D01*
X157988000Y-111760000D02*
X159004000Y-110744000D01*
X160020000Y-81788000D02*
X161283000Y-80525000D01*
X161283000Y-80525000D02*
X161283000Y-72290000D01*
X159004000Y-90170000D02*
X160020000Y-89154000D01*
%TO.N,/A1*%
X154887511Y-89968489D02*
X154887511Y-73514511D01*
X154305000Y-123190000D02*
X154432000Y-123063000D01*
X154887511Y-73514511D02*
X153663000Y-72290000D01*
X154432000Y-123063000D02*
X154432000Y-90424000D01*
X154432000Y-90424000D02*
X154887511Y-89968489D01*
%TO.N,/A0*%
X139738489Y-78066511D02*
X141732000Y-76073000D01*
X151123000Y-72290000D02*
X151123000Y-75191000D01*
X139738489Y-106388289D02*
X139738489Y-78066511D01*
X151123000Y-75191000D02*
X150368000Y-75946000D01*
X140081000Y-106756200D02*
X139738489Y-106388289D01*
X155727400Y-106807000D02*
X155702000Y-117602000D01*
X155702000Y-117602000D02*
X155194000Y-118110000D01*
%TO.N,/A8*%
X160274000Y-112776000D02*
X159766000Y-112268000D01*
X166363000Y-94495000D02*
X166363000Y-88139000D01*
X159766000Y-94996000D02*
X160274000Y-94488000D01*
X159766000Y-112268000D02*
X159766000Y-94996000D01*
X160274000Y-118110000D02*
X160274000Y-112776000D01*
X166370000Y-94488000D02*
X166363000Y-94495000D01*
%TO.N,/A9*%
X167132000Y-123063000D02*
X167005000Y-123190000D01*
X167132000Y-91186000D02*
X167132000Y-123063000D01*
X163830000Y-91186000D02*
X163823000Y-91179000D01*
X163823000Y-91179000D02*
X163823000Y-88139000D01*
%TO.N,/A13*%
X168903000Y-88139000D02*
X168903000Y-116593000D01*
X168903000Y-116593000D02*
X168402000Y-117094000D01*
%TO.N,/A12*%
X172667511Y-113844489D02*
X172667511Y-86053511D01*
X171450000Y-115062000D02*
X172667511Y-113844489D01*
X159385000Y-115697000D02*
X159512000Y-115570000D01*
X171443000Y-84829000D02*
X171443000Y-72289000D01*
X159385000Y-123190000D02*
X159385000Y-115697000D01*
X172667511Y-86053511D02*
X171443000Y-84829000D01*
%TO.N,/D5*%
X146043000Y-91186000D02*
X146043000Y-88139000D01*
X141732000Y-91694000D02*
X142240000Y-91186000D01*
X141732000Y-123063000D02*
X141732000Y-91694000D01*
X141605000Y-123190000D02*
X141732000Y-123063000D01*
%TD*%
%TA.AperFunction,Conductor*%
%TO.N,GND*%
G36*
X200226431Y-61685502D02*
G01*
X200247405Y-61702405D01*
X203152595Y-64607595D01*
X203186621Y-64669907D01*
X203189500Y-64696690D01*
X203189500Y-113798310D01*
X203169498Y-113866431D01*
X203152595Y-113887405D01*
X200247405Y-116792595D01*
X200185093Y-116826621D01*
X200158310Y-116829500D01*
X189225649Y-116829500D01*
X189219500Y-116835649D01*
X189219500Y-118068310D01*
X189199498Y-118136431D01*
X189182599Y-118157400D01*
X188786073Y-118553927D01*
X188400462Y-118939538D01*
X188338150Y-118973563D01*
X188267334Y-118968498D01*
X188235859Y-118951310D01*
X188206204Y-118929111D01*
X188206202Y-118929110D01*
X188069204Y-118878011D01*
X188061526Y-118876197D01*
X188061940Y-118874442D01*
X188005436Y-118851035D01*
X187964947Y-118792716D01*
X187958500Y-118752929D01*
X187958500Y-116265594D01*
X187978502Y-116197473D01*
X187995399Y-116176504D01*
X188073049Y-116098854D01*
X188135357Y-116064832D01*
X188206173Y-116069896D01*
X188236201Y-116086015D01*
X188265244Y-116107116D01*
X188265247Y-116107117D01*
X188265248Y-116107118D01*
X188439712Y-116184794D01*
X188626513Y-116224500D01*
X188817487Y-116224500D01*
X189004288Y-116184794D01*
X189178752Y-116107118D01*
X189333253Y-115994866D01*
X189355192Y-115970500D01*
X189461034Y-115852951D01*
X189461035Y-115852949D01*
X189461040Y-115852944D01*
X189556527Y-115687556D01*
X189615542Y-115505928D01*
X189635504Y-115316000D01*
X189615542Y-115126072D01*
X189556527Y-114944444D01*
X189461040Y-114779056D01*
X189387863Y-114697784D01*
X189357146Y-114633776D01*
X189355500Y-114613474D01*
X189355500Y-82995607D01*
X189355499Y-82995603D01*
X189331155Y-82873215D01*
X189283400Y-82757925D01*
X189214071Y-82654167D01*
X189125833Y-82565929D01*
X188399122Y-81839218D01*
X188365096Y-81776906D01*
X188362907Y-81763293D01*
X188356881Y-81705962D01*
X188345542Y-81598072D01*
X188286527Y-81416444D01*
X188191040Y-81251056D01*
X188191038Y-81251054D01*
X188191034Y-81251048D01*
X188063255Y-81109135D01*
X187908752Y-80996882D01*
X187734288Y-80919206D01*
X187547487Y-80879500D01*
X187356513Y-80879500D01*
X187169711Y-80919206D01*
X186995247Y-80996882D01*
X186840744Y-81109135D01*
X186720311Y-81242891D01*
X186659865Y-81280131D01*
X186588882Y-81278779D01*
X186537580Y-81247676D01*
X183827122Y-78537218D01*
X183793096Y-78474906D01*
X183790907Y-78461293D01*
X183775319Y-78312984D01*
X183773542Y-78296072D01*
X183714527Y-78114444D01*
X183619040Y-77949056D01*
X183619038Y-77949054D01*
X183619034Y-77949048D01*
X183491255Y-77807135D01*
X183336752Y-77694882D01*
X183162288Y-77617206D01*
X182975487Y-77577500D01*
X182784513Y-77577500D01*
X182597711Y-77617206D01*
X182423247Y-77694882D01*
X182268744Y-77807135D01*
X182140965Y-77949048D01*
X182140958Y-77949058D01*
X182045476Y-78114438D01*
X182045473Y-78114445D01*
X181986457Y-78296072D01*
X181966496Y-78486000D01*
X181986457Y-78675927D01*
X182004036Y-78730028D01*
X182045473Y-78857556D01*
X182045476Y-78857561D01*
X182140958Y-79022941D01*
X182140965Y-79022951D01*
X182268744Y-79164864D01*
X182268747Y-79164866D01*
X182423248Y-79277118D01*
X182597712Y-79354794D01*
X182784513Y-79394500D01*
X182840406Y-79394500D01*
X182908527Y-79414502D01*
X182929501Y-79431405D01*
X187099116Y-83601020D01*
X187133142Y-83663332D01*
X187136021Y-83690115D01*
X187136021Y-109122747D01*
X187116019Y-109190868D01*
X187062363Y-109237361D01*
X186992089Y-109247465D01*
X186927509Y-109217971D01*
X186920926Y-109211842D01*
X186747307Y-109038223D01*
X186510164Y-108849108D01*
X186253345Y-108687737D01*
X186253336Y-108687732D01*
X185980074Y-108556136D01*
X185980069Y-108556134D01*
X185980065Y-108556132D01*
X185980059Y-108556129D01*
X185980047Y-108556125D01*
X185693778Y-108455955D01*
X185398067Y-108388460D01*
X185096658Y-108354500D01*
X185096657Y-108354500D01*
X184793343Y-108354500D01*
X184793342Y-108354500D01*
X184491932Y-108388460D01*
X184196221Y-108455955D01*
X183909952Y-108556125D01*
X183909925Y-108556136D01*
X183636663Y-108687732D01*
X183636654Y-108687737D01*
X183379835Y-108849108D01*
X183142692Y-109038223D01*
X182928223Y-109252692D01*
X182739108Y-109489835D01*
X182577737Y-109746654D01*
X182577732Y-109746663D01*
X182446136Y-110019925D01*
X182446125Y-110019952D01*
X182345955Y-110306221D01*
X182278460Y-110601932D01*
X182244500Y-110903342D01*
X182244500Y-111206657D01*
X182278460Y-111508067D01*
X182345955Y-111803778D01*
X182446125Y-112090047D01*
X182446136Y-112090074D01*
X182577732Y-112363336D01*
X182577737Y-112363345D01*
X182739108Y-112620164D01*
X182928223Y-112857307D01*
X183142692Y-113071776D01*
X183142696Y-113071779D01*
X183379836Y-113260892D01*
X183636659Y-113422265D01*
X183909935Y-113553868D01*
X183909951Y-113553873D01*
X183909952Y-113553874D01*
X184196221Y-113654044D01*
X184196224Y-113654044D01*
X184196228Y-113654046D01*
X184415095Y-113704001D01*
X184491932Y-113721539D01*
X184491933Y-113721539D01*
X184491937Y-113721540D01*
X184731518Y-113748534D01*
X184793342Y-113755500D01*
X184793343Y-113755500D01*
X185096658Y-113755500D01*
X185147958Y-113749719D01*
X185398063Y-113721540D01*
X185693772Y-113654046D01*
X185980065Y-113553868D01*
X186253341Y-113422265D01*
X186510164Y-113260892D01*
X186747304Y-113071779D01*
X186831830Y-112987253D01*
X186920926Y-112898158D01*
X186983238Y-112864132D01*
X187054053Y-112869197D01*
X187110889Y-112911744D01*
X187135700Y-112978264D01*
X187136021Y-112987253D01*
X187136021Y-115191883D01*
X187116019Y-115260004D01*
X187099117Y-115280978D01*
X186921167Y-115458929D01*
X186832927Y-115547169D01*
X186832926Y-115547171D01*
X186763601Y-115650923D01*
X186717009Y-115763406D01*
X186715845Y-115766215D01*
X186710110Y-115795048D01*
X186691500Y-115888603D01*
X186691500Y-118752929D01*
X186671498Y-118821050D01*
X186617842Y-118867543D01*
X186588341Y-118875636D01*
X186588474Y-118876197D01*
X186580795Y-118878011D01*
X186443797Y-118929110D01*
X186443792Y-118929112D01*
X186326738Y-119016738D01*
X186239112Y-119133792D01*
X186239110Y-119133797D01*
X186188011Y-119270795D01*
X186186197Y-119278474D01*
X186184024Y-119277960D01*
X186161191Y-119333071D01*
X186102869Y-119373556D01*
X186063090Y-119380000D01*
X186046910Y-119380000D01*
X185978789Y-119359998D01*
X185932296Y-119306342D01*
X185924597Y-119278286D01*
X185923803Y-119278474D01*
X185921988Y-119270795D01*
X185870978Y-119134035D01*
X185870889Y-119133796D01*
X185870888Y-119133794D01*
X185870887Y-119133792D01*
X185783261Y-119016738D01*
X185666207Y-118929112D01*
X185666202Y-118929110D01*
X185529204Y-118878011D01*
X185521526Y-118876197D01*
X185521940Y-118874442D01*
X185465436Y-118851035D01*
X185424947Y-118792716D01*
X185418500Y-118752929D01*
X185418500Y-117561354D01*
X185418563Y-117557384D01*
X185419429Y-117529904D01*
X185420151Y-117507013D01*
X185420148Y-117506999D01*
X185420027Y-117505167D01*
X185418675Y-117488798D01*
X185418500Y-117487029D01*
X185418500Y-117487020D01*
X185408651Y-117437507D01*
X185407946Y-117433640D01*
X185399675Y-117383917D01*
X185399192Y-117382125D01*
X185394700Y-117366429D01*
X185394154Y-117364627D01*
X185387267Y-117348000D01*
X185374851Y-117318028D01*
X185373401Y-117314364D01*
X185366759Y-117296780D01*
X185355577Y-117267178D01*
X185355575Y-117267174D01*
X185354762Y-117265531D01*
X185347258Y-117250944D01*
X185346400Y-117249339D01*
X185318392Y-117207422D01*
X185316238Y-117204086D01*
X185312290Y-117197755D01*
X185289552Y-117161287D01*
X185289549Y-117161284D01*
X185288459Y-117159866D01*
X185278228Y-117146991D01*
X185277073Y-117145583D01*
X185277071Y-117145581D01*
X185241412Y-117109922D01*
X185238679Y-117107102D01*
X184589645Y-116415812D01*
X184557601Y-116352458D01*
X184556327Y-116338553D01*
X184556194Y-116338567D01*
X184552560Y-116303995D01*
X184535542Y-116142072D01*
X184476527Y-115960444D01*
X184381040Y-115795056D01*
X184381038Y-115795054D01*
X184381034Y-115795048D01*
X184253255Y-115653135D01*
X184098752Y-115540882D01*
X183924288Y-115463206D01*
X183737487Y-115423500D01*
X183546513Y-115423500D01*
X183359711Y-115463206D01*
X183185247Y-115540882D01*
X183030744Y-115653135D01*
X182902965Y-115795048D01*
X182902958Y-115795058D01*
X182807476Y-115960438D01*
X182807473Y-115960445D01*
X182748457Y-116142072D01*
X182728496Y-116332000D01*
X182748457Y-116521927D01*
X182773637Y-116599421D01*
X182807473Y-116703556D01*
X182807476Y-116703561D01*
X182902958Y-116868941D01*
X182902965Y-116868951D01*
X183030744Y-117010864D01*
X183030747Y-117010866D01*
X183185248Y-117123118D01*
X183359712Y-117200794D01*
X183546513Y-117240500D01*
X183571480Y-117240500D01*
X183639601Y-117260502D01*
X183663338Y-117280255D01*
X184075785Y-117719554D01*
X184117359Y-117763834D01*
X184149403Y-117827188D01*
X184151500Y-117850078D01*
X184151500Y-118752929D01*
X184131498Y-118821050D01*
X184077842Y-118867543D01*
X184048341Y-118875636D01*
X184048474Y-118876197D01*
X184040795Y-118878011D01*
X183903797Y-118929110D01*
X183903792Y-118929112D01*
X183786738Y-119016738D01*
X183699112Y-119133792D01*
X183699110Y-119133797D01*
X183648011Y-119270795D01*
X183646197Y-119278474D01*
X183644024Y-119277960D01*
X183621191Y-119333071D01*
X183562869Y-119373556D01*
X183523090Y-119380000D01*
X183506910Y-119380000D01*
X183438789Y-119359998D01*
X183392296Y-119306342D01*
X183384597Y-119278286D01*
X183383803Y-119278474D01*
X183381988Y-119270795D01*
X183330978Y-119134035D01*
X183330889Y-119133796D01*
X183330888Y-119133794D01*
X183330887Y-119133792D01*
X183243261Y-119016738D01*
X183126207Y-118929112D01*
X183126202Y-118929110D01*
X182989204Y-118878011D01*
X182989196Y-118878009D01*
X182928649Y-118871500D01*
X182928638Y-118871500D01*
X181561362Y-118871500D01*
X181561350Y-118871500D01*
X181500803Y-118878009D01*
X181500795Y-118878011D01*
X181363797Y-118929110D01*
X181363792Y-118929112D01*
X181246738Y-119016738D01*
X181159112Y-119133792D01*
X181159110Y-119133797D01*
X181108011Y-119270795D01*
X181106197Y-119278474D01*
X181104024Y-119277960D01*
X181081191Y-119333071D01*
X181022869Y-119373556D01*
X180983090Y-119380000D01*
X180966910Y-119380000D01*
X180898789Y-119359998D01*
X180852296Y-119306342D01*
X180844597Y-119278286D01*
X180843803Y-119278474D01*
X180841988Y-119270795D01*
X180790978Y-119134035D01*
X180790889Y-119133796D01*
X180790888Y-119133794D01*
X180790887Y-119133792D01*
X180703261Y-119016738D01*
X180586207Y-118929112D01*
X180586202Y-118929110D01*
X180449204Y-118878011D01*
X180449196Y-118878009D01*
X180388649Y-118871500D01*
X180388638Y-118871500D01*
X179021362Y-118871500D01*
X179021350Y-118871500D01*
X178960803Y-118878009D01*
X178960795Y-118878011D01*
X178823797Y-118929110D01*
X178823792Y-118929112D01*
X178706738Y-119016738D01*
X178619112Y-119133792D01*
X178619110Y-119133797D01*
X178568011Y-119270795D01*
X178566197Y-119278474D01*
X178564024Y-119277960D01*
X178541191Y-119333071D01*
X178482869Y-119373556D01*
X178443090Y-119380000D01*
X178426910Y-119380000D01*
X178358789Y-119359998D01*
X178312296Y-119306342D01*
X178304597Y-119278286D01*
X178303803Y-119278474D01*
X178301988Y-119270795D01*
X178250978Y-119134035D01*
X178250889Y-119133796D01*
X178250888Y-119133794D01*
X178250887Y-119133792D01*
X178163261Y-119016738D01*
X178046207Y-118929112D01*
X178046202Y-118929110D01*
X177909204Y-118878011D01*
X177909196Y-118878009D01*
X177848649Y-118871500D01*
X177848638Y-118871500D01*
X176481362Y-118871500D01*
X176481350Y-118871500D01*
X176420803Y-118878009D01*
X176420795Y-118878011D01*
X176283797Y-118929110D01*
X176283792Y-118929112D01*
X176166738Y-119016738D01*
X176079112Y-119133792D01*
X176079110Y-119133797D01*
X176028011Y-119270795D01*
X176026197Y-119278474D01*
X176024024Y-119277960D01*
X176001191Y-119333071D01*
X175942869Y-119373556D01*
X175903090Y-119380000D01*
X175886910Y-119380000D01*
X175818789Y-119359998D01*
X175772296Y-119306342D01*
X175764597Y-119278286D01*
X175763803Y-119278474D01*
X175761988Y-119270795D01*
X175710978Y-119134035D01*
X175710889Y-119133796D01*
X175710888Y-119133794D01*
X175710887Y-119133792D01*
X175623261Y-119016738D01*
X175506207Y-118929112D01*
X175506202Y-118929110D01*
X175369204Y-118878011D01*
X175369196Y-118878009D01*
X175308649Y-118871500D01*
X175308638Y-118871500D01*
X173941362Y-118871500D01*
X173941350Y-118871500D01*
X173880803Y-118878009D01*
X173880795Y-118878011D01*
X173743797Y-118929110D01*
X173743792Y-118929112D01*
X173626738Y-119016738D01*
X173539112Y-119133792D01*
X173539110Y-119133797D01*
X173488011Y-119270795D01*
X173486197Y-119278474D01*
X173484024Y-119277960D01*
X173461191Y-119333071D01*
X173402869Y-119373556D01*
X173363090Y-119380000D01*
X173346910Y-119380000D01*
X173278789Y-119359998D01*
X173232296Y-119306342D01*
X173224597Y-119278286D01*
X173223803Y-119278474D01*
X173221988Y-119270795D01*
X173170978Y-119134035D01*
X173170889Y-119133796D01*
X173170888Y-119133794D01*
X173170887Y-119133792D01*
X173083261Y-119016738D01*
X172966207Y-118929112D01*
X172966202Y-118929110D01*
X172829204Y-118878011D01*
X172829196Y-118878009D01*
X172768649Y-118871500D01*
X172768638Y-118871500D01*
X171401362Y-118871500D01*
X171401350Y-118871500D01*
X171340803Y-118878009D01*
X171340795Y-118878011D01*
X171203797Y-118929110D01*
X171203792Y-118929112D01*
X171086738Y-119016738D01*
X170999112Y-119133792D01*
X170999110Y-119133797D01*
X170948011Y-119270795D01*
X170946197Y-119278474D01*
X170944024Y-119277960D01*
X170921191Y-119333071D01*
X170862869Y-119373556D01*
X170823090Y-119380000D01*
X170806910Y-119380000D01*
X170738789Y-119359998D01*
X170692296Y-119306342D01*
X170684597Y-119278286D01*
X170683803Y-119278474D01*
X170681988Y-119270795D01*
X170630978Y-119134035D01*
X170630889Y-119133796D01*
X170630888Y-119133794D01*
X170630887Y-119133792D01*
X170543261Y-119016738D01*
X170426207Y-118929112D01*
X170426202Y-118929110D01*
X170289204Y-118878011D01*
X170289196Y-118878009D01*
X170228649Y-118871500D01*
X170228638Y-118871500D01*
X169365780Y-118871500D01*
X169297659Y-118851498D01*
X169251166Y-118797842D01*
X169241062Y-118727568D01*
X169245947Y-118706563D01*
X169246879Y-118703697D01*
X169295542Y-118553928D01*
X169312907Y-118388703D01*
X169339920Y-118323048D01*
X169349104Y-118312798D01*
X171180071Y-116481833D01*
X171249400Y-116378075D01*
X171297155Y-116262785D01*
X171321500Y-116140394D01*
X171321500Y-116096500D01*
X171341502Y-116028379D01*
X171395158Y-115981886D01*
X171447500Y-115970500D01*
X171545487Y-115970500D01*
X171732288Y-115930794D01*
X171906752Y-115853118D01*
X172061253Y-115740866D01*
X172109249Y-115687561D01*
X172189034Y-115598951D01*
X172189035Y-115598949D01*
X172189040Y-115598944D01*
X172284527Y-115433556D01*
X172343542Y-115251928D01*
X172360907Y-115086705D01*
X172387919Y-115021052D01*
X172397112Y-115010792D01*
X173159583Y-114248322D01*
X173228912Y-114144564D01*
X173276666Y-114029273D01*
X173301011Y-113906882D01*
X173301011Y-113782095D01*
X173301011Y-106162411D01*
X173321013Y-106094290D01*
X173374669Y-106047797D01*
X173444943Y-106037693D01*
X173501071Y-106060474D01*
X173543248Y-106091118D01*
X173717712Y-106168794D01*
X173904513Y-106208500D01*
X174095487Y-106208500D01*
X174282288Y-106168794D01*
X174456752Y-106091118D01*
X174611253Y-105978866D01*
X174611255Y-105978864D01*
X174739034Y-105836951D01*
X174739035Y-105836949D01*
X174739040Y-105836944D01*
X174834527Y-105671556D01*
X174888667Y-105504930D01*
X174928741Y-105446326D01*
X174994138Y-105418689D01*
X175064094Y-105430796D01*
X175116400Y-105478802D01*
X175134500Y-105543868D01*
X175134500Y-114239405D01*
X175114498Y-114307526D01*
X175097595Y-114328500D01*
X173023501Y-116402595D01*
X172961189Y-116436620D01*
X172934406Y-116439500D01*
X172878513Y-116439500D01*
X172691711Y-116479206D01*
X172517247Y-116556882D01*
X172362744Y-116669135D01*
X172234965Y-116811048D01*
X172234958Y-116811058D01*
X172139476Y-116976438D01*
X172139473Y-116976445D01*
X172080457Y-117158072D01*
X172060496Y-117348000D01*
X172080457Y-117537927D01*
X172096240Y-117586501D01*
X172139473Y-117719556D01*
X172139476Y-117719561D01*
X172234958Y-117884941D01*
X172234965Y-117884951D01*
X172362744Y-118026864D01*
X172411303Y-118062144D01*
X172517248Y-118139118D01*
X172691712Y-118216794D01*
X172878513Y-118256500D01*
X173069487Y-118256500D01*
X173256288Y-118216794D01*
X173430752Y-118139118D01*
X173585253Y-118026866D01*
X173601855Y-118008428D01*
X173713034Y-117884951D01*
X173713035Y-117884949D01*
X173713040Y-117884944D01*
X173808527Y-117719556D01*
X173867542Y-117537928D01*
X173884907Y-117372704D01*
X173911920Y-117307049D01*
X173921104Y-117296799D01*
X176260072Y-114957833D01*
X176329401Y-114854075D01*
X176377155Y-114738784D01*
X176386771Y-114690444D01*
X176401500Y-114616394D01*
X176401500Y-87720000D01*
X176867502Y-87720000D01*
X176887457Y-87948086D01*
X176946715Y-88169240D01*
X176946717Y-88169246D01*
X176997018Y-88277117D01*
X177043477Y-88376749D01*
X177174802Y-88564300D01*
X177336700Y-88726198D01*
X177524251Y-88857523D01*
X177731757Y-88954284D01*
X177952913Y-89013543D01*
X178181000Y-89033498D01*
X178409087Y-89013543D01*
X178630243Y-88954284D01*
X178837749Y-88857523D01*
X179025300Y-88726198D01*
X179187198Y-88564300D01*
X179318523Y-88376749D01*
X179415284Y-88169243D01*
X179474543Y-87948087D01*
X179494498Y-87720000D01*
X179474543Y-87491913D01*
X179415284Y-87270757D01*
X179318523Y-87063251D01*
X179187198Y-86875700D01*
X179025300Y-86713802D01*
X178837749Y-86582477D01*
X178630246Y-86485717D01*
X178630240Y-86485715D01*
X178536771Y-86460670D01*
X178409087Y-86426457D01*
X178181000Y-86406502D01*
X177952913Y-86426457D01*
X177731759Y-86485715D01*
X177731753Y-86485717D01*
X177524250Y-86582477D01*
X177336703Y-86713799D01*
X177336697Y-86713804D01*
X177174804Y-86875697D01*
X177174799Y-86875703D01*
X177043477Y-87063250D01*
X176946717Y-87270753D01*
X176946715Y-87270759D01*
X176887457Y-87491913D01*
X176867502Y-87720000D01*
X176401500Y-87720000D01*
X176401500Y-85030524D01*
X176421502Y-84962403D01*
X176433858Y-84946220D01*
X176507040Y-84864944D01*
X176602527Y-84699556D01*
X176661542Y-84517928D01*
X176681504Y-84328000D01*
X176661542Y-84138072D01*
X176602527Y-83956444D01*
X176507040Y-83791056D01*
X176507038Y-83791054D01*
X176507034Y-83791048D01*
X176379255Y-83649135D01*
X176224752Y-83536882D01*
X176050288Y-83459206D01*
X175863487Y-83419500D01*
X175672513Y-83419500D01*
X175485711Y-83459206D01*
X175311247Y-83536882D01*
X175156744Y-83649135D01*
X175028965Y-83791048D01*
X175028958Y-83791058D01*
X174933476Y-83956438D01*
X174933473Y-83956445D01*
X174874457Y-84138072D01*
X174854496Y-84328000D01*
X174874457Y-84517927D01*
X174882016Y-84541189D01*
X174933473Y-84699556D01*
X175028960Y-84864944D01*
X175102137Y-84946215D01*
X175132853Y-85010220D01*
X175134500Y-85030524D01*
X175134500Y-86148390D01*
X175114498Y-86216511D01*
X175060842Y-86263004D01*
X174990568Y-86273108D01*
X174925988Y-86243614D01*
X174919405Y-86237485D01*
X174897578Y-86215658D01*
X174718218Y-86085345D01*
X174718217Y-86085344D01*
X174718215Y-86085343D01*
X174520676Y-85984692D01*
X174520673Y-85984691D01*
X174520671Y-85984690D01*
X174309829Y-85916183D01*
X174309825Y-85916182D01*
X174309824Y-85916182D01*
X174090851Y-85881500D01*
X173869149Y-85881500D01*
X173665386Y-85913773D01*
X173650170Y-85916183D01*
X173443059Y-85983478D01*
X173372091Y-85985505D01*
X173311294Y-85948843D01*
X173280544Y-85888226D01*
X173276666Y-85868726D01*
X173228911Y-85753436D01*
X173159582Y-85649678D01*
X173071344Y-85561440D01*
X172113405Y-84603501D01*
X172079379Y-84541189D01*
X172076500Y-84514406D01*
X172076500Y-82720000D01*
X176868004Y-82720000D01*
X176887951Y-82948002D01*
X176947186Y-83169068D01*
X176947188Y-83169073D01*
X177043913Y-83376501D01*
X177093899Y-83447888D01*
X177781000Y-82760788D01*
X177781000Y-82772661D01*
X177808259Y-82874394D01*
X177860920Y-82965606D01*
X177935394Y-83040080D01*
X178026606Y-83092741D01*
X178128339Y-83120000D01*
X178140210Y-83120000D01*
X177453110Y-83807098D01*
X177453110Y-83807100D01*
X177524498Y-83857086D01*
X177731926Y-83953811D01*
X177731931Y-83953813D01*
X177952999Y-84013048D01*
X177952995Y-84013048D01*
X178181000Y-84032995D01*
X178409002Y-84013048D01*
X178630068Y-83953813D01*
X178630073Y-83953811D01*
X178837497Y-83857088D01*
X178908888Y-83807099D01*
X178908888Y-83807097D01*
X178221791Y-83120000D01*
X178233661Y-83120000D01*
X178335394Y-83092741D01*
X178426606Y-83040080D01*
X178501080Y-82965606D01*
X178553741Y-82874394D01*
X178581000Y-82772661D01*
X178581000Y-82760791D01*
X179268097Y-83447888D01*
X179268099Y-83447888D01*
X179318088Y-83376497D01*
X179414811Y-83169073D01*
X179414813Y-83169068D01*
X179474048Y-82948002D01*
X179493995Y-82720000D01*
X179474048Y-82491997D01*
X179414813Y-82270931D01*
X179414811Y-82270926D01*
X179318086Y-82063498D01*
X179268100Y-81992110D01*
X179268098Y-81992110D01*
X178581000Y-82679208D01*
X178581000Y-82667339D01*
X178553741Y-82565606D01*
X178501080Y-82474394D01*
X178426606Y-82399920D01*
X178335394Y-82347259D01*
X178233661Y-82320000D01*
X178221790Y-82320000D01*
X178908888Y-81632899D01*
X178908888Y-81632898D01*
X178837501Y-81582913D01*
X178630073Y-81486188D01*
X178630068Y-81486186D01*
X178409000Y-81426951D01*
X178409004Y-81426951D01*
X178181000Y-81407004D01*
X177952997Y-81426951D01*
X177731931Y-81486186D01*
X177731926Y-81486188D01*
X177524500Y-81582913D01*
X177453109Y-81632900D01*
X178140209Y-82320000D01*
X178128339Y-82320000D01*
X178026606Y-82347259D01*
X177935394Y-82399920D01*
X177860920Y-82474394D01*
X177808259Y-82565606D01*
X177781000Y-82667339D01*
X177781000Y-82679209D01*
X177093900Y-81992109D01*
X177043913Y-82063500D01*
X176947188Y-82270926D01*
X176947186Y-82270931D01*
X176887951Y-82491997D01*
X176868004Y-82720000D01*
X172076500Y-82720000D01*
X172076500Y-77490000D01*
X189186502Y-77490000D01*
X189201573Y-77662268D01*
X189206457Y-77718086D01*
X189265715Y-77939240D01*
X189265717Y-77939246D01*
X189362477Y-78146749D01*
X189416436Y-78223811D01*
X189493802Y-78334300D01*
X189655700Y-78496198D01*
X189843251Y-78627523D01*
X190050757Y-78724284D01*
X190271913Y-78783543D01*
X190500000Y-78803498D01*
X190728087Y-78783543D01*
X190949243Y-78724284D01*
X191156749Y-78627523D01*
X191344300Y-78496198D01*
X191506198Y-78334300D01*
X191637523Y-78146749D01*
X191734284Y-77939243D01*
X191793543Y-77718087D01*
X191813498Y-77490000D01*
X191793543Y-77261913D01*
X191734284Y-77040757D01*
X191637523Y-76833251D01*
X191506198Y-76645700D01*
X191344300Y-76483802D01*
X191343070Y-76482941D01*
X191156749Y-76352477D01*
X190949246Y-76255717D01*
X190949240Y-76255715D01*
X190804545Y-76216944D01*
X190728087Y-76196457D01*
X190500000Y-76176502D01*
X190271913Y-76196457D01*
X190050759Y-76255715D01*
X190050753Y-76255717D01*
X189843250Y-76352477D01*
X189655703Y-76483799D01*
X189655697Y-76483804D01*
X189493804Y-76645697D01*
X189493799Y-76645703D01*
X189362477Y-76833250D01*
X189265717Y-77040753D01*
X189265715Y-77040759D01*
X189226903Y-77185607D01*
X189206457Y-77261913D01*
X189186502Y-77490000D01*
X172076500Y-77490000D01*
X172076500Y-73983695D01*
X172096502Y-73915574D01*
X172145297Y-73871429D01*
X172178215Y-73854657D01*
X172357576Y-73724343D01*
X172397189Y-73684730D01*
X172459500Y-73650704D01*
X172530316Y-73655768D01*
X172587152Y-73698314D01*
X172604337Y-73729785D01*
X172629111Y-73796204D01*
X172629112Y-73796205D01*
X172629113Y-73796208D01*
X172716738Y-73913261D01*
X172833792Y-74000887D01*
X172833794Y-74000888D01*
X172833796Y-74000889D01*
X172873425Y-74015670D01*
X172970795Y-74051988D01*
X172970803Y-74051990D01*
X173031350Y-74058499D01*
X173031355Y-74058499D01*
X173031362Y-74058500D01*
X173031368Y-74058500D01*
X174928632Y-74058500D01*
X174928638Y-74058500D01*
X174928645Y-74058499D01*
X174928649Y-74058499D01*
X174989196Y-74051990D01*
X174989199Y-74051989D01*
X174989201Y-74051989D01*
X175126204Y-74000889D01*
X175145088Y-73986753D01*
X175243261Y-73913261D01*
X175330887Y-73796207D01*
X175330887Y-73796206D01*
X175330889Y-73796204D01*
X175381989Y-73659201D01*
X175382023Y-73658890D01*
X175388499Y-73598649D01*
X175388500Y-73598632D01*
X175388500Y-71101367D01*
X175388499Y-71101350D01*
X175381990Y-71040803D01*
X175381988Y-71040795D01*
X175352924Y-70962875D01*
X175330889Y-70903796D01*
X175330888Y-70903794D01*
X175330887Y-70903792D01*
X175243261Y-70786738D01*
X175126207Y-70699112D01*
X175126202Y-70699110D01*
X174989204Y-70648011D01*
X174989196Y-70648009D01*
X174928649Y-70641500D01*
X174928638Y-70641500D01*
X173031362Y-70641500D01*
X173031350Y-70641500D01*
X172970803Y-70648009D01*
X172970795Y-70648011D01*
X172833797Y-70699110D01*
X172833792Y-70699112D01*
X172716738Y-70786738D01*
X172629112Y-70903792D01*
X172629110Y-70903797D01*
X172604340Y-70970208D01*
X172561793Y-71027044D01*
X172495273Y-71051854D01*
X172425899Y-71036762D01*
X172397190Y-71015270D01*
X172357578Y-70975658D01*
X172178218Y-70845345D01*
X172178217Y-70845344D01*
X172178215Y-70845343D01*
X171980676Y-70744692D01*
X171980673Y-70744691D01*
X171980671Y-70744690D01*
X171769829Y-70676183D01*
X171769825Y-70676182D01*
X171769824Y-70676182D01*
X171550851Y-70641500D01*
X171329149Y-70641500D01*
X171110176Y-70676182D01*
X171110170Y-70676183D01*
X170899328Y-70744690D01*
X170899322Y-70744693D01*
X170701781Y-70845345D01*
X170522421Y-70975658D01*
X170365658Y-71132421D01*
X170271936Y-71261419D01*
X170215713Y-71304773D01*
X170144977Y-71310848D01*
X170082185Y-71277716D01*
X170068064Y-71261419D01*
X169974341Y-71132421D01*
X169817578Y-70975658D01*
X169638218Y-70845345D01*
X169638217Y-70845344D01*
X169638215Y-70845343D01*
X169440676Y-70744692D01*
X169440673Y-70744691D01*
X169440671Y-70744690D01*
X169229829Y-70676183D01*
X169229825Y-70676182D01*
X169229824Y-70676182D01*
X169010851Y-70641500D01*
X168789149Y-70641500D01*
X168570176Y-70676182D01*
X168570170Y-70676183D01*
X168359328Y-70744690D01*
X168359322Y-70744693D01*
X168161781Y-70845345D01*
X167982421Y-70975658D01*
X167825658Y-71132421D01*
X167731936Y-71261419D01*
X167675713Y-71304773D01*
X167604977Y-71310848D01*
X167542185Y-71277716D01*
X167528064Y-71261419D01*
X167434341Y-71132421D01*
X167277578Y-70975658D01*
X167098218Y-70845345D01*
X167098217Y-70845344D01*
X167098215Y-70845343D01*
X166900676Y-70744692D01*
X166900673Y-70744691D01*
X166900671Y-70744690D01*
X166689829Y-70676183D01*
X166689825Y-70676182D01*
X166689824Y-70676182D01*
X166470851Y-70641500D01*
X166249149Y-70641500D01*
X166030176Y-70676182D01*
X166030170Y-70676183D01*
X165819328Y-70744690D01*
X165819322Y-70744693D01*
X165621781Y-70845345D01*
X165442421Y-70975658D01*
X165285658Y-71132421D01*
X165191936Y-71261419D01*
X165135713Y-71304773D01*
X165064977Y-71310848D01*
X165002185Y-71277716D01*
X164988064Y-71261419D01*
X164894341Y-71132421D01*
X164737578Y-70975658D01*
X164558218Y-70845345D01*
X164558217Y-70845344D01*
X164558215Y-70845343D01*
X164360676Y-70744692D01*
X164360673Y-70744691D01*
X164360671Y-70744690D01*
X164149829Y-70676183D01*
X164149825Y-70676182D01*
X164149824Y-70676182D01*
X163930851Y-70641500D01*
X163709149Y-70641500D01*
X163490176Y-70676182D01*
X163490170Y-70676183D01*
X163279328Y-70744690D01*
X163279322Y-70744693D01*
X163081781Y-70845345D01*
X162902421Y-70975658D01*
X162745658Y-71132421D01*
X162651936Y-71261419D01*
X162595713Y-71304773D01*
X162524977Y-71310848D01*
X162462185Y-71277716D01*
X162448064Y-71261419D01*
X162354341Y-71132421D01*
X162197578Y-70975658D01*
X162018218Y-70845345D01*
X162018217Y-70845344D01*
X162018215Y-70845343D01*
X161820676Y-70744692D01*
X161820673Y-70744691D01*
X161820671Y-70744690D01*
X161609829Y-70676183D01*
X161609825Y-70676182D01*
X161609824Y-70676182D01*
X161390851Y-70641500D01*
X161169149Y-70641500D01*
X160950176Y-70676182D01*
X160950170Y-70676183D01*
X160739328Y-70744690D01*
X160739322Y-70744693D01*
X160541781Y-70845345D01*
X160362421Y-70975658D01*
X160205658Y-71132421D01*
X160111936Y-71261419D01*
X160055713Y-71304773D01*
X159984977Y-71310848D01*
X159922185Y-71277716D01*
X159908064Y-71261419D01*
X159814341Y-71132421D01*
X159657578Y-70975658D01*
X159478218Y-70845345D01*
X159478217Y-70845344D01*
X159478215Y-70845343D01*
X159280676Y-70744692D01*
X159280673Y-70744691D01*
X159280671Y-70744690D01*
X159069829Y-70676183D01*
X159069825Y-70676182D01*
X159069824Y-70676182D01*
X158850851Y-70641500D01*
X158629149Y-70641500D01*
X158410176Y-70676182D01*
X158410170Y-70676183D01*
X158199328Y-70744690D01*
X158199322Y-70744693D01*
X158001781Y-70845345D01*
X157822421Y-70975658D01*
X157665658Y-71132421D01*
X157571936Y-71261419D01*
X157515713Y-71304773D01*
X157444977Y-71310848D01*
X157382185Y-71277716D01*
X157368064Y-71261419D01*
X157274341Y-71132421D01*
X157117578Y-70975658D01*
X156938218Y-70845345D01*
X156938217Y-70845344D01*
X156938215Y-70845343D01*
X156740676Y-70744692D01*
X156740673Y-70744691D01*
X156740671Y-70744690D01*
X156529829Y-70676183D01*
X156529825Y-70676182D01*
X156529824Y-70676182D01*
X156310851Y-70641500D01*
X156089149Y-70641500D01*
X155870176Y-70676182D01*
X155870170Y-70676183D01*
X155659328Y-70744690D01*
X155659322Y-70744693D01*
X155461781Y-70845345D01*
X155282421Y-70975658D01*
X155125658Y-71132421D01*
X155031936Y-71261419D01*
X154975713Y-71304773D01*
X154904977Y-71310848D01*
X154842185Y-71277716D01*
X154828064Y-71261419D01*
X154734341Y-71132421D01*
X154577578Y-70975658D01*
X154398218Y-70845345D01*
X154398217Y-70845344D01*
X154398215Y-70845343D01*
X154200676Y-70744692D01*
X154200673Y-70744691D01*
X154200671Y-70744690D01*
X153989829Y-70676183D01*
X153989825Y-70676182D01*
X153989824Y-70676182D01*
X153770851Y-70641500D01*
X153549149Y-70641500D01*
X153330176Y-70676182D01*
X153330170Y-70676183D01*
X153119328Y-70744690D01*
X153119322Y-70744693D01*
X152921781Y-70845345D01*
X152742421Y-70975658D01*
X152585658Y-71132421D01*
X152491936Y-71261419D01*
X152435713Y-71304773D01*
X152364977Y-71310848D01*
X152302185Y-71277716D01*
X152288064Y-71261419D01*
X152194341Y-71132421D01*
X152037578Y-70975658D01*
X151858218Y-70845345D01*
X151858217Y-70845344D01*
X151858215Y-70845343D01*
X151660676Y-70744692D01*
X151660673Y-70744691D01*
X151660671Y-70744690D01*
X151449829Y-70676183D01*
X151449825Y-70676182D01*
X151449824Y-70676182D01*
X151230851Y-70641500D01*
X151009149Y-70641500D01*
X150790176Y-70676182D01*
X150790170Y-70676183D01*
X150579328Y-70744690D01*
X150579322Y-70744693D01*
X150381781Y-70845345D01*
X150202421Y-70975658D01*
X150045658Y-71132421D01*
X149951936Y-71261419D01*
X149895713Y-71304773D01*
X149824977Y-71310848D01*
X149762185Y-71277716D01*
X149748064Y-71261419D01*
X149654341Y-71132421D01*
X149497578Y-70975658D01*
X149318218Y-70845345D01*
X149318217Y-70845344D01*
X149318215Y-70845343D01*
X149120676Y-70744692D01*
X149120673Y-70744691D01*
X149120671Y-70744690D01*
X148909829Y-70676183D01*
X148909825Y-70676182D01*
X148909824Y-70676182D01*
X148690851Y-70641500D01*
X148469149Y-70641500D01*
X148250176Y-70676182D01*
X148250170Y-70676183D01*
X148039328Y-70744690D01*
X148039322Y-70744693D01*
X147841781Y-70845345D01*
X147662421Y-70975658D01*
X147505658Y-71132421D01*
X147411936Y-71261419D01*
X147355713Y-71304773D01*
X147284977Y-71310848D01*
X147222185Y-71277716D01*
X147208064Y-71261419D01*
X147114341Y-71132421D01*
X146957578Y-70975658D01*
X146778218Y-70845345D01*
X146778217Y-70845344D01*
X146778215Y-70845343D01*
X146580676Y-70744692D01*
X146580673Y-70744691D01*
X146580671Y-70744690D01*
X146369829Y-70676183D01*
X146369825Y-70676182D01*
X146369824Y-70676182D01*
X146150851Y-70641500D01*
X145929149Y-70641500D01*
X145710176Y-70676182D01*
X145710170Y-70676183D01*
X145499328Y-70744690D01*
X145499322Y-70744693D01*
X145301781Y-70845345D01*
X145122421Y-70975658D01*
X144965658Y-71132421D01*
X144871936Y-71261419D01*
X144815713Y-71304773D01*
X144744977Y-71310848D01*
X144682185Y-71277716D01*
X144668064Y-71261419D01*
X144574341Y-71132421D01*
X144417578Y-70975658D01*
X144238218Y-70845345D01*
X144238217Y-70845344D01*
X144238215Y-70845343D01*
X144040676Y-70744692D01*
X144040673Y-70744691D01*
X144040671Y-70744690D01*
X143829829Y-70676183D01*
X143829825Y-70676182D01*
X143829824Y-70676182D01*
X143610851Y-70641500D01*
X143389149Y-70641500D01*
X143170176Y-70676182D01*
X143170170Y-70676183D01*
X142959328Y-70744690D01*
X142959322Y-70744693D01*
X142761781Y-70845345D01*
X142582421Y-70975658D01*
X142425656Y-71132423D01*
X142331626Y-71261844D01*
X142275404Y-71305197D01*
X142204668Y-71311272D01*
X142141876Y-71278140D01*
X142127755Y-71261843D01*
X142033960Y-71132746D01*
X141877253Y-70976039D01*
X141697956Y-70845772D01*
X141500485Y-70745156D01*
X141500483Y-70745155D01*
X141289709Y-70676669D01*
X141214000Y-70664678D01*
X141214000Y-71643416D01*
X141178767Y-71628822D01*
X141033869Y-71600000D01*
X140886131Y-71600000D01*
X140741233Y-71628822D01*
X140706000Y-71643416D01*
X140706000Y-70664678D01*
X140630290Y-70676669D01*
X140419516Y-70745155D01*
X140419514Y-70745156D01*
X140222043Y-70845772D01*
X140042746Y-70976039D01*
X139886039Y-71132746D01*
X139755772Y-71312043D01*
X139655156Y-71509514D01*
X139655155Y-71509516D01*
X139586670Y-71720289D01*
X139552000Y-71939191D01*
X139552000Y-72096000D01*
X140253416Y-72096000D01*
X140238822Y-72131233D01*
X140210000Y-72276131D01*
X140210000Y-72423869D01*
X140238822Y-72568767D01*
X140253416Y-72604000D01*
X139552000Y-72604000D01*
X139552000Y-72760808D01*
X139586670Y-72979710D01*
X139655155Y-73190483D01*
X139655156Y-73190485D01*
X139755772Y-73387956D01*
X139886039Y-73567253D01*
X140042746Y-73723960D01*
X140222043Y-73854227D01*
X140419514Y-73954843D01*
X140419516Y-73954844D01*
X140630289Y-74023329D01*
X140706000Y-74035320D01*
X140706000Y-73056583D01*
X140741233Y-73071178D01*
X140886131Y-73100000D01*
X141033869Y-73100000D01*
X141178767Y-73071178D01*
X141214000Y-73056583D01*
X141214000Y-74035320D01*
X141289709Y-74023329D01*
X141289711Y-74023329D01*
X141500483Y-73954844D01*
X141500485Y-73954843D01*
X141697956Y-73854227D01*
X141877253Y-73723960D01*
X142033957Y-73567256D01*
X142033959Y-73567253D01*
X142127755Y-73438156D01*
X142183977Y-73394802D01*
X142254714Y-73388727D01*
X142317505Y-73421858D01*
X142331627Y-73438156D01*
X142425658Y-73567578D01*
X142582421Y-73724341D01*
X142582424Y-73724343D01*
X142761785Y-73854657D01*
X142958411Y-73954843D01*
X142959326Y-73955309D01*
X143002008Y-73969177D01*
X143044734Y-73983059D01*
X143094892Y-74013797D01*
X144109595Y-75028499D01*
X144143620Y-75090811D01*
X144146500Y-75117594D01*
X144146500Y-85845652D01*
X144126498Y-85913773D01*
X144072842Y-85960266D01*
X144002568Y-85970370D01*
X143981564Y-85965485D01*
X143829827Y-85916183D01*
X143829831Y-85916183D01*
X143789063Y-85909726D01*
X143610851Y-85881500D01*
X143389149Y-85881500D01*
X143185386Y-85913773D01*
X143170170Y-85916183D01*
X142959328Y-85984690D01*
X142959322Y-85984693D01*
X142761781Y-86085345D01*
X142582421Y-86215658D01*
X142425658Y-86372421D01*
X142331936Y-86501419D01*
X142275713Y-86544773D01*
X142204977Y-86550848D01*
X142142185Y-86517716D01*
X142128064Y-86501419D01*
X142034341Y-86372421D01*
X141877578Y-86215658D01*
X141698218Y-86085345D01*
X141698217Y-86085344D01*
X141698215Y-86085343D01*
X141500676Y-85984692D01*
X141500673Y-85984691D01*
X141500671Y-85984690D01*
X141289829Y-85916183D01*
X141289825Y-85916182D01*
X141289824Y-85916182D01*
X141070851Y-85881500D01*
X140849149Y-85881500D01*
X140645386Y-85913773D01*
X140630170Y-85916183D01*
X140536925Y-85946481D01*
X140465958Y-85948509D01*
X140405160Y-85911846D01*
X140373834Y-85848134D01*
X140371989Y-85826648D01*
X140371989Y-78381105D01*
X140391991Y-78312984D01*
X140408894Y-78292010D01*
X141682499Y-77018405D01*
X141744811Y-76984379D01*
X141771594Y-76981500D01*
X141827487Y-76981500D01*
X142014288Y-76941794D01*
X142188752Y-76864118D01*
X142343253Y-76751866D01*
X142356533Y-76737117D01*
X142471034Y-76609951D01*
X142471035Y-76609949D01*
X142471040Y-76609944D01*
X142566527Y-76444556D01*
X142625542Y-76262928D01*
X142645504Y-76073000D01*
X142625542Y-75883072D01*
X142566527Y-75701444D01*
X142471040Y-75536056D01*
X142471038Y-75536054D01*
X142471034Y-75536048D01*
X142343255Y-75394135D01*
X142188752Y-75281882D01*
X142014288Y-75204206D01*
X141827487Y-75164500D01*
X141636513Y-75164500D01*
X141449711Y-75204206D01*
X141275247Y-75281882D01*
X141120744Y-75394135D01*
X140992965Y-75536048D01*
X140992958Y-75536058D01*
X140897476Y-75701438D01*
X140897473Y-75701445D01*
X140838457Y-75883072D01*
X140821092Y-76048293D01*
X140794079Y-76113950D01*
X140784877Y-76124217D01*
X139334656Y-77574440D01*
X139246420Y-77662675D01*
X139246415Y-77662682D01*
X139177090Y-77766434D01*
X139129335Y-77881723D01*
X139104989Y-78004114D01*
X139104989Y-106374701D01*
X139104909Y-106379203D01*
X139103164Y-106428007D01*
X139103367Y-106429259D01*
X139104989Y-106449412D01*
X139104989Y-106450690D01*
X139114515Y-106498580D01*
X139115314Y-106503007D01*
X139123121Y-106551192D01*
X139123121Y-106551193D01*
X139123565Y-106552382D01*
X139129082Y-106571811D01*
X139129331Y-106573062D01*
X139129337Y-106573084D01*
X139148021Y-106618191D01*
X139149669Y-106622380D01*
X139164200Y-106661344D01*
X139171453Y-106718539D01*
X139167496Y-106756197D01*
X139167496Y-106756198D01*
X139187457Y-106946127D01*
X139196393Y-106973627D01*
X139246473Y-107127756D01*
X139246476Y-107127761D01*
X139341958Y-107293141D01*
X139341965Y-107293151D01*
X139469744Y-107435064D01*
X139469747Y-107435066D01*
X139624248Y-107547318D01*
X139798712Y-107624994D01*
X139985513Y-107664700D01*
X140176487Y-107664700D01*
X140363288Y-107624994D01*
X140537752Y-107547318D01*
X140692253Y-107435066D01*
X140810611Y-107303616D01*
X140820034Y-107293151D01*
X140820035Y-107293149D01*
X140820040Y-107293144D01*
X140863381Y-107218074D01*
X140914763Y-107169082D01*
X140984477Y-107155646D01*
X141050388Y-107182032D01*
X141091570Y-107239864D01*
X141098500Y-107281075D01*
X141098500Y-118745500D01*
X141078498Y-118813621D01*
X141024842Y-118860114D01*
X140972500Y-118871500D01*
X140921350Y-118871500D01*
X140860803Y-118878009D01*
X140860795Y-118878011D01*
X140723797Y-118929110D01*
X140723792Y-118929112D01*
X140606738Y-119016738D01*
X140519112Y-119133792D01*
X140519110Y-119133797D01*
X140468011Y-119270795D01*
X140466197Y-119278474D01*
X140464024Y-119277960D01*
X140441191Y-119333071D01*
X140382869Y-119373556D01*
X140343090Y-119380000D01*
X140326910Y-119380000D01*
X140258789Y-119359998D01*
X140212296Y-119306342D01*
X140204597Y-119278286D01*
X140203803Y-119278474D01*
X140201988Y-119270795D01*
X140150978Y-119134035D01*
X140150889Y-119133796D01*
X140150888Y-119133794D01*
X140150887Y-119133792D01*
X140063261Y-119016738D01*
X139946207Y-118929112D01*
X139946202Y-118929110D01*
X139809204Y-118878011D01*
X139801526Y-118876197D01*
X139801940Y-118874442D01*
X139745436Y-118851035D01*
X139704947Y-118792716D01*
X139698500Y-118752929D01*
X139698500Y-110938524D01*
X139718502Y-110870403D01*
X139730858Y-110854220D01*
X139804040Y-110772944D01*
X139899527Y-110607556D01*
X139958542Y-110425928D01*
X139978504Y-110236000D01*
X139958542Y-110046072D01*
X139899527Y-109864444D01*
X139804040Y-109699056D01*
X139804038Y-109699054D01*
X139804034Y-109699048D01*
X139676255Y-109557135D01*
X139521752Y-109444882D01*
X139347288Y-109367206D01*
X139160487Y-109327500D01*
X138969513Y-109327500D01*
X138782711Y-109367206D01*
X138608247Y-109444882D01*
X138453744Y-109557135D01*
X138325965Y-109699048D01*
X138325958Y-109699058D01*
X138230476Y-109864438D01*
X138230473Y-109864445D01*
X138171457Y-110046072D01*
X138151496Y-110236000D01*
X138171457Y-110425927D01*
X138189546Y-110481596D01*
X138230473Y-110607556D01*
X138325960Y-110772944D01*
X138399137Y-110854215D01*
X138429853Y-110918220D01*
X138431500Y-110938524D01*
X138431500Y-118752929D01*
X138411498Y-118821050D01*
X138357842Y-118867543D01*
X138328341Y-118875636D01*
X138328474Y-118876197D01*
X138320795Y-118878011D01*
X138183797Y-118929110D01*
X138183792Y-118929112D01*
X138066738Y-119016738D01*
X137979112Y-119133792D01*
X137979110Y-119133797D01*
X137928011Y-119270795D01*
X137926197Y-119278474D01*
X137924024Y-119277960D01*
X137901191Y-119333071D01*
X137842869Y-119373556D01*
X137803090Y-119380000D01*
X137786403Y-119380000D01*
X137718282Y-119359998D01*
X137671789Y-119306342D01*
X137664119Y-119278383D01*
X137663307Y-119278575D01*
X137661495Y-119270908D01*
X137610444Y-119134035D01*
X137610444Y-119134034D01*
X137522904Y-119017095D01*
X137405965Y-118929555D01*
X137269093Y-118878505D01*
X137208597Y-118872000D01*
X136779000Y-118872000D01*
X136779000Y-119380000D01*
X136271000Y-119380000D01*
X136271000Y-118872000D01*
X135841402Y-118872000D01*
X135780906Y-118878505D01*
X135644035Y-118929555D01*
X135644034Y-118929555D01*
X135527095Y-119017095D01*
X135439555Y-119134034D01*
X135439555Y-119134035D01*
X135388504Y-119270908D01*
X135386693Y-119278575D01*
X135384489Y-119278054D01*
X135361707Y-119333060D01*
X135303389Y-119373552D01*
X135263597Y-119380000D01*
X135246403Y-119380000D01*
X135178282Y-119359998D01*
X135131789Y-119306342D01*
X135124119Y-119278383D01*
X135123307Y-119278575D01*
X135121495Y-119270908D01*
X135070444Y-119134035D01*
X135070444Y-119134034D01*
X134982904Y-119017095D01*
X134865965Y-118929555D01*
X134729093Y-118878505D01*
X134668597Y-118872000D01*
X134239000Y-118872000D01*
X134239000Y-119380000D01*
X133731000Y-119380000D01*
X133731000Y-118872000D01*
X133301402Y-118872000D01*
X133240906Y-118878505D01*
X133104035Y-118929555D01*
X133104034Y-118929555D01*
X132987095Y-119017095D01*
X132899555Y-119134034D01*
X132899555Y-119134035D01*
X132848504Y-119270908D01*
X132846693Y-119278575D01*
X132844489Y-119278054D01*
X132821707Y-119333060D01*
X132763389Y-119373552D01*
X132723597Y-119380000D01*
X132706910Y-119380000D01*
X132638789Y-119359998D01*
X132592296Y-119306342D01*
X132584597Y-119278286D01*
X132583803Y-119278474D01*
X132581988Y-119270795D01*
X132530978Y-119134035D01*
X132530889Y-119133796D01*
X132530888Y-119133794D01*
X132530887Y-119133792D01*
X132443262Y-119016740D01*
X132443259Y-119016738D01*
X132368843Y-118961030D01*
X132353990Y-118949911D01*
X132311444Y-118893075D01*
X132303500Y-118849043D01*
X132303500Y-118120444D01*
X132303499Y-118120441D01*
X132298065Y-118093123D01*
X132270508Y-117954585D01*
X132205793Y-117798348D01*
X132111841Y-117657738D01*
X131992262Y-117538159D01*
X131568198Y-117114095D01*
X131534172Y-117051783D01*
X131539237Y-116980968D01*
X131568196Y-116935906D01*
X132397841Y-116106262D01*
X132401404Y-116100929D01*
X132491793Y-115965652D01*
X132556508Y-115809415D01*
X132556776Y-115808071D01*
X132559365Y-115795058D01*
X132589499Y-115643560D01*
X132589500Y-115643553D01*
X132589500Y-113983480D01*
X132609502Y-113915359D01*
X132626405Y-113894385D01*
X133323600Y-113197189D01*
X133323600Y-113203504D01*
X133351295Y-113306865D01*
X133404799Y-113399536D01*
X133480464Y-113475201D01*
X133573135Y-113528705D01*
X133676496Y-113556400D01*
X133682809Y-113556400D01*
X133011157Y-114228051D01*
X133011157Y-114228053D01*
X133079822Y-114276132D01*
X133285251Y-114371925D01*
X133285257Y-114371927D01*
X133504197Y-114430592D01*
X133730000Y-114450347D01*
X133955802Y-114430592D01*
X134174742Y-114371927D01*
X134174748Y-114371925D01*
X134380169Y-114276136D01*
X134448841Y-114228051D01*
X134448841Y-114228050D01*
X133777191Y-113556400D01*
X133783504Y-113556400D01*
X133886865Y-113528705D01*
X133979536Y-113475201D01*
X134055201Y-113399536D01*
X134108705Y-113306865D01*
X134136400Y-113203504D01*
X134136400Y-113197191D01*
X134808050Y-113868841D01*
X134808051Y-113868841D01*
X134856136Y-113800169D01*
X134951925Y-113594748D01*
X134951927Y-113594742D01*
X135010592Y-113375802D01*
X135030347Y-113150000D01*
X135010592Y-112924197D01*
X134951927Y-112705257D01*
X134951925Y-112705251D01*
X134856132Y-112499822D01*
X134808053Y-112431157D01*
X134808051Y-112431157D01*
X134136400Y-113102808D01*
X134136400Y-113096496D01*
X134108705Y-112993135D01*
X134055201Y-112900464D01*
X133979536Y-112824799D01*
X133886865Y-112771295D01*
X133783504Y-112743600D01*
X133777189Y-112743600D01*
X134448842Y-112071947D01*
X134380175Y-112023867D01*
X134317135Y-111994471D01*
X134263850Y-111947554D01*
X134244389Y-111879277D01*
X134264931Y-111811317D01*
X134317136Y-111766081D01*
X134380425Y-111736569D01*
X134566170Y-111606509D01*
X134726509Y-111446170D01*
X134856569Y-111260425D01*
X134952399Y-111054917D01*
X135011087Y-110835890D01*
X135030850Y-110610000D01*
X135011087Y-110384110D01*
X134952399Y-110165083D01*
X134856569Y-109959575D01*
X134726509Y-109773830D01*
X134566170Y-109613491D01*
X134380425Y-109483431D01*
X134354170Y-109471188D01*
X134174920Y-109387602D01*
X134174915Y-109387600D01*
X134073047Y-109360305D01*
X133955890Y-109328913D01*
X133730000Y-109309150D01*
X133729998Y-109309150D01*
X133708758Y-109311008D01*
X133639154Y-109297017D01*
X133608685Y-109274582D01*
X133105405Y-108771302D01*
X133071379Y-108708990D01*
X133068500Y-108682207D01*
X133068500Y-105577732D01*
X133074667Y-105538795D01*
X133103542Y-105449927D01*
X133123504Y-105260000D01*
X133103542Y-105070072D01*
X133048622Y-104901048D01*
X133044882Y-104886714D01*
X133035508Y-104839585D01*
X133034600Y-104837394D01*
X133005398Y-104766894D01*
X132999535Y-104752738D01*
X132970793Y-104683348D01*
X132876841Y-104542738D01*
X132757262Y-104423159D01*
X125805405Y-97471302D01*
X125771379Y-97408990D01*
X125768500Y-97382207D01*
X125768500Y-92307732D01*
X125774667Y-92268795D01*
X125780807Y-92249897D01*
X125803542Y-92179928D01*
X125823504Y-91990000D01*
X125803542Y-91800072D01*
X125774667Y-91711203D01*
X125768500Y-91672267D01*
X125768500Y-76495449D01*
X125768500Y-76495445D01*
X125758377Y-76444556D01*
X125735508Y-76329584D01*
X125707898Y-76262928D01*
X125670793Y-76173348D01*
X125576841Y-76032738D01*
X125457262Y-75913159D01*
X125224103Y-75680000D01*
X128836496Y-75680000D01*
X128856457Y-75869927D01*
X128874550Y-75925609D01*
X128915473Y-76051556D01*
X128915476Y-76051561D01*
X129010958Y-76216941D01*
X129010965Y-76216951D01*
X129138744Y-76358864D01*
X129138747Y-76358866D01*
X129293248Y-76471118D01*
X129467712Y-76548794D01*
X129654513Y-76588500D01*
X129710406Y-76588500D01*
X129778527Y-76608502D01*
X129799501Y-76625405D01*
X130647595Y-77473499D01*
X130681621Y-77535811D01*
X130684500Y-77562594D01*
X130684500Y-96325474D01*
X130664498Y-96393595D01*
X130652137Y-96409784D01*
X130578957Y-96491059D01*
X130498063Y-96631173D01*
X130483473Y-96656444D01*
X130481088Y-96663784D01*
X130424457Y-96838072D01*
X130404496Y-97028000D01*
X130424457Y-97217927D01*
X130445276Y-97282000D01*
X130483473Y-97399556D01*
X130483476Y-97399561D01*
X130578958Y-97564941D01*
X130578965Y-97564951D01*
X130706744Y-97706864D01*
X130706747Y-97706866D01*
X130861248Y-97819118D01*
X131035712Y-97896794D01*
X131222513Y-97936500D01*
X131413487Y-97936500D01*
X131600288Y-97896794D01*
X131774752Y-97819118D01*
X131929253Y-97706866D01*
X131977249Y-97653561D01*
X132057034Y-97564951D01*
X132057035Y-97564949D01*
X132057040Y-97564944D01*
X132152527Y-97399556D01*
X132211542Y-97217928D01*
X132231504Y-97028000D01*
X132211542Y-96838072D01*
X132152527Y-96656444D01*
X132060015Y-96496209D01*
X132057042Y-96491059D01*
X132057041Y-96491058D01*
X132057040Y-96491056D01*
X131983863Y-96409784D01*
X131953146Y-96345776D01*
X131951500Y-96325474D01*
X131951500Y-77185607D01*
X131951499Y-77185603D01*
X131927155Y-77063215D01*
X131879400Y-76947925D01*
X131810071Y-76844167D01*
X131721833Y-76755929D01*
X130697122Y-75731218D01*
X130663096Y-75668906D01*
X130660907Y-75655293D01*
X130650424Y-75555556D01*
X130643542Y-75490072D01*
X130584527Y-75308444D01*
X130489040Y-75143056D01*
X130489038Y-75143054D01*
X130489034Y-75143048D01*
X130361255Y-75001135D01*
X130206752Y-74888882D01*
X130032288Y-74811206D01*
X129845487Y-74771500D01*
X129654513Y-74771500D01*
X129467711Y-74811206D01*
X129293247Y-74888882D01*
X129138744Y-75001135D01*
X129010965Y-75143048D01*
X129010958Y-75143058D01*
X128915476Y-75308438D01*
X128915473Y-75308445D01*
X128856457Y-75490072D01*
X128836496Y-75680000D01*
X125224103Y-75680000D01*
X118082262Y-68538159D01*
X117941652Y-68444207D01*
X117831176Y-68398446D01*
X117831175Y-68398445D01*
X117785422Y-68379494D01*
X117785416Y-68379492D01*
X117619557Y-68346500D01*
X117619555Y-68346500D01*
X114076445Y-68346500D01*
X114008324Y-68326498D01*
X113983744Y-68305838D01*
X113888240Y-68202094D01*
X113852533Y-68174302D01*
X113710576Y-68063811D01*
X113676792Y-68045528D01*
X113626402Y-67995516D01*
X113611050Y-67926199D01*
X113635610Y-67859586D01*
X113676793Y-67823901D01*
X113710300Y-67805767D01*
X113710301Y-67805767D01*
X113887902Y-67667534D01*
X114040325Y-67501958D01*
X114163419Y-67313548D01*
X114253820Y-67107456D01*
X114253823Y-67107449D01*
X114301544Y-66919000D01*
X113395703Y-66919000D01*
X113430925Y-66857993D01*
X113465000Y-66730826D01*
X113465000Y-66599174D01*
X113430925Y-66472007D01*
X113395703Y-66411000D01*
X114301544Y-66411000D01*
X114301544Y-66410999D01*
X114253823Y-66222550D01*
X114253820Y-66222543D01*
X114163419Y-66016451D01*
X114040325Y-65828041D01*
X113887899Y-65662462D01*
X113844819Y-65628931D01*
X113803348Y-65571306D01*
X113799615Y-65500408D01*
X113834804Y-65438746D01*
X113897745Y-65405898D01*
X113922210Y-65403500D01*
X125339206Y-65403500D01*
X125407327Y-65423502D01*
X125428301Y-65440405D01*
X130389961Y-70402067D01*
X130389967Y-70402072D01*
X130493725Y-70471401D01*
X130556414Y-70497367D01*
X130609015Y-70519155D01*
X130731406Y-70543500D01*
X130731407Y-70543500D01*
X130856194Y-70543500D01*
X132861800Y-70543500D01*
X132929921Y-70563502D01*
X132955437Y-70585190D01*
X132958747Y-70588866D01*
X133113248Y-70701118D01*
X133287712Y-70778794D01*
X133474513Y-70818500D01*
X133665487Y-70818500D01*
X133852288Y-70778794D01*
X134026752Y-70701118D01*
X134181253Y-70588866D01*
X134229036Y-70535798D01*
X134309034Y-70446951D01*
X134309035Y-70446949D01*
X134309040Y-70446944D01*
X134404527Y-70281556D01*
X134463542Y-70099928D01*
X134483504Y-69910000D01*
X134463542Y-69720072D01*
X134404527Y-69538444D01*
X134309040Y-69373056D01*
X134309038Y-69373054D01*
X134309034Y-69373048D01*
X134181255Y-69231135D01*
X134026752Y-69118882D01*
X133852288Y-69041206D01*
X133665487Y-69001500D01*
X133474513Y-69001500D01*
X133287711Y-69041206D01*
X133113247Y-69118882D01*
X132958747Y-69231133D01*
X132955437Y-69234810D01*
X132894991Y-69272050D01*
X132861800Y-69276500D01*
X131108395Y-69276500D01*
X131040274Y-69256498D01*
X131019300Y-69239595D01*
X126645905Y-64866200D01*
X126611879Y-64803888D01*
X126609000Y-64777105D01*
X126609000Y-64707607D01*
X126608999Y-64707603D01*
X126607754Y-64701342D01*
X126584655Y-64585215D01*
X126536900Y-64469925D01*
X126467571Y-64366167D01*
X126379333Y-64277929D01*
X126275575Y-64208600D01*
X126160285Y-64160845D01*
X126086586Y-64146185D01*
X126037896Y-64136500D01*
X126037894Y-64136500D01*
X110870606Y-64136500D01*
X110870603Y-64136500D01*
X110797568Y-64151028D01*
X110748215Y-64160845D01*
X110748213Y-64160845D01*
X110748212Y-64160846D01*
X110632923Y-64208601D01*
X110529171Y-64277926D01*
X110529164Y-64277931D01*
X109932931Y-64874164D01*
X109932926Y-64874171D01*
X109863601Y-64977923D01*
X109815846Y-65093212D01*
X109791500Y-65215603D01*
X109791500Y-65388078D01*
X109771498Y-65456199D01*
X109725471Y-65498891D01*
X109679426Y-65523810D01*
X109679424Y-65523811D01*
X109501762Y-65662091D01*
X109349279Y-65827729D01*
X109349275Y-65827734D01*
X109226141Y-66016206D01*
X109135703Y-66222386D01*
X109135702Y-66222387D01*
X109080437Y-66440624D01*
X109080436Y-66440630D01*
X109080436Y-66440632D01*
X109061844Y-66665000D01*
X109079722Y-66880757D01*
X109080437Y-66889375D01*
X109135702Y-67107612D01*
X109135703Y-67107613D01*
X109135704Y-67107616D01*
X109226140Y-67313791D01*
X109226141Y-67313793D01*
X109349275Y-67502265D01*
X109349279Y-67502270D01*
X109501762Y-67667908D01*
X109556331Y-67710381D01*
X109679424Y-67806189D01*
X109712680Y-67824186D01*
X109763070Y-67874196D01*
X109778423Y-67943513D01*
X109753864Y-68010126D01*
X109712683Y-68045811D01*
X109679430Y-68063807D01*
X109679424Y-68063811D01*
X109501762Y-68202091D01*
X109349279Y-68367729D01*
X109349275Y-68367734D01*
X109226141Y-68556206D01*
X109135703Y-68762386D01*
X109135702Y-68762387D01*
X109080437Y-68980624D01*
X109080436Y-68980630D01*
X109080436Y-68980632D01*
X109061844Y-69205000D01*
X109064009Y-69231133D01*
X109080437Y-69429375D01*
X109135702Y-69647612D01*
X109135703Y-69647613D01*
X109226141Y-69853793D01*
X109349275Y-70042265D01*
X109349279Y-70042270D01*
X109501762Y-70207908D01*
X109556331Y-70250381D01*
X109679424Y-70346189D01*
X109712680Y-70364186D01*
X109763070Y-70414196D01*
X109778423Y-70483513D01*
X109753864Y-70550126D01*
X109712683Y-70585811D01*
X109679430Y-70603807D01*
X109679424Y-70603811D01*
X109501762Y-70742091D01*
X109349279Y-70907729D01*
X109349275Y-70907734D01*
X109226141Y-71096206D01*
X109135703Y-71302386D01*
X109135702Y-71302387D01*
X109080437Y-71520624D01*
X109080436Y-71520630D01*
X109080436Y-71520632D01*
X109061844Y-71745000D01*
X109077935Y-71939191D01*
X109080437Y-71969375D01*
X109135702Y-72187612D01*
X109135703Y-72187613D01*
X109226141Y-72393793D01*
X109349275Y-72582265D01*
X109349279Y-72582270D01*
X109501762Y-72747908D01*
X109556331Y-72790381D01*
X109679424Y-72886189D01*
X109877426Y-72993342D01*
X109877427Y-72993342D01*
X109877428Y-72993343D01*
X109939468Y-73014641D01*
X110090365Y-73066444D01*
X110312431Y-73103500D01*
X110312435Y-73103500D01*
X110537565Y-73103500D01*
X110537569Y-73103500D01*
X110759635Y-73066444D01*
X110972574Y-72993342D01*
X111170576Y-72886189D01*
X111348240Y-72747906D01*
X111409245Y-72681637D01*
X111470096Y-72645067D01*
X111541061Y-72647200D01*
X111599606Y-72687362D01*
X111620000Y-72722941D01*
X111664111Y-72841204D01*
X111664112Y-72841207D01*
X111751738Y-72958261D01*
X111868792Y-73045887D01*
X111868794Y-73045888D01*
X111868796Y-73045889D01*
X111923900Y-73066442D01*
X112005795Y-73096988D01*
X112005803Y-73096990D01*
X112066350Y-73103499D01*
X112066355Y-73103499D01*
X112066362Y-73103500D01*
X112066368Y-73103500D01*
X113863632Y-73103500D01*
X113863638Y-73103500D01*
X113863645Y-73103499D01*
X113863649Y-73103499D01*
X113924196Y-73096990D01*
X113924199Y-73096989D01*
X113924201Y-73096989D01*
X114061204Y-73045889D01*
X114102947Y-73014641D01*
X114178261Y-72958261D01*
X114265887Y-72841207D01*
X114265887Y-72841206D01*
X114265889Y-72841204D01*
X114316989Y-72704201D01*
X114318800Y-72687362D01*
X114323499Y-72643649D01*
X114323500Y-72643632D01*
X114323500Y-70846367D01*
X114323499Y-70846350D01*
X114316990Y-70785803D01*
X114316988Y-70785795D01*
X114276104Y-70676183D01*
X114265889Y-70648796D01*
X114265888Y-70648794D01*
X114265887Y-70648792D01*
X114178261Y-70531738D01*
X114061207Y-70444112D01*
X114061202Y-70444110D01*
X113946193Y-70401213D01*
X113889357Y-70358666D01*
X113864547Y-70292146D01*
X113879639Y-70222772D01*
X113897525Y-70197820D01*
X113983744Y-70104162D01*
X114044597Y-70067591D01*
X114076445Y-70063500D01*
X117127207Y-70063500D01*
X117195328Y-70083502D01*
X117216302Y-70100405D01*
X124014595Y-76898698D01*
X124048621Y-76961010D01*
X124051500Y-76987793D01*
X124051500Y-91672267D01*
X124045333Y-91711203D01*
X124016457Y-91800071D01*
X123996496Y-91990000D01*
X124016457Y-92179927D01*
X124045333Y-92268795D01*
X124051500Y-92307732D01*
X124051500Y-94082445D01*
X124031498Y-94150566D01*
X123977842Y-94197059D01*
X123907568Y-94207163D01*
X123899303Y-94205692D01*
X123785488Y-94181500D01*
X123785487Y-94181500D01*
X123594513Y-94181500D01*
X123407711Y-94221206D01*
X123233247Y-94298882D01*
X123078744Y-94411135D01*
X122950965Y-94553048D01*
X122950958Y-94553058D01*
X122855476Y-94718438D01*
X122855473Y-94718445D01*
X122796457Y-94900072D01*
X122776496Y-95090000D01*
X122796457Y-95279927D01*
X122805045Y-95306356D01*
X122855473Y-95461556D01*
X122855476Y-95461561D01*
X122939969Y-95607908D01*
X122950960Y-95626944D01*
X123014137Y-95697109D01*
X123044853Y-95761114D01*
X123046500Y-95781418D01*
X123046500Y-111550396D01*
X123051437Y-111575215D01*
X123070845Y-111672785D01*
X123118600Y-111788075D01*
X123187929Y-111891833D01*
X123187931Y-111891835D01*
X123274678Y-111978582D01*
X123308704Y-112040894D01*
X123303639Y-112111709D01*
X123261092Y-112168545D01*
X123194572Y-112193356D01*
X123125198Y-112178265D01*
X123111523Y-112169614D01*
X123110052Y-112168545D01*
X123096752Y-112158882D01*
X122922288Y-112081206D01*
X122735487Y-112041500D01*
X122679594Y-112041500D01*
X122611473Y-112021498D01*
X122590499Y-112004595D01*
X119220405Y-108634501D01*
X119186379Y-108572189D01*
X119183500Y-108545406D01*
X119183500Y-82607524D01*
X119203502Y-82539403D01*
X119215858Y-82523220D01*
X119289040Y-82441944D01*
X119384527Y-82276556D01*
X119443542Y-82094928D01*
X119463504Y-81905000D01*
X119443542Y-81715072D01*
X119384527Y-81533444D01*
X119289040Y-81368056D01*
X119289038Y-81368054D01*
X119289034Y-81368048D01*
X119161255Y-81226135D01*
X119006752Y-81113882D01*
X118832288Y-81036206D01*
X118645487Y-80996500D01*
X118454513Y-80996500D01*
X118267711Y-81036206D01*
X118093247Y-81113882D01*
X117938744Y-81226135D01*
X117810965Y-81368048D01*
X117810958Y-81368058D01*
X117715476Y-81533438D01*
X117715473Y-81533445D01*
X117656457Y-81715072D01*
X117636496Y-81905000D01*
X117656457Y-82094927D01*
X117686526Y-82187470D01*
X117715473Y-82276556D01*
X117810960Y-82441944D01*
X117884137Y-82523215D01*
X117914853Y-82587220D01*
X117916500Y-82607524D01*
X117916500Y-108797606D01*
X117916500Y-108922394D01*
X117940845Y-109044785D01*
X117988600Y-109160075D01*
X118057929Y-109263833D01*
X118057931Y-109263835D01*
X121692877Y-112898781D01*
X121726903Y-112961093D01*
X121729092Y-112974705D01*
X121746457Y-113139927D01*
X121767115Y-113203504D01*
X121805473Y-113321556D01*
X121805476Y-113321561D01*
X121900958Y-113486941D01*
X121900965Y-113486951D01*
X122028744Y-113628864D01*
X122028747Y-113628866D01*
X122183248Y-113741118D01*
X122357712Y-113818794D01*
X122544513Y-113858500D01*
X122735487Y-113858500D01*
X122922288Y-113818794D01*
X123096752Y-113741118D01*
X123251253Y-113628866D01*
X123281973Y-113594748D01*
X123379034Y-113486951D01*
X123379035Y-113486949D01*
X123379040Y-113486944D01*
X123474527Y-113321556D01*
X123533542Y-113139928D01*
X123553504Y-112950000D01*
X123533542Y-112760072D01*
X123474527Y-112578444D01*
X123406628Y-112460841D01*
X123389891Y-112391847D01*
X123413111Y-112324755D01*
X123468918Y-112280868D01*
X123539593Y-112274119D01*
X123602698Y-112306651D01*
X123604843Y-112308747D01*
X124274877Y-112978781D01*
X124308903Y-113041093D01*
X124311092Y-113054705D01*
X124328457Y-113219927D01*
X124341768Y-113260892D01*
X124387473Y-113401556D01*
X124387476Y-113401561D01*
X124482958Y-113566941D01*
X124482965Y-113566951D01*
X124610744Y-113708864D01*
X124655138Y-113741118D01*
X124765248Y-113821118D01*
X124939712Y-113898794D01*
X125126513Y-113938500D01*
X125317487Y-113938500D01*
X125504288Y-113898794D01*
X125678752Y-113821118D01*
X125833253Y-113708866D01*
X125882615Y-113654044D01*
X125961034Y-113566951D01*
X125961035Y-113566949D01*
X125961040Y-113566944D01*
X126056527Y-113401556D01*
X126115542Y-113219928D01*
X126135504Y-113030000D01*
X126115542Y-112840072D01*
X126056527Y-112658444D01*
X125961040Y-112493056D01*
X125961038Y-112493054D01*
X125961034Y-112493048D01*
X125833255Y-112351135D01*
X125678752Y-112238882D01*
X125504288Y-112161206D01*
X125317487Y-112121500D01*
X125261594Y-112121500D01*
X125193473Y-112101498D01*
X125172499Y-112084595D01*
X124350405Y-111262501D01*
X124316379Y-111200189D01*
X124313500Y-111173406D01*
X124313500Y-98711793D01*
X124333502Y-98643672D01*
X124387158Y-98597179D01*
X124457432Y-98587075D01*
X124522012Y-98616569D01*
X124528595Y-98622698D01*
X128945302Y-103039405D01*
X128979328Y-103101717D01*
X128974263Y-103172532D01*
X128931716Y-103229368D01*
X128865196Y-103254179D01*
X128856207Y-103254500D01*
X128593342Y-103254500D01*
X128291932Y-103288460D01*
X127996221Y-103355955D01*
X127709952Y-103456125D01*
X127709925Y-103456136D01*
X127436663Y-103587732D01*
X127436654Y-103587737D01*
X127179835Y-103749108D01*
X126942692Y-103938223D01*
X126728223Y-104152692D01*
X126539108Y-104389835D01*
X126377737Y-104646654D01*
X126377732Y-104646663D01*
X126246136Y-104919925D01*
X126246125Y-104919952D01*
X126145955Y-105206221D01*
X126078460Y-105501932D01*
X126044500Y-105803342D01*
X126044500Y-106106657D01*
X126078460Y-106408067D01*
X126145955Y-106703778D01*
X126246125Y-106990047D01*
X126246136Y-106990074D01*
X126377732Y-107263336D01*
X126377737Y-107263345D01*
X126539108Y-107520164D01*
X126728223Y-107757307D01*
X126942692Y-107971776D01*
X126942696Y-107971779D01*
X127179836Y-108160892D01*
X127321770Y-108250075D01*
X127436654Y-108322262D01*
X127436663Y-108322267D01*
X127503596Y-108354500D01*
X127709935Y-108453868D01*
X127709951Y-108453873D01*
X127709952Y-108453874D01*
X127996221Y-108554044D01*
X127996224Y-108554044D01*
X127996228Y-108554046D01*
X128187032Y-108597596D01*
X128291932Y-108621539D01*
X128291933Y-108621539D01*
X128291937Y-108621540D01*
X128531518Y-108648534D01*
X128593342Y-108655500D01*
X128593343Y-108655500D01*
X128896658Y-108655500D01*
X128947958Y-108649719D01*
X129198063Y-108621540D01*
X129493772Y-108554046D01*
X129780065Y-108453868D01*
X130053341Y-108322265D01*
X130310164Y-108160892D01*
X130547304Y-107971779D01*
X130761779Y-107757304D01*
X130950892Y-107520164D01*
X131112265Y-107263341D01*
X131112270Y-107263329D01*
X131113975Y-107260247D01*
X131114867Y-107260740D01*
X131159546Y-107211246D01*
X131228059Y-107192632D01*
X131295760Y-107214014D01*
X131341153Y-107268602D01*
X131351500Y-107318606D01*
X131351500Y-109174557D01*
X131354745Y-109190868D01*
X131382114Y-109328463D01*
X131384492Y-109340415D01*
X131449207Y-109496652D01*
X131520952Y-109604027D01*
X131527275Y-109613489D01*
X131527276Y-109613491D01*
X131529727Y-109617160D01*
X131543159Y-109637262D01*
X132394583Y-110488686D01*
X132428607Y-110550997D01*
X132431008Y-110588759D01*
X132429150Y-110609999D01*
X132431008Y-110631238D01*
X132417018Y-110700843D01*
X132394582Y-110731313D01*
X131183738Y-111942159D01*
X131064163Y-112061733D01*
X131064158Y-112061739D01*
X130970207Y-112202348D01*
X130931024Y-112296944D01*
X130905494Y-112358578D01*
X130905492Y-112358583D01*
X130889523Y-112438866D01*
X130872500Y-112524441D01*
X130872500Y-115151207D01*
X130852498Y-115219328D01*
X130835595Y-115240302D01*
X129153159Y-116922738D01*
X129153156Y-116922739D01*
X129153157Y-116922740D01*
X128340018Y-117735877D01*
X128340014Y-117735883D01*
X128238158Y-117837739D01*
X128144208Y-117978346D01*
X128111836Y-118056499D01*
X128084116Y-118123421D01*
X128079492Y-118134584D01*
X128068458Y-118190056D01*
X128059390Y-118235645D01*
X128046500Y-118300444D01*
X128046500Y-118849043D01*
X128026498Y-118917164D01*
X127996010Y-118949911D01*
X127906737Y-119016740D01*
X127819112Y-119133792D01*
X127819110Y-119133797D01*
X127768011Y-119270795D01*
X127766197Y-119278474D01*
X127764024Y-119277960D01*
X127741191Y-119333071D01*
X127682869Y-119373556D01*
X127643090Y-119380000D01*
X127626910Y-119380000D01*
X127558789Y-119359998D01*
X127512296Y-119306342D01*
X127504597Y-119278286D01*
X127503803Y-119278474D01*
X127501988Y-119270795D01*
X127450978Y-119134035D01*
X127450889Y-119133796D01*
X127450888Y-119133794D01*
X127450887Y-119133792D01*
X127363261Y-119016738D01*
X127246207Y-118929112D01*
X127246202Y-118929110D01*
X127109204Y-118878011D01*
X127109196Y-118878009D01*
X127048649Y-118871500D01*
X127048638Y-118871500D01*
X125681362Y-118871500D01*
X125681350Y-118871500D01*
X125620803Y-118878009D01*
X125620795Y-118878011D01*
X125483797Y-118929110D01*
X125483792Y-118929112D01*
X125454141Y-118951310D01*
X125387621Y-118976121D01*
X125318247Y-118961030D01*
X125289537Y-118939537D01*
X124507405Y-118157405D01*
X124473379Y-118095093D01*
X124470500Y-118068310D01*
X124470500Y-116835651D01*
X124470499Y-116835649D01*
X124464350Y-116829500D01*
X124464349Y-116829500D01*
X114801690Y-116829500D01*
X114733569Y-116809498D01*
X114712595Y-116792595D01*
X111807405Y-113887405D01*
X111773379Y-113825093D01*
X111770500Y-113798310D01*
X111770500Y-104135651D01*
X111770499Y-104135649D01*
X111764350Y-104129500D01*
X111764349Y-104129500D01*
X104641696Y-104129500D01*
X104573575Y-104109498D01*
X104552597Y-104092592D01*
X101696479Y-101236137D01*
X101647399Y-101187051D01*
X101613378Y-101124737D01*
X101610500Y-101097961D01*
X101610500Y-89525000D01*
X109061844Y-89525000D01*
X109077836Y-89717993D01*
X109080437Y-89749375D01*
X109135702Y-89967612D01*
X109135703Y-89967613D01*
X109135704Y-89967616D01*
X109226140Y-90173791D01*
X109226141Y-90173793D01*
X109349275Y-90362265D01*
X109349279Y-90362270D01*
X109501762Y-90527908D01*
X109521084Y-90542947D01*
X109679424Y-90666189D01*
X109711235Y-90683404D01*
X109712680Y-90684186D01*
X109763071Y-90734200D01*
X109778423Y-90803516D01*
X109753862Y-90870129D01*
X109712680Y-90905813D01*
X109679426Y-90923810D01*
X109679424Y-90923811D01*
X109501762Y-91062091D01*
X109349279Y-91227729D01*
X109349275Y-91227734D01*
X109226141Y-91416206D01*
X109135703Y-91622386D01*
X109135702Y-91622387D01*
X109080437Y-91840624D01*
X109080436Y-91840630D01*
X109080436Y-91840632D01*
X109061844Y-92065000D01*
X109080085Y-92285134D01*
X109080437Y-92289375D01*
X109135702Y-92507612D01*
X109135703Y-92507613D01*
X109135704Y-92507616D01*
X109197109Y-92647606D01*
X109226141Y-92713793D01*
X109349275Y-92902265D01*
X109349279Y-92902270D01*
X109501762Y-93067908D01*
X109556331Y-93110381D01*
X109679424Y-93206189D01*
X109712680Y-93224186D01*
X109763070Y-93274196D01*
X109778423Y-93343513D01*
X109753864Y-93410126D01*
X109712683Y-93445811D01*
X109679430Y-93463807D01*
X109679424Y-93463811D01*
X109501762Y-93602091D01*
X109349279Y-93767729D01*
X109349275Y-93767734D01*
X109226141Y-93956206D01*
X109135703Y-94162386D01*
X109135702Y-94162387D01*
X109080437Y-94380624D01*
X109080436Y-94380630D01*
X109080436Y-94380632D01*
X109061844Y-94605000D01*
X109071244Y-94718445D01*
X109080437Y-94829375D01*
X109135702Y-95047612D01*
X109135703Y-95047613D01*
X109135704Y-95047616D01*
X109197204Y-95187823D01*
X109226141Y-95253793D01*
X109349275Y-95442265D01*
X109349279Y-95442270D01*
X109501762Y-95607908D01*
X109526221Y-95626945D01*
X109679424Y-95746189D01*
X109712680Y-95764186D01*
X109763070Y-95814196D01*
X109778423Y-95883513D01*
X109753864Y-95950126D01*
X109712683Y-95985811D01*
X109679430Y-96003807D01*
X109679424Y-96003811D01*
X109501762Y-96142091D01*
X109349279Y-96307729D01*
X109349275Y-96307734D01*
X109226141Y-96496206D01*
X109135703Y-96702386D01*
X109135702Y-96702387D01*
X109080437Y-96920624D01*
X109080436Y-96920630D01*
X109080436Y-96920632D01*
X109061844Y-97145000D01*
X109073196Y-97282000D01*
X109080437Y-97369375D01*
X109135702Y-97587612D01*
X109135703Y-97587613D01*
X109135704Y-97587616D01*
X109226140Y-97793791D01*
X109226141Y-97793793D01*
X109349275Y-97982265D01*
X109349279Y-97982270D01*
X109501762Y-98147908D01*
X109510730Y-98154888D01*
X109679424Y-98286189D01*
X109877426Y-98393342D01*
X109877427Y-98393342D01*
X109877428Y-98393343D01*
X109923540Y-98409173D01*
X110090365Y-98466444D01*
X110312431Y-98503500D01*
X110312435Y-98503500D01*
X110537565Y-98503500D01*
X110537569Y-98503500D01*
X110759635Y-98466444D01*
X110972574Y-98393342D01*
X111170576Y-98286189D01*
X111348240Y-98147906D01*
X111409245Y-98081637D01*
X111470096Y-98045067D01*
X111541061Y-98047200D01*
X111599606Y-98087362D01*
X111620000Y-98122941D01*
X111664111Y-98241204D01*
X111664112Y-98241207D01*
X111751738Y-98358261D01*
X111868792Y-98445887D01*
X111868794Y-98445888D01*
X111868796Y-98445889D01*
X111923900Y-98466442D01*
X112005795Y-98496988D01*
X112005803Y-98496990D01*
X112066350Y-98503499D01*
X112066355Y-98503499D01*
X112066362Y-98503500D01*
X112066368Y-98503500D01*
X113863632Y-98503500D01*
X113863638Y-98503500D01*
X113863645Y-98503499D01*
X113863649Y-98503499D01*
X113924196Y-98496990D01*
X113924199Y-98496989D01*
X113924201Y-98496989D01*
X114061204Y-98445889D01*
X114131399Y-98393342D01*
X114178261Y-98358261D01*
X114265887Y-98241207D01*
X114265887Y-98241206D01*
X114265889Y-98241204D01*
X114316989Y-98104201D01*
X114318800Y-98087362D01*
X114323499Y-98043649D01*
X114323500Y-98043632D01*
X114323500Y-96246367D01*
X114323499Y-96246350D01*
X114316990Y-96185803D01*
X114316988Y-96185795D01*
X114265889Y-96048797D01*
X114265887Y-96048792D01*
X114178261Y-95931738D01*
X114061207Y-95844112D01*
X114061203Y-95844110D01*
X113946192Y-95801213D01*
X113889356Y-95758667D01*
X113864546Y-95692146D01*
X113879638Y-95622772D01*
X113897525Y-95597820D01*
X114040714Y-95442277D01*
X114040724Y-95442265D01*
X114093704Y-95361173D01*
X114163860Y-95253791D01*
X114254296Y-95047616D01*
X114309564Y-94829368D01*
X114328156Y-94605000D01*
X114309564Y-94380632D01*
X114288862Y-94298882D01*
X114254297Y-94162387D01*
X114254296Y-94162386D01*
X114254296Y-94162384D01*
X114163860Y-93956209D01*
X114157140Y-93945924D01*
X114040724Y-93767734D01*
X114040720Y-93767729D01*
X113888237Y-93602091D01*
X113784849Y-93521621D01*
X113710576Y-93463811D01*
X113677319Y-93445813D01*
X113626929Y-93395802D01*
X113611576Y-93326485D01*
X113636136Y-93259872D01*
X113677320Y-93224186D01*
X113691345Y-93216596D01*
X113710576Y-93206189D01*
X113888240Y-93067906D01*
X114040722Y-92902268D01*
X114043524Y-92897980D01*
X114112435Y-92792503D01*
X114163860Y-92713791D01*
X114254296Y-92507616D01*
X114309564Y-92289368D01*
X114328156Y-92065000D01*
X114309564Y-91840632D01*
X114304441Y-91820403D01*
X114254297Y-91622387D01*
X114254296Y-91622386D01*
X114254296Y-91622384D01*
X114163860Y-91416209D01*
X114157140Y-91405924D01*
X114040724Y-91227734D01*
X114040720Y-91227729D01*
X113901117Y-91076082D01*
X113888240Y-91062094D01*
X113888239Y-91062093D01*
X113888237Y-91062091D01*
X113796001Y-90990301D01*
X113710576Y-90923811D01*
X113676792Y-90905528D01*
X113626402Y-90855516D01*
X113611050Y-90786199D01*
X113635610Y-90719586D01*
X113676793Y-90683901D01*
X113710300Y-90665767D01*
X113710301Y-90665767D01*
X113887902Y-90527534D01*
X114040325Y-90361958D01*
X114163419Y-90173548D01*
X114253820Y-89967456D01*
X114253823Y-89967449D01*
X114301544Y-89779000D01*
X113395703Y-89779000D01*
X113430925Y-89717993D01*
X113465000Y-89590826D01*
X113465000Y-89459174D01*
X113430925Y-89332007D01*
X113395703Y-89271000D01*
X114301544Y-89271000D01*
X114301544Y-89270999D01*
X114253823Y-89082550D01*
X114253820Y-89082543D01*
X114163419Y-88876451D01*
X114040325Y-88688041D01*
X113887902Y-88522465D01*
X113710301Y-88384232D01*
X113710300Y-88384231D01*
X113512371Y-88277117D01*
X113512369Y-88277116D01*
X113299512Y-88204043D01*
X113299501Y-88204040D01*
X113219000Y-88190606D01*
X113219000Y-89094297D01*
X113157993Y-89059075D01*
X113030826Y-89025000D01*
X112899174Y-89025000D01*
X112772007Y-89059075D01*
X112711000Y-89094297D01*
X112711000Y-88190607D01*
X112710999Y-88190606D01*
X112630498Y-88204040D01*
X112630487Y-88204043D01*
X112417630Y-88277116D01*
X112417628Y-88277117D01*
X112219699Y-88384231D01*
X112219698Y-88384232D01*
X112042097Y-88522465D01*
X111889670Y-88688045D01*
X111800780Y-88824101D01*
X111746776Y-88870189D01*
X111676428Y-88879764D01*
X111612071Y-88849786D01*
X111589816Y-88824101D01*
X111550884Y-88764511D01*
X111500724Y-88687734D01*
X111500720Y-88687729D01*
X111384570Y-88561559D01*
X111348240Y-88522094D01*
X111348239Y-88522093D01*
X111348237Y-88522091D01*
X111266382Y-88458381D01*
X111170576Y-88383811D01*
X110972574Y-88276658D01*
X110972572Y-88276657D01*
X110972571Y-88276656D01*
X110759639Y-88203557D01*
X110759630Y-88203555D01*
X110682029Y-88190606D01*
X110537569Y-88166500D01*
X110312431Y-88166500D01*
X110167971Y-88190606D01*
X110090369Y-88203555D01*
X110090360Y-88203557D01*
X109877428Y-88276656D01*
X109877426Y-88276658D01*
X109692474Y-88376749D01*
X109679426Y-88383810D01*
X109679424Y-88383811D01*
X109501762Y-88522091D01*
X109349279Y-88687729D01*
X109349275Y-88687734D01*
X109226141Y-88876206D01*
X109135703Y-89082386D01*
X109135702Y-89082387D01*
X109080437Y-89300624D01*
X109080436Y-89300630D01*
X109080436Y-89300632D01*
X109061844Y-89525000D01*
X101610500Y-89525000D01*
X101610500Y-76825000D01*
X109061844Y-76825000D01*
X109079722Y-77040757D01*
X109080437Y-77049375D01*
X109135702Y-77267612D01*
X109135703Y-77267613D01*
X109226141Y-77473793D01*
X109349275Y-77662265D01*
X109349279Y-77662270D01*
X109501762Y-77827908D01*
X109556331Y-77870381D01*
X109679424Y-77966189D01*
X109712680Y-77984186D01*
X109763070Y-78034196D01*
X109778423Y-78103513D01*
X109753864Y-78170126D01*
X109712683Y-78205811D01*
X109679430Y-78223807D01*
X109679424Y-78223811D01*
X109501762Y-78362091D01*
X109349279Y-78527729D01*
X109349275Y-78527734D01*
X109226141Y-78716206D01*
X109135703Y-78922386D01*
X109135702Y-78922387D01*
X109080437Y-79140624D01*
X109080436Y-79140630D01*
X109080436Y-79140632D01*
X109061844Y-79365000D01*
X109076434Y-79541075D01*
X109080437Y-79589375D01*
X109135702Y-79807612D01*
X109135703Y-79807613D01*
X109135704Y-79807616D01*
X109184342Y-79918501D01*
X109226141Y-80013793D01*
X109349275Y-80202265D01*
X109349279Y-80202270D01*
X109501762Y-80367908D01*
X109507775Y-80372588D01*
X109679424Y-80506189D01*
X109712680Y-80524186D01*
X109763070Y-80574196D01*
X109778423Y-80643513D01*
X109753864Y-80710126D01*
X109712683Y-80745811D01*
X109679430Y-80763807D01*
X109679424Y-80763811D01*
X109501762Y-80902091D01*
X109349279Y-81067729D01*
X109349275Y-81067734D01*
X109226141Y-81256206D01*
X109135703Y-81462386D01*
X109135702Y-81462387D01*
X109080437Y-81680624D01*
X109080436Y-81680630D01*
X109080436Y-81680632D01*
X109061844Y-81905000D01*
X109078217Y-82102594D01*
X109080437Y-82129375D01*
X109135702Y-82347612D01*
X109135703Y-82347613D01*
X109135704Y-82347616D01*
X109219829Y-82539403D01*
X109226141Y-82553793D01*
X109349275Y-82742265D01*
X109349279Y-82742270D01*
X109501762Y-82907908D01*
X109553275Y-82948002D01*
X109679424Y-83046189D01*
X109712680Y-83064186D01*
X109763070Y-83114196D01*
X109778423Y-83183513D01*
X109753864Y-83250126D01*
X109712683Y-83285811D01*
X109679430Y-83303807D01*
X109679424Y-83303811D01*
X109501762Y-83442091D01*
X109349279Y-83607729D01*
X109349275Y-83607734D01*
X109226141Y-83796206D01*
X109135703Y-84002386D01*
X109135702Y-84002387D01*
X109080437Y-84220624D01*
X109061844Y-84445000D01*
X109080437Y-84669375D01*
X109135702Y-84887612D01*
X109135703Y-84887613D01*
X109135704Y-84887616D01*
X109217720Y-85074595D01*
X109226141Y-85093793D01*
X109349275Y-85282265D01*
X109349279Y-85282270D01*
X109501762Y-85447908D01*
X109556331Y-85490381D01*
X109679424Y-85586189D01*
X109877426Y-85693342D01*
X109877427Y-85693342D01*
X109877428Y-85693343D01*
X109989227Y-85731723D01*
X110090365Y-85766444D01*
X110312431Y-85803500D01*
X110312435Y-85803500D01*
X110537565Y-85803500D01*
X110537569Y-85803500D01*
X110759635Y-85766444D01*
X110972574Y-85693342D01*
X111170576Y-85586189D01*
X111348240Y-85447906D01*
X111409245Y-85381637D01*
X111470096Y-85345067D01*
X111541061Y-85347200D01*
X111599606Y-85387362D01*
X111620000Y-85422941D01*
X111664111Y-85541204D01*
X111664112Y-85541207D01*
X111751738Y-85658261D01*
X111868792Y-85745887D01*
X111868794Y-85745888D01*
X111868796Y-85745889D01*
X111923900Y-85766442D01*
X112005795Y-85796988D01*
X112005803Y-85796990D01*
X112066350Y-85803499D01*
X112066355Y-85803499D01*
X112066362Y-85803500D01*
X112066368Y-85803500D01*
X113863632Y-85803500D01*
X113863638Y-85803500D01*
X113863645Y-85803499D01*
X113863649Y-85803499D01*
X113924196Y-85796990D01*
X113924199Y-85796989D01*
X113924201Y-85796989D01*
X114061204Y-85745889D01*
X114131399Y-85693342D01*
X114178261Y-85658261D01*
X114265887Y-85541207D01*
X114265887Y-85541206D01*
X114265889Y-85541204D01*
X114316989Y-85404201D01*
X114318800Y-85387362D01*
X114323499Y-85343649D01*
X114323500Y-85343632D01*
X114323500Y-83546367D01*
X114323499Y-83546350D01*
X114316990Y-83485803D01*
X114316988Y-83485795D01*
X114287924Y-83407875D01*
X114265889Y-83348796D01*
X114265888Y-83348794D01*
X114265887Y-83348792D01*
X114178261Y-83231738D01*
X114061207Y-83144112D01*
X114061203Y-83144110D01*
X113946192Y-83101213D01*
X113889356Y-83058667D01*
X113864546Y-82992146D01*
X113879638Y-82922772D01*
X113897525Y-82897820D01*
X114040714Y-82742277D01*
X114040724Y-82742265D01*
X114089675Y-82667339D01*
X114163860Y-82553791D01*
X114254296Y-82347616D01*
X114309564Y-82129368D01*
X114328156Y-81905000D01*
X114309564Y-81680632D01*
X114272291Y-81533444D01*
X114254297Y-81462387D01*
X114254296Y-81462386D01*
X114254296Y-81462384D01*
X114163860Y-81256209D01*
X114155159Y-81242891D01*
X114040724Y-81067734D01*
X114040720Y-81067729D01*
X113888237Y-80902091D01*
X113731894Y-80780404D01*
X113710576Y-80763811D01*
X113677319Y-80745813D01*
X113626929Y-80695802D01*
X113611576Y-80626485D01*
X113636136Y-80559872D01*
X113677320Y-80524186D01*
X113677326Y-80524183D01*
X113710576Y-80506189D01*
X113888240Y-80367906D01*
X114040722Y-80202268D01*
X114163860Y-80013791D01*
X114254296Y-79807616D01*
X114309564Y-79589368D01*
X114328156Y-79365000D01*
X114309564Y-79140632D01*
X114277876Y-79015500D01*
X114254297Y-78922387D01*
X114254296Y-78922386D01*
X114254296Y-78922384D01*
X114163860Y-78716209D01*
X114157140Y-78705924D01*
X114040724Y-78527734D01*
X114040720Y-78527729D01*
X113888237Y-78362091D01*
X113798197Y-78292010D01*
X113710576Y-78223811D01*
X113677319Y-78205813D01*
X113626929Y-78155802D01*
X113611576Y-78086485D01*
X113636136Y-78019872D01*
X113677320Y-77984186D01*
X113691347Y-77976595D01*
X113710576Y-77966189D01*
X113888240Y-77827906D01*
X114040722Y-77662268D01*
X114163860Y-77473791D01*
X114254296Y-77267616D01*
X114309564Y-77049368D01*
X114328156Y-76825000D01*
X114309564Y-76600632D01*
X114276766Y-76471117D01*
X114254297Y-76382387D01*
X114254296Y-76382386D01*
X114254296Y-76382384D01*
X114163860Y-76176209D01*
X114157140Y-76165924D01*
X114040724Y-75987734D01*
X114040720Y-75987729D01*
X113888237Y-75822091D01*
X113792523Y-75747594D01*
X113710576Y-75683811D01*
X113512574Y-75576658D01*
X113512572Y-75576657D01*
X113512571Y-75576656D01*
X113299639Y-75503557D01*
X113299630Y-75503555D01*
X113255476Y-75496187D01*
X113077569Y-75466500D01*
X112852431Y-75466500D01*
X112711171Y-75490072D01*
X112630369Y-75503555D01*
X112630360Y-75503557D01*
X112417428Y-75576656D01*
X112417426Y-75576658D01*
X112219426Y-75683810D01*
X112219424Y-75683811D01*
X112041762Y-75822091D01*
X111889279Y-75987729D01*
X111800483Y-76123643D01*
X111746479Y-76169731D01*
X111676131Y-76179306D01*
X111611774Y-76149329D01*
X111589517Y-76123643D01*
X111540288Y-76048293D01*
X111500722Y-75987732D01*
X111500721Y-75987731D01*
X111500720Y-75987729D01*
X111348237Y-75822091D01*
X111252523Y-75747594D01*
X111170576Y-75683811D01*
X110972574Y-75576658D01*
X110972572Y-75576657D01*
X110972571Y-75576656D01*
X110759639Y-75503557D01*
X110759630Y-75503555D01*
X110715476Y-75496187D01*
X110537569Y-75466500D01*
X110312431Y-75466500D01*
X110171171Y-75490072D01*
X110090369Y-75503555D01*
X110090360Y-75503557D01*
X109877428Y-75576656D01*
X109877426Y-75576658D01*
X109679426Y-75683810D01*
X109679424Y-75683811D01*
X109501762Y-75822091D01*
X109349279Y-75987729D01*
X109349275Y-75987734D01*
X109226141Y-76176206D01*
X109135703Y-76382386D01*
X109135702Y-76382387D01*
X109080437Y-76600624D01*
X109080436Y-76600630D01*
X109080436Y-76600632D01*
X109061844Y-76825000D01*
X101610500Y-76825000D01*
X101610500Y-64701342D01*
X101630502Y-64633221D01*
X101647405Y-64612246D01*
X102759782Y-63500000D01*
X189086673Y-63500000D01*
X189105950Y-63732633D01*
X189163249Y-63958903D01*
X189163252Y-63958910D01*
X189257015Y-64172668D01*
X189384685Y-64368083D01*
X189542774Y-64539813D01*
X189542778Y-64539817D01*
X189619588Y-64599600D01*
X189726983Y-64683190D01*
X189726988Y-64683192D01*
X189726990Y-64683194D01*
X189800468Y-64722958D01*
X189850859Y-64772971D01*
X189866500Y-64833772D01*
X189866500Y-66110606D01*
X189846498Y-66178727D01*
X189812771Y-66213819D01*
X189655703Y-66323799D01*
X189655697Y-66323804D01*
X189493804Y-66485697D01*
X189493799Y-66485703D01*
X189362477Y-66673250D01*
X189265717Y-66880753D01*
X189265715Y-66880759D01*
X189241265Y-66972007D01*
X189206457Y-67101913D01*
X189186502Y-67330000D01*
X189201573Y-67502268D01*
X189206457Y-67558086D01*
X189265715Y-67779240D01*
X189265717Y-67779246D01*
X189362477Y-67986749D01*
X189416436Y-68063811D01*
X189493802Y-68174300D01*
X189655700Y-68336198D01*
X189843251Y-68467523D01*
X190050757Y-68564284D01*
X190271913Y-68623543D01*
X190500000Y-68643498D01*
X190728087Y-68623543D01*
X190949243Y-68564284D01*
X191156749Y-68467523D01*
X191344300Y-68336198D01*
X191506198Y-68174300D01*
X191637523Y-67986749D01*
X191734284Y-67779243D01*
X191793543Y-67558087D01*
X191813498Y-67330000D01*
X191793543Y-67101913D01*
X191734284Y-66880757D01*
X191637523Y-66673251D01*
X191506198Y-66485700D01*
X191344300Y-66323802D01*
X191199465Y-66222387D01*
X191187229Y-66213819D01*
X191142901Y-66158362D01*
X191133500Y-66110606D01*
X191133500Y-64833772D01*
X191153502Y-64765651D01*
X191199532Y-64722958D01*
X191248071Y-64696690D01*
X191273017Y-64683190D01*
X191457220Y-64539818D01*
X191457225Y-64539813D01*
X191461054Y-64536289D01*
X191462431Y-64537785D01*
X191515780Y-64505690D01*
X191586745Y-64507790D01*
X191645310Y-64547924D01*
X191665741Y-64583549D01*
X191689111Y-64646204D01*
X191689112Y-64646207D01*
X191776738Y-64763261D01*
X191893792Y-64850887D01*
X191893794Y-64850888D01*
X191893796Y-64850889D01*
X191934846Y-64866200D01*
X192030795Y-64901988D01*
X192030803Y-64901990D01*
X192091350Y-64908499D01*
X192091355Y-64908499D01*
X192091362Y-64908500D01*
X192091368Y-64908500D01*
X193988632Y-64908500D01*
X193988638Y-64908500D01*
X193988645Y-64908499D01*
X193988649Y-64908499D01*
X194049196Y-64901990D01*
X194049199Y-64901989D01*
X194049201Y-64901989D01*
X194186204Y-64850889D01*
X194303261Y-64763261D01*
X194390889Y-64646204D01*
X194441989Y-64509201D01*
X194442367Y-64505690D01*
X194448499Y-64448649D01*
X194448500Y-64448632D01*
X194448500Y-62551367D01*
X194448499Y-62551350D01*
X194441990Y-62490803D01*
X194441988Y-62490795D01*
X194390889Y-62353797D01*
X194390887Y-62353792D01*
X194303261Y-62236738D01*
X194186207Y-62149112D01*
X194186202Y-62149110D01*
X194049204Y-62098011D01*
X194049196Y-62098009D01*
X193988649Y-62091500D01*
X193988638Y-62091500D01*
X192091362Y-62091500D01*
X192091350Y-62091500D01*
X192030803Y-62098009D01*
X192030795Y-62098011D01*
X191893797Y-62149110D01*
X191893792Y-62149112D01*
X191776738Y-62236738D01*
X191689112Y-62353792D01*
X191689112Y-62353793D01*
X191665741Y-62416451D01*
X191623193Y-62473286D01*
X191556672Y-62498095D01*
X191487298Y-62483002D01*
X191461705Y-62463002D01*
X191461054Y-62463711D01*
X191457221Y-62460182D01*
X191365118Y-62388496D01*
X191273017Y-62316810D01*
X191067727Y-62205713D01*
X191067724Y-62205712D01*
X191067723Y-62205711D01*
X190846955Y-62129921D01*
X190846948Y-62129919D01*
X190748411Y-62113476D01*
X190616712Y-62091500D01*
X190383288Y-62091500D01*
X190268066Y-62110727D01*
X190153051Y-62129919D01*
X190153044Y-62129921D01*
X189932276Y-62205711D01*
X189932273Y-62205713D01*
X189726985Y-62316809D01*
X189726983Y-62316810D01*
X189542778Y-62460182D01*
X189542774Y-62460186D01*
X189384685Y-62631916D01*
X189257015Y-62827331D01*
X189163252Y-63041089D01*
X189163249Y-63041096D01*
X189105950Y-63267366D01*
X189086673Y-63500000D01*
X102759782Y-63500000D01*
X103799723Y-62460182D01*
X104557596Y-61702399D01*
X104619910Y-61668378D01*
X104646686Y-61665500D01*
X200158310Y-61665500D01*
X200226431Y-61685502D01*
G37*
%TD.AperFunction*%
%TD*%
M02*
